<svg width="61" height="61" viewBox="0 0 61 61" fill="none" xmlns="http://www.w3.org/2000/svg">
<rect x="1.25" y="1.75" width="58" height="58" rx="9" stroke="#312B35" stroke-width="2" stroke-linejoin="round"/>
<path d="M30.4375 53.25C27.3125 53.25 24.375 52.6563 21.625 51.4688C18.875 50.2813 16.4687 48.6667 14.4062 46.625C12.3437 44.5833 10.7188 42.1875 9.53125 39.4375C8.34375 36.6875 7.75 33.75 7.75 30.625C7.75 27.5 8.34375 24.5833 9.53125 21.875C10.7188 19.1667 12.3437 16.8021 14.4062 14.7813C16.4687 12.7604 18.875 11.1667 21.625 10C24.375 8.83333 27.3125 8.25 30.4375 8.25C33.7708 8.25 36.9271 8.97917 39.9063 10.4375C41.4234 11.1801 42.8351 12.0632 44.1415 13.0868C45.4468 14.1095 47.625 13.2543 47.625 11.596V11.596C47.625 10.611 48.4235 9.8125 49.4085 9.8125H49.5C50.5355 9.8125 51.375 10.652 51.375 11.6875V16.3125C51.375 19.9024 48.4649 22.8125 44.875 22.8125H40.1875C39.152 22.8125 38.3125 21.973 38.3125 20.9375V20.9375C38.3125 19.902 39.152 19.0625 40.1875 19.0625H40.3739C42.1382 19.0625 43.0107 17.0485 41.6104 15.9752C40.6101 15.2085 39.5421 14.5293 38.4062 13.9375C35.9271 12.6458 33.2708 12 30.4375 12C25.2292 12 20.7708 13.7812 17.0625 17.3437C13.3542 20.9062 11.5 25.2708 11.5 30.4375C11.5 35.7292 13.3333 40.2292 17 43.9375C20.6667 47.6458 25.1458 49.5 30.4375 49.5C35.6458 49.5 40.0417 47.6667 43.625 44C46.7709 40.7809 48.5359 36.9677 48.9199 32.5604C49.0098 31.5288 49.8395 30.6875 50.875 30.6875V30.6875C51.9105 30.6875 52.758 31.5285 52.6831 32.5613C52.288 38.0081 50.1436 42.7064 46.25 46.6562C41.9167 51.0521 36.6458 53.25 30.4375 53.25ZM39.3944 39.6056C38.6574 40.3426 37.4637 40.3465 36.7219 39.6143L31.2438 34.2073C29.4482 32.4351 28.4375 30.0174 28.4375 27.4945V19.9375C28.4375 18.902 29.277 18.0625 30.3125 18.0625V18.0625C31.348 18.0625 32.1875 18.902 32.1875 19.9375V26.377C32.1875 28.614 33.0889 30.7567 34.6882 32.3209L39.3795 36.9095C40.1339 37.6474 40.1406 38.8594 39.3944 39.6056V39.6056Z" fill="#312B35"/>
</svg>
