<svg width="854" height="541" viewBox="0 0 854 541" fill="none" xmlns="http://www.w3.org/2000/svg">
<g filter="url(#filter0_d_82_232)">
<path d="M837.395 343.968L831.244 333.191C833.965 328.799 835.538 323.629 835.538 318.094C835.538 302.172 822.559 289.266 806.55 289.266C790.54 289.266 777.562 302.172 777.562 318.094C777.562 334.014 790.54 346.921 806.55 346.921C813.235 346.921 819.386 344.665 824.29 340.885L824.281 340.897L837.395 343.968Z" fill="#ECECEC"/>
<path d="M203.023 23.7175C207.154 21.9943 210.091 17.7595 210.115 12.7675C210.141 6.23113 205.166 0.907926 199.001 0.879126C192.839 0.850326 187.819 6.12793 187.791 12.6655C187.771 17.7031 190.73 21.9895 194.904 23.7175C177.728 26.2915 178.507 44.8555 178.507 44.8555L219.124 45.0427C219.124 45.0427 220.049 26.2747 203.023 23.7175" fill="#ECECEC"/>
<path d="M75.7193 415.129C70.2773 411.731 64.0436 409.597 57.6519 408.944C54.7004 408.643 51.4738 408.728 49.1051 410.507C48.6031 410.885 48.1132 411.443 48.2254 412.058C48.3087 412.512 48.6936 412.842 49.0616 413.12C56.4127 418.698 67.5321 419.402 75.7193 415.129Z" fill="#E1E1E1"/>
<path d="M75.2556 414.62C71.165 411.445 67.0515 408.25 63.586 404.41C60.1216 400.57 57.3053 396.01 56.2699 390.954C55.9562 389.42 55.8585 387.668 56.8491 386.452C66.1501 393.677 73.4565 403.02 75.2556 414.62Z" fill="#E1E1E1"/>
<path d="M75.6228 415.059C74.9217 409.998 74.6707 404.796 75.8388 399.823C77.0068 394.848 79.7279 390.087 83.9995 387.25C85.6079 390.985 84.9165 395.29 83.7847 399.195C82.0338 405.229 79.2898 410.977 75.6928 416.137" fill="#E1E1E1"/>
<path d="M84.7416 431.308C79.2067 431.978 74.3848 434.879 70.252 438.6C66.1192 442.323 63.1809 447.338 61.9646 452.75C67.3946 452.416 71.9992 448.608 75.3405 444.338C78.6818 440.069 80.9961 435.384 84.6656 431.391" fill="#E1E1E1"/>
<path d="M86.7219 433.907C82.2632 422.985 83.879 409.825 90.8475 400.289C94.0017 411.445 92.8445 424.047 86.7219 433.907Z" fill="#E1E1E1"/>
<path d="M98.7704 448.174C93.747 447.863 88.6392 449.053 84.2771 451.55C79.915 454.048 76.3155 457.842 74.0614 462.318C73.7562 462.926 73.4859 463.699 73.8961 464.245C74.2521 464.718 74.9399 464.762 75.5336 464.724C80.4037 464.41 84.7187 461.497 88.2808 458.179C91.8417 454.861 94.944 451.028 98.879 448.159" fill="#E1E1E1"/>
<path d="M98.3855 447.396C95.7948 439.15 95.6331 430.166 97.927 421.833C98.832 418.542 100.352 415.077 103.412 413.535C103.673 413.403 103.977 413.285 104.251 413.388C104.512 413.486 104.661 413.751 104.782 413.999C105.87 416.261 106.188 418.828 106.076 421.334C105.963 423.838 105.441 426.305 104.92 428.758C103.957 433.295 103.443 438.172 100.941 442.085C100.346 443.015 99.8239 444.018 99.3496 445.013C98.8754 446.008 98.8718 446.358 98.4374 447.149" fill="#E1E1E1"/>
<path d="M130.278 452.122C127.915 443.184 130.423 432.348 136.086 425.021C136.503 424.482 137.057 423.902 137.738 423.966C138.78 424.062 139.052 425.444 139.005 426.485C138.596 435.618 135.532 444.619 130.278 452.122Z" fill="#E1E1E1"/>
<path d="M133.153 454.076C144.072 456.902 156.6 454.155 165.681 447.498C160.3 444.785 153.955 444.009 148.072 445.349C142.19 446.687 136.814 449.306 133.153 454.076Z" fill="#E1E1E1"/>
<path d="M135.578 448.125C141.693 438.21 153.418 431.738 165.1 431.149C163.755 435.873 159.85 439.547 155.444 441.765C151.039 443.984 146.12 444.95 141.273 445.887C139.387 446.251 136.8 446.651 135.578 448.125Z" fill="#E1E1E1"/>
<path d="M130.885 419.247C132.542 413.605 134.206 407.914 134.661 402.053C135.116 396.193 134.276 390.075 131.217 385.046C125.506 396.038 124.927 408.881 130.714 419.836" fill="#E1E1E1"/>
<path d="M150.118 409.58C156.799 397.506 170.429 387.86 184.22 386.509C178.899 399.682 164.39 409.862 150.118 409.58Z" fill="#E1E1E1"/>
<path d="M145.915 411.946C155.879 413.456 164.366 419.783 173.677 423.62C175.668 424.439 177.816 425.093 179.953 424.815C182.09 424.535 184.199 423.111 184.678 421.021C185.075 419.285 184.281 417.443 183.029 416.171C181.777 414.901 180.123 414.106 178.47 413.421C168.329 409.222 157.455 409.119 146.773 411.665" fill="#E1E1E1"/>
<path d="M140.15 418.895C142.405 419.537 143.176 420.699 144.962 422.212C151.022 427.345 158.29 431.057 166.015 432.967C166.818 433.166 167.874 433.244 168.272 432.521C168.62 431.89 168.18 431.126 167.727 430.564C164.491 426.537 159.875 423.782 155.016 421.983C150.158 420.183 145.949 418.016 140.15 418.48" fill="#E1E1E1"/>
<path d="M133.644 376.925C141.746 384.445 153.157 388.305 164.188 387.259C164.69 387.212 165.238 387.133 165.58 386.763C166.348 385.932 165.425 384.648 164.53 383.953C155.55 376.991 144.672 374.103 133.644 376.925Z" fill="#E1E1E1"/>
<path d="M141.358 374.117C152.067 366.133 166.752 363.724 179.472 367.862C174.673 372.568 168.013 375.098 161.31 375.792C154.607 376.487 147.894 375.748 141.358 374.117Z" fill="#E1E1E1"/>
<path d="M138.292 354.831C137.41 345.916 137.982 338.881 137.361 329.924C137.311 329.209 137.156 328.348 136.482 328.09C135.546 327.732 134.764 328.876 134.457 329.828C131.788 338.084 133.247 347.552 138.279 354.634" fill="#E1E1E1"/>
<path d="M137.647 355.816C143.723 352.08 148.28 347.2 152.495 341.465C155.427 337.474 157.9 332.693 157.234 327.794C153.115 327.713 149.202 329.972 146.523 333.085C143.844 336.196 142.252 340.087 141.063 344.009C139.874 347.932 139.042 351.961 137.647 355.816Z" fill="#E1E1E1"/>
<path d="M152.235 351.786C165.569 346.882 178.008 339.588 188.776 330.358C184.411 328.61 179.413 329.656 175.049 331.408C165.08 335.41 156.935 342.165 152.044 351.688" fill="#E1E1E1"/>
<path d="M141.749 360.693C148.494 361.425 155.347 361.904 162.039 360.791C168.618 359.698 174.833 357.105 180.981 354.531C181.49 354.319 182.044 354.063 182.268 353.56C182.51 353.014 182.251 352.349 181.807 351.949C181.361 351.548 180.769 351.357 180.191 351.195C173.508 349.336 166.296 350.207 159.721 352.412C153.146 354.617 147.754 357.236 141.749 360.693Z" fill="#E1E1E1"/>
<path d="M103.232 377.229C98.6294 367.992 98.9287 357.21 102.905 347.689C105.703 351.93 106.044 357.33 105.533 362.377C105.021 367.423 103.477 372.617 103.376 377.689" fill="#E1E1E1"/>
<path d="M84.8471 368.008C73.3572 367.79 61.8625 372.659 54.0602 381.051C59.7955 381.946 65.7021 380.476 70.9185 377.942C76.1349 375.41 80.771 371.855 85.3647 368.327" fill="#E1E1E1"/>
<path d="M72.4864 363.897C66.8657 363.443 61.4562 362.752 56.0516 364.398C50.6469 366.046 45.7285 369.784 43.5264 374.962C48.7826 375.55 54.1137 374.24 58.9331 372.068C63.7525 369.896 68.1339 366.888 72.4864 363.897Z" fill="#E1E1E1"/>
<path d="M90.7873 364.086C85.7314 360.79 80.5379 357.435 74.6506 356.07C68.762 354.705 61.9395 355.713 57.8333 360.127C62.5996 362.908 68.3819 363.237 73.9085 363.232C79.435 363.228 86.2092 363.165 91.4184 365" fill="#E1E1E1"/>
<path d="M90.818 364.35C82.1722 355.908 78.8949 340.743 82.3738 329.201C89.1685 339.47 92.2117 352.137 90.818 364.35Z" fill="#E1E1E1"/>
<path d="M114.589 340.431C116.22 336.661 117.366 332.706 118.83 328.868C120.292 325.032 122.109 321.256 124.874 318.208C127.637 315.163 131.46 312.895 135.581 312.691C133.001 324.307 125.243 334.687 114.801 340.491" fill="#E1E1E1"/>
<path d="M110.288 345.415C107.59 341.722 104.472 336.708 100.813 333.952C97.1545 331.195 92.3893 329.527 87.9247 330.586C92.4654 338.659 101.047 344.35 110.288 345.415Z" fill="#E1E1E1"/>
<path d="M111.148 340.738C109.38 336.268 107.598 331.754 106.884 327.004C106.168 322.255 106.603 317.18 109.045 313.038C113.791 321.958 115.32 331.534 111.391 340.839" fill="#E1E1E1"/>
<path d="M114.633 313.038C117.32 304.194 125.464 297.682 134.255 294.694C135.363 294.318 136.537 294.004 137.695 294.182C138.852 294.36 139.988 295.147 140.23 296.287C140.551 297.79 139.301 299.139 138.126 300.139C131.28 305.96 123.233 310.377 114.633 313.038Z" fill="#E1E1E1"/>
<path d="M114.73 305.805C115.073 300.103 115.43 294.319 117.294 288.916C119.159 283.513 122.753 278.445 127.981 276.081C128.872 281.839 126.316 287.569 123.236 292.525C120.155 297.48 116.44 302.158 114.59 307.685" fill="#E1E1E1"/>
<path d="M114.59 309.73C112.368 303.285 112.138 295.099 108.257 289.484C105.544 285.559 101.2 282.885 98.8631 278.728C97.3101 282.61 97.7855 287.084 99.4097 290.938C101.034 294.792 103.717 298.108 106.589 301.159C109.461 304.209 111.919 306.504 114.59 309.73Z" fill="#E1E1E1"/>
<path d="M114.633 499.53C114.459 499.531 114.31 456.536 114.299 403.512C114.287 350.469 114.417 307.484 114.59 307.484C114.762 307.484 114.912 350.469 114.924 403.512C114.935 456.536 114.806 499.53 114.633 499.53Z" fill="#E1E1E1"/>
<path d="M152.413 370.742C152.425 370.783 151.846 370.997 150.788 371.349C149.62 371.74 148.118 372.244 146.315 372.85C142.543 374.127 137.361 375.977 131.737 378.269C126.168 380.645 120.917 382.574 117.927 385.151C116.433 386.422 115.575 387.799 115.153 388.802C114.723 389.812 114.646 390.429 114.589 390.417C114.567 390.415 114.575 390.261 114.607 389.967C114.657 389.677 114.732 389.245 114.926 388.714C115.29 387.653 116.124 386.182 117.634 384.821C119.137 383.459 121.228 382.234 123.626 381.119C126.022 380.008 128.679 378.848 131.501 377.695C137.142 375.395 142.363 373.605 146.177 372.431C148.084 371.84 149.639 371.405 150.718 371.116C151.799 370.837 152.401 370.701 152.413 370.742Z" fill="#E1E1E1"/>
<path d="M164.797 340.491C164.811 340.508 164.655 340.673 164.342 340.975C163.973 341.318 163.516 341.747 162.954 342.271C161.666 343.435 159.912 345.019 157.775 346.949C153.304 350.909 147.239 356.279 140.538 362.213C133.809 368.169 127.994 373.862 123.963 378.147C121.946 380.287 120.357 382.06 119.272 383.297C118.767 383.871 118.352 384.341 118.021 384.719C117.73 385.042 117.569 385.205 117.552 385.191C117.535 385.178 117.663 384.988 117.923 384.64C118.185 384.295 118.565 383.78 119.086 383.141C120.115 381.854 121.657 380.032 123.639 377.848C127.597 373.475 133.379 367.717 140.122 361.75C146.873 355.808 153.018 350.468 157.482 346.619C159.675 344.751 161.473 343.216 162.793 342.089C163.385 341.601 163.869 341.201 164.259 340.881C164.598 340.61 164.783 340.475 164.797 340.491Z" fill="#E1E1E1"/>
<path d="M133.274 368.27C133.098 368.192 134.504 364.964 135.903 360.882C137.318 356.801 137.982 353.356 138.161 353.386C138.325 353.401 137.927 356.946 136.496 361.081C135.791 363.145 135.014 364.96 134.402 366.248C133.79 367.537 133.35 368.304 133.274 368.27Z" fill="#E1E1E1"/>
<path d="M114.672 394.293C114.637 394.318 114.27 393.891 113.635 393.096C112.932 392.199 112.041 391.064 110.978 389.709C108.747 386.84 105.663 382.881 102.206 378.549C98.7464 374.216 95.5681 370.328 93.2657 367.518C92.181 366.18 91.2711 365.061 90.552 364.174C89.9172 363.38 89.583 362.928 89.6156 362.9C89.6482 362.871 90.0452 363.271 90.7366 364.018C91.4292 364.765 92.409 365.863 93.6048 367.234C95.9952 369.975 99.2315 373.824 102.695 378.163C106.157 382.501 109.19 386.508 111.332 389.445C112.405 390.914 113.258 392.113 113.831 392.953C114.405 393.792 114.707 394.268 114.672 394.293Z" fill="#E1E1E1"/>
<path d="M106.389 383.717C106.287 383.826 104.075 381.219 102.918 377.256C102.064 374.464 102.025 371.909 102.131 370.741L102.407 370.764C102.283 371.262 102.193 371.525 102.143 371.517C102.094 371.508 102.092 371.232 102.133 370.72L102.409 370.741C102.51 371.901 102.686 374.367 103.517 377.08C104.635 380.919 106.556 383.611 106.389 383.717Z" fill="#E1E1E1"/>
<path d="M95.6936 370.339C95.614 370.424 94.902 369.532 93.2706 368.938C91.6525 368.315 89.2162 368.179 86.5434 368.407C83.8683 368.602 81.4791 369.075 79.7692 369.494C78.0594 369.914 77.0144 370.246 76.9818 370.16C76.9529 370.085 77.9484 369.607 79.651 369.07C81.3499 368.539 83.7729 367.985 86.4964 367.786C89.1993 367.555 91.7635 367.762 93.4359 368.531C95.1325 369.278 95.7491 370.323 95.6936 370.339Z" fill="#E1E1E1"/>
<path d="M93.1589 367.096C93.1106 367.192 91.7471 366.533 89.446 365.752C87.1497 364.966 83.8784 364.142 80.1848 363.856C76.4888 363.581 73.1294 363.903 70.739 364.333C68.3462 364.76 66.8982 365.205 66.8656 365.103C66.8523 365.062 67.2023 364.916 67.849 364.685C68.4946 364.447 69.4527 364.173 70.6533 363.903C73.0498 363.356 76.4695 362.957 80.2318 363.236C83.993 363.526 87.3114 364.437 89.598 365.338C90.7431 365.787 91.6493 366.202 92.249 366.535C92.8548 366.861 93.1782 367.058 93.1589 367.096Z" fill="#E1E1E1"/>
<path d="M114.59 353.385C114.422 353.427 113.209 349.24 111.882 344.034C110.554 338.824 109.613 334.57 109.781 334.528C109.947 334.486 111.16 338.672 112.488 343.88C113.815 349.087 114.757 353.343 114.59 353.385Z" fill="#E1E1E1"/>
<path d="M114.762 353.385C114.576 353.445 113.796 350.648 111.761 347.786C109.78 344.864 107.252 343.399 107.345 343.254C107.378 343.189 108.075 343.443 109.049 344.127C110.025 344.804 111.232 345.949 112.272 347.43C114.385 350.407 114.912 353.374 114.762 353.385Z" fill="#E1E1E1"/>
<path d="M114.633 476.611C114.566 476.621 114.438 475.578 113.952 473.752C113.47 471.926 112.563 469.337 111.063 466.308C108.075 460.237 102.64 452.54 95.7333 444.833C92.3111 440.944 88.9916 437.275 86.174 433.763C83.3504 430.256 81.03 426.914 79.3371 423.958C77.6381 421.003 76.5316 418.469 75.886 416.682C75.5686 415.784 75.3358 415.085 75.2079 414.6C75.0715 414.119 75.01 413.864 75.0305 413.857C75.086 413.839 75.4009 414.841 76.1129 416.593C76.8248 418.345 77.9832 420.833 79.7184 423.736C81.4487 426.641 83.7885 429.935 86.6217 433.404C89.4501 436.88 92.7757 440.528 96.2051 444.424C103.129 452.152 108.552 459.946 111.46 466.117C112.923 469.195 113.775 471.835 114.187 473.693C114.387 474.625 114.522 475.35 114.569 475.849C114.632 476.346 114.655 476.608 114.633 476.611Z" fill="#E1E1E1"/>
<path d="M148.773 438.263C148.793 438.309 148.14 438.637 146.983 439.261C145.836 439.902 144.208 440.89 142.342 442.313C140.477 443.734 138.391 445.597 136.248 447.84C134.108 450.088 131.905 452.698 129.656 455.495C125.159 461.105 120.953 466.071 118.435 470.034C117.157 471.999 116.227 473.657 115.617 474.82C115.004 475.98 114.678 476.632 114.633 476.611C114.613 476.602 114.671 476.429 114.799 476.106C114.932 475.787 115.113 475.306 115.4 474.712C115.944 473.512 116.821 471.81 118.062 469.799C120.507 465.739 124.679 460.708 129.168 455.106C131.422 452.304 133.652 449.688 135.831 447.444C138.015 445.205 140.157 443.351 142.078 441.96C143.998 440.568 145.68 439.627 146.871 439.047C147.464 438.751 147.947 438.57 148.267 438.433C148.591 438.301 148.764 438.243 148.773 438.263Z" fill="#E1E1E1"/>
<path d="M149.441 450.703C149.448 450.793 147.996 450.969 145.659 451.249C143.33 451.549 140.087 451.936 136.69 453.006C133.305 454.103 130.491 455.773 128.658 457.198C126.807 458.62 125.935 459.797 125.849 459.729C125.819 459.707 126 459.385 126.409 458.863C126.813 458.335 127.476 457.631 128.38 456.857C130.184 455.311 133.024 453.54 136.498 452.415C139.978 451.32 143.265 451.002 145.616 450.813C147.974 450.642 149.434 450.623 149.441 450.703Z" fill="#E1E1E1"/>
<path d="M126.953 458.362C126.755 458.25 128.46 455.662 129.782 452.179C131.023 448.666 131.313 445.584 131.535 445.62C131.616 445.63 131.613 446.4 131.473 447.637C131.325 448.871 131.026 450.586 130.369 452.391C129.709 454.194 128.842 455.701 128.177 456.751C127.502 457.799 127.023 458.405 126.953 458.362Z" fill="#E1E1E1"/>
<path d="M159.83 404.863C159.837 404.884 159.628 404.993 159.225 405.184C158.754 405.395 158.168 405.661 157.446 405.988C156.668 406.319 155.723 406.739 154.659 407.298C153.591 407.846 152.343 408.41 151.046 409.187C150.386 409.559 149.698 409.948 148.983 410.353C148.267 410.762 147.559 411.247 146.806 411.716C145.286 412.634 143.762 413.765 142.135 414.918C138.953 417.319 135.607 420.163 132.385 423.445C129.195 426.761 126.451 430.184 124.146 433.43C123.042 435.086 121.958 436.638 121.088 438.182C120.643 438.947 120.18 439.667 119.792 440.392C119.41 441.116 119.043 441.815 118.691 442.483C117.956 443.798 117.431 445.057 116.917 446.138C116.392 447.215 116.001 448.169 115.694 448.954C115.392 449.681 115.144 450.274 114.948 450.746C114.77 451.156 114.668 451.367 114.647 451.36C114.627 451.352 114.689 451.128 114.829 450.706C114.998 450.22 115.208 449.611 115.468 448.866C115.74 448.066 116.1 447.094 116.596 445.999C117.082 444.9 117.582 443.622 118.296 442.285C118.639 441.607 118.996 440.899 119.369 440.164C119.746 439.428 120.203 438.696 120.642 437.922C121.499 436.356 122.574 434.783 123.672 433.104C125.968 429.817 128.72 426.355 131.936 423.014C135.183 419.705 138.568 416.851 141.792 414.457C143.441 413.308 144.985 412.187 146.53 411.282C147.293 410.819 148.013 410.34 148.738 409.939C149.465 409.544 150.164 409.164 150.834 408.8C152.153 408.046 153.42 407.506 154.508 406.985C155.593 406.453 156.556 406.063 157.351 405.764C158.092 405.482 158.696 405.251 159.178 405.067C159.598 404.915 159.822 404.843 159.83 404.863Z" fill="#E1E1E1"/>
<path d="M132.81 422.867C132.755 422.858 133.056 421.814 134.295 420.667C135.505 419.521 137.712 418.459 140.281 418.384C142.843 418.315 145.065 419.028 146.581 419.606C148.107 420.202 148.994 420.685 148.963 420.757C148.927 420.844 147.978 420.503 146.435 420.022C144.901 419.554 142.73 418.938 140.302 419.004C137.884 419.078 135.795 420.004 134.584 421C133.345 421.992 132.91 422.928 132.81 422.867Z" fill="#E1E1E1"/>
<path d="M128.771 427.011C128.6 426.916 130.124 424.693 130.47 421.511C130.87 418.333 129.901 415.823 130.09 415.77C130.158 415.741 130.498 416.326 130.793 417.372C131.087 418.413 131.284 419.928 131.092 421.584C130.895 423.237 130.355 424.667 129.826 425.613C129.298 426.563 128.832 427.054 128.771 427.011Z" fill="#E1E1E1"/>
<path d="M84.7736 482.771C85.7051 499.201 90.6838 515.912 98.3413 532.807H131.643C138.947 516.08 143.582 499.396 144.406 482.771H84.7736Z" fill="#E1E1E1"/>
<path d="M139.008 509.359C139.008 509.531 128.044 509.67 114.521 509.67C100.995 509.67 90.032 509.531 90.032 509.359C90.032 509.187 100.995 509.049 114.521 509.049C128.044 509.049 139.008 509.187 139.008 509.359Z" fill="#FAFAFA"/>
<path d="M138.264 515.311C138.264 515.483 127.984 515.622 115.308 515.622C102.626 515.622 92.3503 515.483 92.3503 515.311C92.3503 515.14 102.626 515 115.308 515C127.984 515 138.264 515.14 138.264 515.311Z" fill="#FAFAFA"/>
<path d="M98.8787 493.559C99.0512 493.559 99.1912 496.975 99.1912 501.186C99.1912 505.4 99.0512 508.816 98.8787 508.816C98.7061 508.816 98.5662 505.4 98.5662 501.186C98.5662 496.975 98.7061 493.559 98.8787 493.559Z" fill="#FAFAFA"/>
<path d="M116.722 493.559C116.894 493.559 117.034 497.097 117.034 501.459C117.034 505.823 116.894 509.359 116.722 509.359C116.549 509.359 116.409 505.823 116.409 501.459C116.409 497.097 116.549 493.559 116.722 493.559Z" fill="#FAFAFA"/>
<path d="M133.472 493.425C133.645 493.425 133.785 497.034 133.785 501.482C133.785 505.933 133.645 509.54 133.472 509.54C133.3 509.54 133.16 505.933 133.16 501.482C133.16 497.034 133.3 493.425 133.472 493.425Z" fill="#FAFAFA"/>
<path d="M143.348 493.559C143.348 493.732 130.487 493.87 114.627 493.87C98.7617 493.87 85.9047 493.732 85.9047 493.559C85.9047 493.387 98.7617 493.248 114.627 493.248C130.487 493.248 143.348 493.387 143.348 493.559Z" fill="#FAFAFA"/>
<path d="M757.356 48.0777C749.783 48.0777 743.645 41.9733 743.645 34.4421C743.645 26.9109 749.783 20.8053 757.356 20.8053C764.928 20.8053 771.068 26.9109 771.068 34.4421C771.068 41.9733 764.928 48.0777 757.356 48.0777ZM788.512 34.5873C788.512 15.5097 771.177 0.459342 751.317 4.16734C738.825 6.49894 728.87 16.6437 726.683 29.0949C725.314 36.8781 726.93 44.1981 730.499 50.2413H730.483L730.572 50.3565C731.766 52.3593 733.263 53.7909 734.775 55.8957L752.865 79.7265C755.117 82.6917 759.595 82.6917 761.846 79.7265L779.635 56.2881C779.635 56.2881 782.956 52.3497 784.16 50.3253L784.225 50.2413H784.213C786.929 45.6429 788.512 40.3053 788.512 34.5873" fill="#F5F5F5"/>
<path d="M181.716 247.222L62.8946 268.028L42.6539 153.705L161.476 132.899L181.716 247.222Z" fill="#F5F5F5"/>
<path d="M70.3748 256.63L92.8284 192.046L126.371 224.939L139.173 202.11L170.771 239.051L70.3748 256.63Z" fill="#E1E1E1"/>
<path d="M129.141 173.89C129.972 178.587 126.818 183.066 122.095 183.891C117.373 184.718 112.871 181.582 112.039 176.886C111.207 172.189 114.362 167.712 119.084 166.885C123.807 166.058 128.309 169.194 129.141 173.89Z" fill="#E1E1E1"/>
<g opacity="0.300003">
<path d="M170.827 239.369C170.817 239.361 170.78 239.204 170.717 238.904C170.651 238.563 170.564 238.129 170.454 237.576C170.225 236.363 169.903 234.649 169.486 232.442C168.655 227.913 167.451 221.364 165.924 213.048C162.906 196.361 158.611 172.597 153.453 144.066L154.024 144.463C124.952 149.577 90.4882 155.64 53.6535 162.12C53.5377 162.263 54.5271 160.875 54.1108 161.475L54.1157 161.502L54.1253 161.552L54.1422 161.654L54.1796 161.858L54.252 162.267L54.3956 163.082L54.684 164.711L55.2584 167.958C55.6409 170.119 56.021 172.269 56.3999 174.413C57.1577 178.695 57.9082 182.941 58.6503 187.141C60.1333 195.543 61.5849 203.769 62.9979 211.778C65.8143 227.792 68.475 242.933 70.9245 256.861L70.3441 256.457C100.327 251.313 125.372 247.017 142.977 243.996C151.762 242.515 158.687 241.346 163.473 240.54C165.814 240.155 167.63 239.857 168.916 239.646C169.506 239.555 169.968 239.483 170.327 239.427C170.648 239.381 170.817 239.36 170.827 239.369C170.839 239.376 170.692 239.412 170.394 239.473C170.047 239.54 169.608 239.628 169.045 239.738C167.786 239.971 166.01 240.302 163.718 240.729C158.968 241.592 152.095 242.84 143.379 244.423C125.717 247.579 100.595 252.066 70.5179 257.438L70.0255 257.526L69.9387 257.033C67.4566 243.111 64.7572 227.977 61.9035 211.969C60.482 203.963 59.0208 195.738 57.5281 187.338C56.7836 183.138 56.0306 178.893 55.2716 174.609C54.8915 172.467 54.5102 170.317 54.1277 168.156L53.5533 164.909L53.2637 163.28L53.1189 162.465L53.0465 162.057L53.0103 161.852L52.9922 161.75L52.9838 161.7L52.979 161.675C52.5627 162.257 53.5413 160.849 53.4532 160.994C90.3 154.572 124.772 148.565 153.853 143.496L154.341 143.412L154.425 143.894C159.399 172.59 163.542 196.489 166.453 213.272C167.863 221.561 168.975 228.089 169.743 232.601C170.103 234.777 170.383 236.467 170.582 237.663C170.665 238.197 170.73 238.619 170.781 238.949C170.823 239.234 170.839 239.376 170.827 239.369Z" fill="#E1E1E1"/>
</g>
<path d="M110.683 91.1733L42.2598 77.9565L51.2181 32.0925L119.64 45.3093L110.683 91.1733Z" fill="#F5F5F5"/>
<path d="M119.752 45.9027C119.761 45.9219 119.501 46.0887 118.995 46.3899C118.433 46.7163 117.692 47.1459 116.766 47.6823C114.756 48.8139 111.949 50.3955 108.503 52.3359C101.439 56.2455 91.7713 61.5963 81.0622 67.5219L80.8365 67.6467L80.6676 67.4511C80.5397 67.3011 80.4009 67.1379 80.2609 66.9759C72.2511 57.5607 65.0014 49.0419 59.7017 42.8127C57.1279 39.7407 55.0295 37.2363 53.5272 35.4447C52.8394 34.6023 52.2892 33.9291 51.8729 33.4203C51.5 32.9523 51.3118 32.7003 51.3287 32.6859C51.3456 32.6727 51.5652 32.8971 51.9694 33.3375C52.4086 33.8283 52.9891 34.4763 53.7143 35.2851C55.254 37.0467 57.4055 39.5067 60.0432 42.5247C65.3791 48.7227 72.6782 57.2007 80.7436 66.5679C80.8824 66.7299 81.0211 66.8931 81.149 67.0431L80.7557 66.9711C91.4998 61.1091 101.2 55.8159 108.288 51.9495C111.774 50.0811 114.615 48.5595 116.648 47.4699C117.598 46.9755 118.358 46.5795 118.933 46.2795C119.459 46.0143 119.741 45.8835 119.752 45.9027Z" fill="#E1E1E1"/>
<path d="M42.371 78.5506C42.2612 78.415 48.6348 73.123 56.6037 66.7294C64.5761 60.3346 71.1259 55.2622 71.2357 55.3978C71.3455 55.5322 64.9731 60.8254 57.0019 67.2202C49.0318 73.6126 42.4808 78.6862 42.371 78.5506Z" fill="#E1E1E1"/>
<path d="M94.0921 59.2172C94.2478 59.138 98.1127 66.362 102.725 75.3488C107.338 84.3392 110.949 91.688 110.794 91.7672C110.638 91.8464 106.773 84.6248 102.161 75.6344C97.5492 66.6476 93.9365 59.2964 94.0921 59.2172Z" fill="#E1E1E1"/>
<path d="M785.784 246.592L718.702 223.25C714.066 221.637 711.623 216.592 713.246 211.982L745.735 119.645C747.356 115.036 752.428 112.606 757.064 114.219L799.607 129.023L820.662 174.238L797.114 241.166C795.491 245.776 790.419 248.205 785.784 246.592Z" fill="#ECECEC"/>
<path d="M799.607 129.023L790.463 155.01C788.955 159.298 791.227 163.99 795.537 165.49L820.663 174.238L799.607 129.023Z" fill="#F5F5F5"/>
<path d="M790.003 157.41C790.003 157.41 787.456 163.598 793.942 168.182C794.186 168.353 794.443 168.508 794.703 168.653C797.778 170.379 818.032 181.714 818.204 181.221C818.393 180.687 820.662 174.238 820.662 174.238L795.536 165.495C795.536 165.495 789.337 163.098 790.003 157.41Z" fill="#E1E1E1"/>
<path d="M785.212 151.993C785.094 152.326 778.051 150.179 769.482 147.197C760.91 144.215 754.06 141.527 754.177 141.193C754.295 140.859 761.336 143.006 769.908 145.989C778.477 148.97 785.329 151.659 785.212 151.993Z" fill="#FAFAFA"/>
<path d="M800.085 173.66C799.968 173.994 788.438 170.286 774.334 165.379C760.227 160.47 748.889 156.22 749.008 155.886C749.126 155.552 760.652 159.26 774.76 164.169C788.863 169.076 800.203 173.326 800.085 173.66Z" fill="#FAFAFA"/>
<path d="M800.369 187.53C800.25 187.864 787.69 183.797 772.318 178.447C756.941 173.097 744.573 168.49 744.689 168.155C744.808 167.821 757.364 171.887 772.743 177.239C788.116 182.587 800.486 187.197 800.369 187.53Z" fill="#FAFAFA"/>
<path d="M796.295 199.105C796.178 199.44 783.618 195.373 768.245 190.024C752.867 184.673 740.5 180.065 740.617 179.731C740.735 179.398 753.292 183.463 768.669 188.814C784.044 194.164 796.413 198.772 796.295 199.105Z" fill="#FAFAFA"/>
<path d="M792.222 210.681C792.104 211.015 779.544 206.949 764.172 201.6C748.794 196.249 736.427 191.641 736.544 191.306C736.661 190.974 749.219 195.039 764.597 200.39C779.97 205.74 792.341 210.348 792.222 210.681Z" fill="#FAFAFA"/>
<path d="M788.15 222.257C788.032 222.591 775.472 218.525 760.1 213.176C744.721 207.825 732.355 203.217 732.471 202.883C732.589 202.55 745.146 206.615 760.525 211.966C775.898 217.316 788.267 221.924 788.15 222.257Z" fill="#FAFAFA"/>
<path d="M770.064 441.27C765.896 445.564 766.017 452.405 770.335 456.55C774.652 460.694 781.531 460.574 785.699 456.282C789.867 451.988 789.747 445.146 785.428 441.001C781.111 436.856 774.233 436.978 770.064 441.27ZM764.665 427.853C766.58 426.702 768.62 425.831 770.722 425.237L771.969 419.275L782.097 419.098L783.555 425.011C785.676 425.532 787.744 426.332 789.699 427.416L794.818 424.08L802.105 431.076L798.932 436.279C800.089 438.185 800.967 440.213 801.563 442.303L807.556 443.544L807.735 453.614L801.788 455.065C801.266 457.175 800.46 459.232 799.372 461.176L802.726 466.266L795.691 473.513L790.458 470.357C788.543 471.509 786.505 472.381 784.402 472.975L783.154 478.936L773.026 479.112L771.569 473.198C769.446 472.679 767.379 471.877 765.424 470.795L760.306 474.132L753.019 467.135L756.192 461.93C755.035 460.026 754.156 457.998 753.559 455.908L747.566 454.667L747.388 444.595L753.335 443.144C753.857 441.036 754.663 438.979 755.752 437.035L752.397 431.945L759.432 424.698L764.665 427.853Z" fill="#F5F5F5"/>
<path d="M605.632 49.0369C601.028 53.7805 601.16 61.3369 605.93 65.9161C610.699 70.4953 618.299 70.3621 622.903 65.6185C627.507 60.8761 627.374 53.3197 622.604 48.7405C617.834 44.1613 610.236 44.2945 605.632 49.0369ZM599.669 34.2157C601.784 32.9449 604.036 31.9813 606.359 31.3249L607.735 24.7393L618.924 24.5449L620.533 31.0765C622.878 31.6513 625.163 32.5357 627.322 33.7333L632.975 30.0469L641.025 37.7761L637.521 43.5241C638.799 45.6277 639.769 47.8681 640.428 50.1781L647.049 51.5485L647.245 62.6737L640.676 64.2757C640.098 66.6061 639.209 68.8777 638.006 71.0257L641.712 76.6489L633.941 84.6541L628.161 81.1681C626.044 82.4401 623.793 83.4037 621.47 84.0601L620.09 90.6445L608.905 90.8389L607.294 84.3073C604.95 83.7325 602.665 82.8481 600.506 81.6517L594.852 85.3369L586.803 77.6077L590.308 71.8597C589.028 69.7561 588.059 67.5157 587.401 65.2057L580.778 63.8365L580.582 52.7101L587.151 51.1081C587.729 48.7777 588.618 46.5061 589.82 44.3593L586.116 38.7361L593.888 30.7309L599.669 34.2157Z" fill="#E1E1E1"/>
<path d="M759.098 4.81236L756.697 4.87717C736.447 5.41956 717.962 16.6876 709.135 34.6156C707.999 36.9208 707.033 39.3076 706.248 41.7592C700.609 59.4136 704.72 79.8916 716.785 94.2592C723.88 102.71 733.722 109.528 737.241 119.92C741.821 133.443 734.085 147.602 726.642 159.686C719.198 171.768 711.494 185.957 716.133 199.462C719.039 207.92 726.426 214.275 734.501 218.308C755.882 228.986 782.688 225.134 802.404 212.079C822.119 199.023 835.298 177.959 842.725 155.642C853.128 124.378 852.817 88.8567 837.905 59.1508C822.992 29.4448 792.476 6.75276 759.098 4.81236Z" fill="#F5F5F5"/>
<path d="M45.6958 254.019L47.0582 252.329C58.5444 238.081 76.8532 230.975 94.7094 234.455C97.0045 234.903 99.2682 235.515 101.479 236.295C117.391 241.915 130.012 256.083 133.838 272.62C136.088 282.346 135.652 293.15 141.271 301.369C148.585 312.068 163.105 314.266 175.958 315.538C188.811 316.81 203.337 319.048 210.604 329.777C215.155 336.497 215.725 345.284 214.23 353.295C210.274 374.501 192.793 391.646 172.513 398.656C152.231 405.667 129.714 403.595 109.437 396.705C81.0319 387.053 55.4023 367.372 41.995 340.39C28.5877 313.407 28.8218 279.057 45.6958 254.019Z" fill="#F5F5F5"/>
<path d="M107.24 122.713C107.24 151.064 84.1287 174.048 55.62 174.048C27.1113 174.048 4 151.064 4 122.713C4 94.3621 27.1113 71.3785 55.62 71.3785C84.1287 71.3785 107.24 94.3621 107.24 122.713Z" fill="#F5F5F5"/>
<path d="M813.948 305.198C813.948 325.583 797.331 342.111 776.831 342.111C756.331 342.111 739.713 325.583 739.713 305.198C739.713 284.812 756.331 268.285 776.831 268.285C797.331 268.285 813.948 284.812 813.948 305.198Z" fill="#F5F5F5"/>
<path d="M794.387 531.286C794.387 531.459 628.995 531.598 425.022 531.598C220.977 531.598 55.62 531.459 55.62 531.286C55.62 531.114 220.977 530.973 425.022 530.973C628.995 530.973 794.387 531.114 794.387 531.286Z" fill="#312B35"/>
<path d="M685.484 70.1178H160.493C151.441 70.1178 144.105 77.4137 144.105 86.4149V455.18C144.105 464.181 151.441 471.477 160.493 471.477H361.983C361.983 471.477 374.8 510.892 335.068 531.286H523.472C523.472 531.286 478.613 515.992 490.148 471.477H685.487C694.535 471.477 701.873 464.181 701.873 455.181V86.4149C701.873 77.4137 694.536 70.1178 685.484 70.1178Z" fill="#69839B"/>
<path d="M429.999 432.694C437.14 442.845 425.962 453.96 415.754 446.86C415.418 446.624 415.112 446.32 414.877 445.984C407.754 435.837 418.918 424.736 429.12 431.82C429.457 432.056 429.763 432.359 429.999 432.694Z" fill="#312B35"/>
<path d="M692.834 404.015H153.145V88.5107C153.145 82.0835 158.383 76.8731 164.846 76.8731H681.133C687.595 76.8731 692.834 82.0835 692.834 88.5107V404.015Z" fill="white"/>
<path d="M692.834 104.057H153.145V87.8583C153.145 81.7911 158.09 76.8735 164.19 76.8735H683.763C688.773 76.8735 692.834 80.9115 692.834 85.8927V104.057Z" fill="#ECECEC"/>
<path d="M591.625 471.529C591.625 471.703 516.918 471.843 424.784 471.843C332.617 471.843 257.927 471.703 257.927 471.529C257.927 471.356 332.617 471.216 424.784 471.216C516.918 471.216 591.625 471.356 591.625 471.529Z" fill="#312B35"/>
<path d="M601.322 20.2322H272.225V404.441H601.322V20.2322Z" fill="white"/>
<path d="M601.229 62.2249H556.427V20.2933H601.229V62.2249Z" fill="#F5F5F5"/>
<path d="M576.813 37.5037H573.265V33.9649H576.813V37.5037Z" fill="white"/>
<path d="M581.745 37.5037H578.197V33.9649H581.745V37.5037Z" fill="white"/>
<path d="M586.678 37.5037H583.129V33.9649H586.678V37.5037Z" fill="white"/>
<path d="M576.813 42.7764H573.265V39.2376H576.813V42.7764Z" fill="white"/>
<path d="M581.745 42.7764H578.197V39.2376H581.745V42.7764Z" fill="white"/>
<path d="M586.678 42.7764H583.129V39.2376H586.678V42.7764Z" fill="white"/>
<path d="M576.813 48.0481H573.265V44.5093H576.813V48.0481Z" fill="white"/>
<path d="M581.745 48.0481H578.197V44.5093H581.745V48.0481Z" fill="white"/>
<path d="M586.678 48.0481H583.129V44.5093H586.678V48.0481Z" fill="white"/>
<path d="M601.229 20.2932H272.132V0.878395H601.229V20.2932Z" fill="#E1E1E1"/>
<path d="M284.336 10.5867C284.336 12.3603 282.894 13.7979 281.117 13.7979C279.337 13.7979 277.896 12.3603 277.896 10.5867C277.896 8.81305 279.337 7.37545 281.117 7.37545C282.894 7.37545 284.336 8.81305 284.336 10.5867Z" fill="white"/>
<path d="M293.513 10.5867C293.513 12.3603 292.071 13.7979 290.294 13.7979C288.515 13.7979 287.073 12.3603 287.073 10.5867C287.073 8.81305 288.515 7.37545 290.294 7.37545C292.071 7.37545 293.513 8.81305 293.513 10.5867Z" fill="white"/>
<path d="M302.691 10.5867C302.691 12.3603 301.25 13.7979 299.471 13.7979C297.693 13.7979 296.251 12.3603 296.251 10.5867C296.251 8.81305 297.693 7.37545 299.471 7.37545C301.25 7.37545 302.691 8.81305 302.691 10.5867Z" fill="white"/>
<path d="M310.866 55.7854V66.9358H308.28V62.3638H303.204V66.9358H300.618V55.7854H303.204V60.1822H308.28V55.7854H310.866Z" fill="#312B35"/>
<path d="M315.179 61.9025H319.408C319.233 60.8189 318.42 60.1181 317.302 60.1181C316.169 60.1181 315.355 60.8033 315.179 61.9025ZM321.708 63.3521H315.21C315.451 64.4189 316.36 65.0729 317.668 65.0729C318.578 65.0729 319.233 64.8017 319.825 64.2437L321.15 65.6777C320.351 66.5861 319.154 67.0637 317.606 67.0637C314.636 67.0637 312.704 65.2001 312.704 62.6513C312.704 60.0857 314.669 58.2389 317.286 58.2389C319.808 58.2389 321.755 59.9273 321.755 62.6825C321.755 62.8745 321.724 63.1445 321.708 63.3521" fill="#312B35"/>
<path d="M323.418 55.1163H325.908V66.9363H323.418V55.1163Z" fill="#312B35"/>
<path d="M328.223 55.1163H330.712V66.9363H328.223V55.1163Z" fill="#312B35"/>
<path d="M339.303 62.6513C339.303 61.1693 338.361 60.2777 337.117 60.2777C335.87 60.2777 334.913 61.1693 334.913 62.6513C334.913 64.1321 335.87 65.0249 337.117 65.0249C338.361 65.0249 339.303 64.1321 339.303 62.6513ZM332.39 62.6513C332.39 60.0701 334.386 58.2389 337.117 58.2389C339.846 58.2389 341.825 60.0701 341.825 62.6513C341.825 65.2313 339.846 67.0637 337.117 67.0637C334.386 67.0637 332.39 65.2313 332.39 62.6513Z" fill="#312B35"/>
<path d="M343.167 55.7854H346.136L345.641 63.0646H343.662L343.167 55.7854ZM343.119 65.6134C343.119 64.8022 343.757 64.1962 344.652 64.1962C345.546 64.1962 346.184 64.8022 346.184 65.6134C346.184 66.4102 345.546 67.063 344.652 67.063C343.757 67.063 343.119 66.4102 343.119 65.6134" fill="#312B35"/>
<path d="M356.476 79.1192C356.476 79.292 343.877 79.4312 328.337 79.4312C312.792 79.4312 300.195 79.292 300.195 79.1192C300.195 78.9464 312.792 78.806 328.337 78.806C343.877 78.806 356.476 78.9464 356.476 79.1192Z" fill="#312B35"/>
<path d="M406.604 88.5728C406.604 88.7456 382.782 88.886 353.402 88.886C324.013 88.886 300.195 88.7456 300.195 88.5728C300.195 88.4 324.013 88.2608 353.402 88.2608C382.782 88.2608 406.604 88.4 406.604 88.5728Z" fill="#312B35"/>
<path d="M424.382 99.1507C424.382 99.3235 396.701 99.4639 362.562 99.4639C328.412 99.4639 300.737 99.3235 300.737 99.1507C300.737 98.9779 328.412 98.8387 362.562 98.8387C396.701 98.8387 424.382 98.9779 424.382 99.1507Z" fill="#E1E1E1"/>
<path d="M424.382 106.238C424.382 106.41 396.701 106.55 362.562 106.55C328.412 106.55 300.737 106.41 300.737 106.238C300.737 106.065 328.412 105.926 362.562 105.926C396.701 105.926 424.382 106.065 424.382 106.238Z" fill="#E1E1E1"/>
<path d="M369.385 133.712C364.661 133.712 360.832 129.894 360.832 125.184C360.832 120.473 364.661 116.654 369.385 116.654C374.109 116.654 377.938 120.473 377.938 125.184C377.938 129.894 374.109 133.712 369.385 133.712Z" fill="#DB96AF"/>
<path d="M365.507 128.985H367.277V123.282H365.507V128.985Z" fill="white"/>
<path d="M366.383 122.535C366.961 122.535 367.431 122.063 367.431 121.482C367.431 120.901 366.961 120.43 366.383 120.43C365.805 120.43 365.337 120.901 365.337 121.482C365.337 122.063 365.805 122.535 366.383 122.535Z" fill="white"/>
<path d="M370.106 125.991C370.106 125.189 370.477 124.711 371.185 124.711C371.836 124.711 372.148 125.17 372.148 125.991V128.985H373.91V125.374C373.91 123.846 373.042 123.107 371.83 123.107C370.617 123.107 370.106 124.05 370.106 124.05V123.282H368.409V128.985H370.106V125.991Z" fill="white"/>
<path d="M328.746 133.782C323.984 133.782 320.124 129.932 320.124 125.183C320.124 120.434 323.984 116.585 328.746 116.585C333.508 116.583 337.369 120.434 337.369 125.183C337.369 129.932 333.508 133.782 328.746 133.782Z" fill="#DB96AF"/>
<path d="M330.688 124.959H327.205L327.208 125.954H329.558C329.28 127.166 328.422 127.908 327.271 127.908C325.761 127.908 324.539 126.688 324.539 125.183C324.539 123.678 325.761 122.458 327.271 122.458C327.989 122.458 328.642 122.734 329.129 123.185L329.9 122.523C329.225 121.858 328.297 121.448 327.271 121.448C325.203 121.448 323.526 123.119 323.526 125.183C323.526 127.246 325.203 128.919 327.271 128.919C329.258 128.919 330.694 127.408 330.694 125.344L330.688 124.959Z" fill="white"/>
<path d="M335.695 125H334.257V123.566H333.34V125H331.901V125.915H333.34V127.349H334.257V125.915H335.695V125Z" fill="white"/>
<path d="M349.361 133.661C344.671 133.661 340.869 129.869 340.869 125.192C340.869 120.515 344.671 116.723 349.361 116.723C354.051 116.723 357.854 120.515 357.854 125.192C357.854 129.869 354.051 133.661 349.361 133.661Z" fill="#DB96AF"/>
<path d="M349.361 120.548C348.096 120.548 347.938 120.553 347.441 120.576C346.945 120.599 346.607 120.677 346.311 120.792C346.004 120.911 345.745 121.07 345.486 121.327C345.227 121.586 345.068 121.846 344.949 122.15C344.834 122.446 344.755 122.783 344.733 123.277C344.711 123.773 344.704 123.931 344.704 125.192C344.704 126.454 344.711 126.612 344.733 127.106C344.755 127.601 344.834 127.938 344.949 128.234C345.068 128.539 345.227 128.798 345.486 129.056C345.745 129.314 346.004 129.473 346.311 129.592C346.607 129.707 346.945 129.785 347.441 129.808C347.938 129.83 348.096 129.836 349.361 129.836C350.626 129.836 350.785 129.83 351.281 129.808C351.777 129.785 352.115 129.707 352.411 129.592C352.718 129.473 352.977 129.314 353.236 129.056C353.495 128.798 353.654 128.539 353.773 128.234C353.888 127.938 353.967 127.601 353.99 127.106C354.011 126.612 354.018 126.454 354.018 125.192C354.018 123.931 354.011 123.773 353.99 123.277C353.967 122.783 353.888 122.446 353.773 122.15C353.654 121.846 353.495 121.586 353.236 121.327C352.977 121.07 352.718 120.911 352.411 120.792C352.115 120.677 351.777 120.599 351.281 120.576C350.785 120.553 350.626 120.548 349.361 120.548ZM349.361 121.385C350.604 121.385 350.751 121.39 351.243 121.412C351.697 121.433 351.943 121.508 352.107 121.572C352.325 121.656 352.479 121.757 352.643 121.92C352.805 122.082 352.906 122.237 352.991 122.453C353.055 122.617 353.131 122.863 353.151 123.316C353.174 123.805 353.179 123.952 353.179 125.192C353.179 126.432 353.174 126.578 353.151 127.069C353.131 127.522 353.055 127.768 352.991 127.931C352.906 128.148 352.805 128.302 352.643 128.465C352.479 128.627 352.325 128.728 352.107 128.812C351.943 128.875 351.697 128.951 351.243 128.972C350.751 128.994 350.605 128.999 349.361 128.999C348.118 128.999 347.971 128.994 347.48 128.972C347.025 128.951 346.779 128.875 346.615 128.812C346.397 128.728 346.243 128.627 346.079 128.465C345.917 128.302 345.816 128.148 345.731 127.931C345.667 127.768 345.591 127.522 345.571 127.069C345.548 126.578 345.543 126.432 345.543 125.192C345.543 123.952 345.548 123.805 345.571 123.316C345.591 122.863 345.667 122.617 345.731 122.453C345.816 122.237 345.917 122.082 346.079 121.92C346.243 121.757 346.397 121.656 346.615 121.572C346.779 121.508 347.025 121.433 347.48 121.412C347.971 121.39 348.118 121.385 349.361 121.385" fill="white"/>
<path d="M349.361 126.74C348.504 126.74 347.809 126.046 347.809 125.192C347.809 124.338 348.504 123.644 349.361 123.644C350.218 123.644 350.913 124.338 350.913 125.192C350.913 126.046 350.218 126.74 349.361 126.74ZM349.361 122.808C348.041 122.808 346.971 123.876 346.971 125.192C346.971 126.51 348.041 127.576 349.361 127.576C350.681 127.576 351.751 126.51 351.751 125.192C351.751 123.876 350.681 122.808 349.361 122.808Z" fill="white"/>
<path d="M352.405 122.713C352.405 123.021 352.156 123.27 351.847 123.27C351.538 123.27 351.288 123.021 351.288 122.713C351.288 122.406 351.538 122.157 351.847 122.157C352.156 122.157 352.405 122.406 352.405 122.713Z" fill="white"/>
<path d="M308.417 133.772C303.695 133.772 299.869 129.955 299.869 125.248C299.869 120.54 303.695 116.723 308.417 116.723C313.139 116.723 316.965 120.54 316.965 125.248C316.965 129.955 313.139 133.772 308.417 133.772Z" fill="#DB96AF"/>
<path d="M307.115 130.4H309.195V125.203H310.647L310.802 123.464H309.195V122.473C309.195 122.063 309.277 121.901 309.676 121.901H310.802V120.095H309.362C307.812 120.095 307.115 120.775 307.115 122.076V123.464H306.032V125.226H307.115V130.4Z" fill="white"/>
<path d="M391.198 145.303C391.198 145.476 369.567 145.616 342.891 145.616C316.206 145.616 294.58 145.476 294.58 145.303C294.58 145.13 316.206 144.991 342.891 144.991C369.567 144.991 391.198 145.13 391.198 145.303Z" fill="#312B35"/>
<path d="M586.615 403.872H291.67V176.733H586.615V403.872Z" fill="#F5F5F5"/>
<path d="M384.806 203.733C384.806 203.906 375.835 204.045 364.773 204.045C353.706 204.045 344.737 203.906 344.737 203.733C344.737 203.561 353.706 203.421 364.773 203.421C375.835 203.421 384.806 203.561 384.806 203.733Z" fill="#DB96AF"/>
<path d="M528.48 203.733C528.48 203.906 519.509 204.045 508.447 204.045C497.38 204.045 488.412 203.906 488.412 203.733C488.412 203.561 497.38 203.421 508.447 203.421C519.509 203.421 528.48 203.561 528.48 203.733Z" fill="#DB96AF"/>
<path d="M528.48 249.663C528.48 249.836 519.509 249.977 508.447 249.977C497.38 249.977 488.412 249.836 488.412 249.663C488.412 249.491 497.38 249.351 508.447 249.351C519.509 249.351 528.48 249.491 528.48 249.663Z" fill="#DB96AF"/>
<path d="M398.454 218.46C398.454 218.633 386.803 218.773 372.434 218.773C358.061 218.773 346.411 218.633 346.411 218.46C346.411 218.287 358.061 218.148 372.434 218.148C386.803 218.148 398.454 218.287 398.454 218.46Z" fill="#69839B"/>
<path d="M396.849 245.62C396.849 245.792 385.198 245.932 370.829 245.932C356.456 245.932 344.807 245.792 344.807 245.62C344.807 245.447 356.456 245.308 370.829 245.308C385.198 245.308 396.849 245.447 396.849 245.62Z" fill="#312B35"/>
<path d="M342.53 218.46C342.53 219.121 341.993 219.656 341.331 219.656C340.668 219.656 340.131 219.121 340.131 218.46C340.131 217.8 340.668 217.263 341.331 217.263C341.993 217.263 342.53 217.8 342.53 218.46Z" fill="#312B35"/>
<path d="M342.53 245.62C342.53 246.281 341.993 246.816 341.331 246.816C340.668 246.816 340.131 246.281 340.131 245.62C340.131 244.96 340.668 244.423 341.331 244.423C341.993 244.423 342.53 244.96 342.53 245.62Z" fill="#312B35"/>
<path d="M342.466 268.586C342.466 269.247 341.929 269.782 341.267 269.782C340.604 269.782 340.068 269.247 340.068 268.586C340.068 267.925 340.604 267.39 341.267 267.39C341.929 267.39 342.466 267.925 342.466 268.586Z" fill="#312B35"/>
<path d="M341.267 242.352C341.093 242.352 340.953 237.648 340.953 231.846C340.953 226.042 341.093 221.338 341.267 221.338C341.44 221.338 341.58 226.042 341.58 231.846C341.58 237.648 341.44 242.352 341.267 242.352Z" fill="#312B35"/>
<path d="M341.267 264.209C341.093 264.209 340.953 260.952 340.953 256.936C340.953 252.92 341.093 249.663 341.267 249.663C341.44 249.663 341.58 252.92 341.58 256.936C341.58 260.952 341.44 264.209 341.267 264.209Z" fill="#312B35"/>
<path d="M367.932 222.86C367.932 223.033 363.307 223.173 357.603 223.173C351.898 223.173 347.274 223.033 347.274 222.86C347.274 222.687 351.898 222.548 357.603 222.548C363.307 222.548 367.932 222.687 367.932 222.86Z" fill="#69839B"/>
<path d="M398.034 231.248C398.034 231.421 386.769 231.56 372.877 231.56C358.98 231.56 347.717 231.421 347.717 231.248C347.717 231.075 358.98 230.936 372.877 230.936C386.769 230.936 398.034 231.075 398.034 231.248Z" fill="#E1E1E1"/>
<path d="M383.957 238.233C383.957 238.406 375.844 238.546 365.838 238.546C355.829 238.546 347.717 238.406 347.717 238.233C347.717 238.06 355.829 237.921 365.838 237.921C375.844 237.921 383.957 238.06 383.957 238.233Z" fill="#E1E1E1"/>
<path d="M397.591 234.632C397.591 234.805 386.327 234.944 372.433 234.944C358.537 234.944 347.274 234.805 347.274 234.632C347.274 234.46 358.537 234.32 372.433 234.32C386.327 234.32 397.591 234.46 397.591 234.632Z" fill="#E1E1E1"/>
<path d="M398.034 253.185C398.034 253.358 386.769 253.497 372.877 253.497C358.98 253.497 347.717 253.358 347.717 253.185C347.717 253.012 358.98 252.873 372.877 252.873C386.769 252.873 398.034 253.012 398.034 253.185Z" fill="#E1E1E1"/>
<path d="M383.957 260.171C383.957 260.344 375.844 260.483 365.838 260.483C355.829 260.483 347.717 260.344 347.717 260.171C347.717 259.998 355.829 259.858 365.838 259.858C375.844 259.858 383.957 259.998 383.957 260.171Z" fill="#E1E1E1"/>
<path d="M397.591 256.569C397.591 256.742 386.327 256.882 372.433 256.882C358.537 256.882 347.274 256.742 347.274 256.569C347.274 256.396 358.537 256.257 372.433 256.257C386.327 256.257 397.591 256.396 397.591 256.569Z" fill="#E1E1E1"/>
<path d="M396.849 268.816C396.849 268.989 385.198 269.128 370.829 269.128C356.456 269.128 344.807 268.989 344.807 268.816C344.807 268.642 356.456 268.503 370.829 268.503C385.198 268.503 396.849 268.642 396.849 268.816Z" fill="#312B35"/>
<path d="M398.034 276.38C398.034 276.553 386.769 276.693 372.877 276.693C358.98 276.693 347.717 276.553 347.717 276.38C347.717 276.207 358.98 276.068 372.877 276.068C386.769 276.068 398.034 276.207 398.034 276.38Z" fill="#E1E1E1"/>
<path d="M383.957 283.366C383.957 283.54 375.844 283.679 365.838 283.679C355.829 283.679 347.717 283.54 347.717 283.366C347.717 283.193 355.829 283.054 365.838 283.054C375.844 283.054 383.957 283.193 383.957 283.366Z" fill="#E1E1E1"/>
<path d="M397.591 279.765C397.591 279.937 386.327 280.078 372.433 280.078C358.537 280.078 347.274 279.937 347.274 279.765C347.274 279.592 358.537 279.453 372.433 279.453C386.327 279.453 397.591 279.592 397.591 279.765Z" fill="#E1E1E1"/>
<path d="M384.806 298.967C384.806 299.14 375.835 299.279 364.773 299.279C353.706 299.279 344.737 299.14 344.737 298.967C344.737 298.793 353.706 298.654 364.773 298.654C375.835 298.654 384.806 298.793 384.806 298.967Z" fill="#DB96AF"/>
<path d="M398.454 313.693C398.454 313.867 386.803 314.006 372.434 314.006C358.061 314.006 346.411 313.867 346.411 313.693C346.411 313.52 358.061 313.381 372.434 313.381C386.803 313.381 398.454 313.52 398.454 313.693Z" fill="#69839B"/>
<path d="M396.849 340.853C396.849 341.026 385.198 341.165 370.829 341.165C356.456 341.165 344.807 341.026 344.807 340.853C344.807 340.679 356.456 340.54 370.829 340.54C385.198 340.54 396.849 340.679 396.849 340.853Z" fill="#312B35"/>
<path d="M342.53 313.693C342.53 314.354 341.993 314.889 341.331 314.889C340.668 314.889 340.131 314.354 340.131 313.693C340.131 313.033 340.668 312.498 341.331 312.498C341.993 312.498 342.53 313.033 342.53 313.693Z" fill="#312B35"/>
<path d="M342.53 340.853C342.53 341.513 341.993 342.049 341.331 342.049C340.668 342.049 340.131 341.513 340.131 340.853C340.131 340.192 340.668 339.657 341.331 339.657C341.993 339.657 342.53 340.192 342.53 340.853Z" fill="#312B35"/>
<path d="M342.466 363.82C342.466 364.48 341.929 365.015 341.267 365.015C340.604 365.015 340.068 364.48 340.068 363.82C340.068 363.158 340.604 362.623 341.267 362.623C341.929 362.623 342.466 363.158 342.466 363.82Z" fill="#312B35"/>
<path d="M341.267 337.585C341.093 337.585 340.953 332.881 340.953 327.079C340.953 321.275 341.093 316.571 341.267 316.571C341.44 316.571 341.58 321.275 341.58 327.079C341.58 332.881 341.44 337.585 341.267 337.585Z" fill="#312B35"/>
<path d="M341.267 359.442C341.093 359.442 340.953 356.186 340.953 352.17C340.953 348.153 341.093 344.896 341.267 344.896C341.44 344.896 341.58 348.153 341.58 352.17C341.58 356.186 341.44 359.442 341.267 359.442Z" fill="#312B35"/>
<path d="M367.932 318.093C367.932 318.267 363.307 318.406 357.603 318.406C351.898 318.406 347.274 318.267 347.274 318.093C347.274 317.92 351.898 317.781 357.603 317.781C363.307 317.781 367.932 317.92 367.932 318.093Z" fill="#69839B"/>
<path d="M398.034 326.481C398.034 326.654 386.769 326.793 372.877 326.793C358.98 326.793 347.717 326.654 347.717 326.481C347.717 326.307 358.98 326.168 372.877 326.168C386.769 326.168 398.034 326.307 398.034 326.481Z" fill="#E1E1E1"/>
<path d="M383.957 333.467C383.957 333.64 375.844 333.78 365.838 333.78C355.829 333.78 347.717 333.64 347.717 333.467C347.717 333.294 355.829 333.154 365.838 333.154C375.844 333.154 383.957 333.294 383.957 333.467Z" fill="#E1E1E1"/>
<path d="M397.591 329.866C397.591 330.039 386.327 330.178 372.433 330.178C358.537 330.178 347.274 330.039 347.274 329.866C347.274 329.692 358.537 329.553 372.433 329.553C386.327 329.553 397.591 329.692 397.591 329.866Z" fill="#E1E1E1"/>
<path d="M398.034 348.418C398.034 348.591 386.769 348.731 372.877 348.731C358.98 348.731 347.717 348.591 347.717 348.418C347.717 348.245 358.98 348.106 372.877 348.106C386.769 348.106 398.034 348.245 398.034 348.418Z" fill="#E1E1E1"/>
<path d="M383.957 355.403C383.957 355.577 375.844 355.717 365.838 355.717C355.829 355.717 347.717 355.577 347.717 355.403C347.717 355.231 355.829 355.091 365.838 355.091C375.844 355.091 383.957 355.231 383.957 355.403Z" fill="#E1E1E1"/>
<path d="M397.591 351.802C397.591 351.976 386.327 352.115 372.433 352.115C358.537 352.115 347.274 351.976 347.274 351.802C347.274 351.629 358.537 351.49 372.433 351.49C386.327 351.49 397.591 351.629 397.591 351.802Z" fill="#E1E1E1"/>
<path d="M396.849 364.048C396.849 364.221 385.198 364.362 370.829 364.362C356.456 364.362 344.807 364.221 344.807 364.048C344.807 363.876 356.456 363.736 370.829 363.736C385.198 363.736 396.849 363.876 396.849 364.048Z" fill="#312B35"/>
<path d="M398.034 371.614C398.034 371.787 386.769 371.926 372.877 371.926C358.98 371.926 347.717 371.787 347.717 371.614C347.717 371.44 358.98 371.301 372.877 371.301C386.769 371.301 398.034 371.44 398.034 371.614Z" fill="#E1E1E1"/>
<path d="M383.957 378.599C383.957 378.772 375.844 378.913 365.838 378.913C355.829 378.913 347.717 378.772 347.717 378.599C347.717 378.427 355.829 378.286 365.838 378.286C375.844 378.286 383.957 378.427 383.957 378.599Z" fill="#E1E1E1"/>
<path d="M397.591 374.998C397.591 375.171 386.327 375.31 372.433 375.31C358.537 375.31 347.274 375.171 347.274 374.998C347.274 374.826 358.537 374.685 372.433 374.685C386.327 374.685 397.591 374.826 397.591 374.998Z" fill="#E1E1E1"/>
<path d="M442.465 403.318C442.29 403.318 442.15 352.908 442.15 290.741C442.15 228.551 442.29 178.153 442.465 178.153C442.638 178.153 442.778 228.551 442.778 290.741C442.778 352.908 442.638 403.318 442.465 403.318Z" fill="#69839B"/>
<path d="M556.426 217.152C556.426 217.325 540.568 217.465 521.013 217.465C501.449 217.465 485.597 217.325 485.597 217.152C485.597 216.979 501.449 216.84 521.013 216.84C540.568 216.84 556.426 216.979 556.426 217.152Z" fill="#69839B"/>
<path d="M557.368 222.86C557.368 223.033 541.629 223.173 522.219 223.173C502.801 223.173 487.066 223.033 487.066 222.86C487.066 222.687 502.801 222.548 522.219 222.548C541.629 222.548 557.368 222.687 557.368 222.86Z" fill="#69839B"/>
<path d="M528.48 337.694C528.48 337.867 519.509 338.006 508.447 338.006C497.38 338.006 488.412 337.867 488.412 337.694C488.412 337.52 497.38 337.381 508.447 337.381C519.509 337.381 528.48 337.52 528.48 337.694Z" fill="#DB96AF"/>
<path d="M556.426 351.112C556.426 351.286 540.568 351.425 521.013 351.425C501.449 351.425 485.597 351.286 485.597 351.112C485.597 350.939 501.449 350.8 521.013 350.8C540.568 350.8 556.426 350.939 556.426 351.112Z" fill="#69839B"/>
<path d="M557.368 356.82C557.368 356.994 541.3 357.133 521.484 357.133C501.661 357.133 485.597 356.994 485.597 356.82C485.597 356.647 501.661 356.508 521.484 356.508C541.3 356.508 557.368 356.647 557.368 356.82Z" fill="#69839B"/>
<path d="M550.693 268.694H489.777C488.279 268.694 487.067 267.488 487.067 266C487.067 264.511 488.279 263.305 489.777 263.305H550.693C552.19 263.305 553.404 264.511 553.404 266C553.404 267.488 552.19 268.694 550.693 268.694Z" fill="#E1E1E1"/>
<path d="M522.544 268.694H489.777C488.28 268.694 487.067 267.488 487.067 266C487.067 264.511 488.28 263.305 489.777 263.305H522.544C524.04 263.305 525.254 264.511 525.254 266C525.254 267.488 524.04 268.694 522.544 268.694Z" fill="#DB96AF"/>
<path d="M550.693 280.695H489.777C488.279 280.695 487.067 279.489 487.067 278.001C487.067 276.513 488.279 275.306 489.777 275.306H550.693C552.19 275.306 553.404 276.513 553.404 278.001C553.404 279.489 552.19 280.695 550.693 280.695Z" fill="#E1E1E1"/>
<path d="M511.888 280.695H489.777C488.28 280.695 487.067 279.489 487.067 278.001C487.067 276.513 488.28 275.306 489.777 275.306H511.888C513.384 275.306 514.598 276.513 514.598 278.001C514.598 279.489 513.384 280.695 511.888 280.695Z" fill="#DB96AF"/>
<path d="M550.693 292.698H489.777C488.279 292.698 487.067 291.49 487.067 290.002C487.067 288.514 488.279 287.307 489.777 287.307H550.693C552.19 287.307 553.404 288.514 553.404 290.002C553.404 291.49 552.19 292.698 550.693 292.698Z" fill="#E1E1E1"/>
<path d="M541.866 292.698H489.777C488.279 292.698 487.067 291.49 487.067 290.002C487.067 288.514 488.279 287.307 489.777 287.307H541.866C543.362 287.307 544.576 288.514 544.576 290.002C544.576 291.49 543.362 292.698 541.866 292.698Z" fill="#DB96AF"/>
<path d="M550.693 304.698H489.777C488.279 304.698 487.067 303.491 487.067 302.003C487.067 300.515 488.279 299.308 489.777 299.308H550.693C552.19 299.308 553.404 300.515 553.404 302.003C553.404 303.491 552.19 304.698 550.693 304.698Z" fill="#E1E1E1"/>
<path d="M534.473 304.698H489.777C488.279 304.698 487.067 303.491 487.067 302.003C487.067 300.515 488.279 299.308 489.777 299.308H534.473C535.97 299.308 537.183 300.515 537.183 302.003C537.183 303.491 535.97 304.698 534.473 304.698Z" fill="#DB96AF"/>
<path d="M481.137 267.151C481.137 267.323 478.569 267.463 475.402 267.463C472.233 267.463 469.665 267.323 469.665 267.151C469.665 266.978 472.233 266.837 475.402 266.837C478.569 266.837 481.137 266.978 481.137 267.151Z" fill="#69839B"/>
<path d="M481.137 278.001C481.137 278.174 478.569 278.313 475.402 278.313C472.233 278.313 469.665 278.174 469.665 278.001C469.665 277.828 472.233 277.688 475.402 277.688C478.569 277.688 481.137 277.828 481.137 278.001Z" fill="#69839B"/>
<path d="M481.137 288.851C481.137 289.024 478.569 289.163 475.402 289.163C472.233 289.163 469.665 289.024 469.665 288.851C469.665 288.677 472.233 288.538 475.402 288.538C478.569 288.538 481.137 288.677 481.137 288.851Z" fill="#69839B"/>
<path d="M481.137 299.702C481.137 299.874 478.569 300.014 475.402 300.014C472.233 300.014 469.665 299.874 469.665 299.702C469.665 299.528 472.233 299.388 475.402 299.388C478.569 299.388 481.137 299.528 481.137 299.702Z" fill="#69839B"/>
<path d="M315.887 197.327L326.035 192.898L335.246 197.327L325.828 202.13L315.887 197.327Z" fill="#DB96AF"/>
<path d="M318.007 199.735L317.87 205.77H332.897V199.941L325.642 203.481L318.007 199.735Z" fill="#DB96AF"/>
<path d="M477.666 206.337H462.645V196.845H477.666V206.337Z" fill="#DB96AF"/>
<path d="M473.172 209.308H467.141V206.337H473.172V209.308Z" fill="#DB96AF"/>
<path d="M476.512 209.205C476.512 209.378 473.51 209.517 469.805 209.517C466.102 209.517 463.1 209.378 463.1 209.205C463.1 209.032 466.102 208.893 469.805 208.893C473.51 208.893 476.512 209.032 476.512 209.205Z" fill="#DB96AF"/>
<path d="M327.33 302.228H312.308V292.736H327.33V302.228Z" fill="#DB96AF"/>
<path d="M322.835 305.198H316.803V302.226H322.835V305.198Z" fill="#DB96AF"/>
<path d="M326.176 305.095C326.176 305.269 323.174 305.408 319.469 305.408C315.766 305.408 312.762 305.269 312.762 305.095C312.762 304.922 315.766 304.783 319.469 304.783C323.174 304.783 326.176 304.922 326.176 305.095Z" fill="#DB96AF"/>
<path d="M476.835 252.64L475.461 250.234C476.068 249.254 476.42 248.099 476.42 246.863C476.42 243.309 473.522 240.427 469.948 240.427C466.374 240.427 463.477 243.309 463.477 246.863C463.477 250.418 466.374 253.3 469.948 253.3C471.441 253.3 472.814 252.796 473.908 251.951L473.907 251.955L476.835 252.64Z" fill="#DB96AF"/>
<path d="M473.178 334.211C474.464 333.675 475.379 332.355 475.388 330.801C475.396 328.764 473.847 327.106 471.926 327.097C470.006 327.088 468.442 328.733 468.433 330.768C468.427 332.337 469.348 333.672 470.649 334.211C465.3 335.013 465.542 340.794 465.542 340.794L478.193 340.853C478.193 340.853 478.483 335.008 473.178 334.211Z" fill="#DB96AF"/>
<path d="M601.229 0.878869C601.23 3.31967 601.342 164.483 601.509 404.502V404.781H601.229C503.455 404.79 391.107 404.802 272.167 404.814H272.132H271.817V404.502C271.836 255.161 271.854 116.296 271.869 0.878869V0.618457H272.132C470.557 0.775657 599.042 0.877669 601.229 0.878869C599.042 0.880069 470.557 0.982082 272.132 1.13928L272.393 0.878869C272.408 116.296 272.426 255.161 272.446 404.502L272.132 404.189H272.167C391.107 404.201 503.455 404.213 601.229 404.224L600.949 404.502C601.114 164.483 601.226 3.31727 601.229 0.878869Z" fill="#312B35"/>
<path d="M739.714 257.954C725.393 265.332 714.411 278.033 706.515 292.017C698.619 306.003 693.531 321.349 688.489 336.584L684.079 415.156C700.742 386.965 714.115 353.824 717.729 321.323C714.033 320.996 710.336 320.667 706.641 320.341C714.076 319.212 720.316 313.854 724.288 307.503C728.257 301.151 730.302 293.826 732.297 286.614L718.768 288.614C729.362 281.582 737.042 270.339 739.714 257.954Z" fill="#69839B"/>
<path d="M739.714 257.954C725.393 265.332 714.411 278.033 706.515 292.017C698.619 306.003 693.531 321.349 688.489 336.584L684.079 415.156C700.742 386.965 714.115 353.824 717.729 321.323C714.033 320.996 710.336 320.667 706.641 320.341C714.076 319.212 720.316 313.854 724.288 307.503C728.257 301.151 730.302 293.826 732.297 286.614L718.768 288.614C729.362 281.582 737.042 270.339 739.714 257.954Z" fill="#DB96AF"/>
<g opacity="0.300003">
<path d="M739.714 257.954C725.393 265.332 714.411 278.033 706.515 292.017C698.619 306.003 693.531 321.349 688.489 336.584L684.079 415.156C700.742 386.965 714.115 353.824 717.729 321.323C714.033 320.996 710.336 320.667 706.641 320.341C714.076 319.212 720.316 313.854 724.288 307.503C728.257 301.151 730.302 293.826 732.297 286.614L718.768 288.614C729.362 281.582 737.042 270.339 739.714 257.954Z" fill="#312B35"/>
</g>
<path d="M681.612 433.567C681.612 433.567 645.443 390.516 645.862 349.42H660.471C660.471 349.42 644.602 339.042 645.859 333.229C647.113 327.418 647.532 305.416 647.532 305.416L660.889 308.737C660.889 308.737 650.87 303.755 649.619 295.868C648.366 287.981 652.54 251.45 652.54 251.45C652.54 251.45 668.82 268.47 673.83 285.905C678.838 303.341 691.987 323.682 688.126 376.817C684.266 429.953 681.612 433.567 681.612 433.567Z" fill="#DB96AF"/>
<path d="M699.948 437.63C699.948 437.63 739.132 411.672 747.838 378.54L736.091 375.361C736.091 375.361 751.133 370.47 751.402 365.525C751.67 360.578 756.176 342.8 756.176 342.8L744.705 342.563C744.705 342.563 753.857 340.737 756.598 334.669C759.341 328.601 764.022 298.322 764.022 298.322C764.022 298.322 747.188 308.463 739.325 321.391C731.462 334.319 716.415 347.811 707.83 391.371C699.244 434.931 699.948 437.63 699.948 437.63Z" fill="#DB96AF"/>
<path d="M662.421 288.985C662.432 288.982 662.474 289.133 662.548 289.432C662.626 289.76 662.73 290.199 662.86 290.758C663.13 291.959 663.513 293.674 664.004 295.867C664.504 298.085 665.085 300.806 665.716 303.971C666.359 307.137 667.108 310.738 667.84 314.737C669.387 322.718 671.02 332.261 672.702 342.879C674.33 353.504 675.959 365.21 677.405 377.53C678.823 389.858 679.925 401.626 680.776 412.343C681.574 423.062 682.174 432.725 682.5 440.848C682.705 444.908 682.802 448.582 682.902 451.809C683.014 455.037 683.071 457.816 683.094 460.089C683.119 462.334 683.139 464.091 683.154 465.322C683.154 465.897 683.154 466.347 683.153 466.684C683.149 466.99 683.142 467.149 683.131 467.149C683.12 467.149 683.107 466.991 683.089 466.685C683.073 466.348 683.053 465.898 683.026 465.325C682.985 464.095 682.925 462.339 682.85 460.095C682.789 457.823 682.697 455.047 682.551 451.821C682.415 448.598 682.289 444.925 682.056 440.869C681.673 432.753 681.028 423.099 680.198 412.388C679.315 401.681 678.198 389.92 676.78 377.602C675.335 365.29 673.725 353.589 672.129 342.965C670.48 332.351 668.893 322.807 667.403 314.817C666.7 310.815 665.981 307.21 665.371 304.04C664.774 300.867 664.227 298.142 663.764 295.916C663.324 293.714 662.98 291.992 662.737 290.783C662.631 290.219 662.548 289.777 662.486 289.445C662.432 289.143 662.41 288.987 662.421 288.985Z" fill="#312B35"/>
<path d="M676.595 459.93C676.595 459.93 643.497 422.583 633.221 400.006L640.979 396.71C635.356 397.633 629.594 395.229 625.234 391.58C620.872 387.93 617.671 383.128 614.531 378.399L624.751 376.681C615.458 374.088 607.269 367.779 602.421 359.479C614.481 361.452 625.392 368.04 634.384 376.273C641.665 382.941 647.83 390.681 653.751 398.59C656.64 402.448 659.168 406.558 661.274 410.889C666.834 422.323 676.615 446.214 676.595 459.93Z" fill="#DB96AF"/>
<path d="M748.358 320.059C748.368 320.064 748.315 320.193 748.203 320.439C748.073 320.712 747.905 321.071 747.691 321.523C747.213 322.505 746.536 323.893 745.672 325.665C743.896 329.248 741.38 334.463 738.336 340.935C735.282 347.401 731.77 355.159 727.996 363.827C724.253 372.508 720.268 382.108 716.304 392.269C712.361 402.443 708.815 412.215 705.711 421.143C702.639 430.083 699.99 438.173 697.875 445C695.749 451.825 694.084 457.366 692.975 461.206C692.416 463.093 691.977 464.573 691.667 465.621C691.519 466.097 691.401 466.475 691.312 466.764C691.227 467.021 691.179 467.151 691.168 467.148C691.159 467.145 691.186 467.009 691.249 466.747C691.324 466.453 691.42 466.071 691.545 465.586C691.827 464.532 692.228 463.041 692.738 461.14C693.777 457.278 695.378 451.716 697.451 444.871C699.512 438.023 702.12 429.913 705.163 420.957C708.24 412.012 711.772 402.227 715.717 392.044C719.684 381.874 723.69 372.274 727.465 363.598C731.271 354.936 734.827 347.191 737.934 340.745C741.031 334.295 743.609 329.107 745.455 325.555C746.362 323.807 747.076 322.435 747.579 321.466C747.815 321.025 748.002 320.677 748.145 320.41C748.276 320.173 748.347 320.055 748.358 320.059Z" fill="#312B35"/>
<path d="M679.403 475.933C679.381 475.935 679.329 475.699 679.249 475.246C679.166 474.724 679.06 474.068 678.93 473.263C678.805 472.401 678.645 471.348 678.417 470.13C678.195 468.912 677.981 467.52 677.649 465.998C677.057 462.94 676.207 459.328 675.125 455.358C674.006 451.396 672.635 447.08 670.961 442.634C669.261 438.195 667.422 434.054 665.629 430.345C663.802 426.652 662.039 423.384 660.451 420.7C659.689 419.34 658.923 418.154 658.281 417.094C657.644 416.031 657.064 415.135 656.585 414.406C656.147 413.715 655.789 413.155 655.506 412.707C655.266 412.315 655.146 412.104 655.166 412.092C655.184 412.078 655.336 412.267 655.61 412.636C655.92 413.065 656.31 413.607 656.789 414.27C657.3 414.98 657.91 415.858 658.577 416.907C659.25 417.951 660.044 419.124 660.833 420.475C662.476 423.138 664.286 426.398 666.149 430.09C667.978 433.801 669.841 437.954 671.549 442.412C673.231 446.88 674.592 451.22 675.684 455.206C676.74 459.202 677.547 462.837 678.085 465.915C678.39 467.448 678.574 468.85 678.764 470.076C678.96 471.301 679.084 472.362 679.173 473.23C679.255 474.044 679.322 474.706 679.375 475.231C679.415 475.689 679.426 475.93 679.403 475.933Z" fill="#312B35"/>
<path d="M723.076 481.843H650.637V467.148H723.076V481.843Z" fill="#312B35"/>
<path d="M657.539 481.844L665.375 531.271H709.148L716.449 481.844H657.539Z" fill="#312B35"/>
<path d="M718.632 481.843C718.632 482.017 704.929 482.156 688.029 482.156C671.122 482.156 657.422 482.017 657.422 481.843C657.422 481.67 671.122 481.531 688.029 481.531C704.929 481.531 718.632 481.67 718.632 481.843Z" fill="#69839B"/>
<path d="M478.747 91.2643C478.747 91.2643 465.339 95.8255 463.681 104.697C461.988 113.752 460.152 125.761 460.152 125.761L480.432 124.628L478.747 91.2643Z" fill="#DB96AF"/>
<path d="M490.096 86.9367L477.538 91.7379L474.92 155.465L473.25 176.733H536.014L528.494 91.2639L508.914 87.1863L490.096 86.9367Z" fill="#DB96AF"/>
<path d="M544.476 122.916C544.476 122.916 541.325 93.0603 528.494 91.2651L523.091 111.018V122.916H544.476Z" fill="#DB96AF"/>
<path d="M479.525 127.163C479.525 127.163 484.074 124.999 486.211 125.761C488.348 126.522 497.312 130.701 497.312 130.701L480.431 136.256L476.272 131.532L479.525 127.163Z" fill="#FFBF9D"/>
<g opacity="0.300003">
<path d="M534.153 151.685C533.099 149.086 530.652 147.244 528.013 146.262C525.374 145.281 522.523 145.044 519.714 144.818C511.824 144.179 503.935 143.541 496.046 142.902C493.057 142.66 489.976 142.428 487.125 143.352C482.068 144.993 477.761 149.973 474.97 154.476V155.531C477.388 157.314 480.724 157.292 483.645 156.566C486.565 155.841 489.313 154.504 492.256 153.876C497.788 152.698 503.509 154.106 508.99 155.505C514.001 156.784 519.011 158.063 524.021 159.342C526.723 160.034 529.793 160.672 532.141 159.173C534.512 157.66 535.205 154.284 534.153 151.685Z" fill="#312B35"/>
</g>
<path d="M461.762 125.76C461.762 125.76 461.189 147.609 465.915 151.649C470.643 155.689 473.569 155.016 478.747 154.343C483.924 153.67 513.637 138.873 513.637 138.873L510.486 128.304L479.647 133.915L479.481 124.627L461.762 125.76Z" fill="#FFBF9D"/>
<path d="M541.999 122.916C541.999 122.916 543.35 147.384 541.999 150.527C540.649 153.67 535.697 157.037 530.295 156.139C524.891 155.24 495.92 147.388 495.894 147.398C495.867 147.41 505.983 136.834 505.983 136.834L526.918 136.385L525.568 122.916H541.999Z" fill="#FFBF9D"/>
<path d="M525.568 125.76C519.733 121.602 510.486 128.304 510.486 128.304V129.426L512.797 137.002L526.918 136.385C526.918 136.385 529.324 128.439 525.568 125.76" fill="#FFBF9D"/>
<path d="M526.461 136.256C526.464 136.327 525.197 136.429 523.053 136.543C520.909 136.657 517.889 136.784 514.382 136.907L514.54 136.856C513.252 137.721 511.836 138.637 510.35 139.556C506.338 142.041 502.567 144.06 499.795 145.428C498.41 146.114 497.272 146.634 496.479 146.982C495.685 147.323 495.237 147.493 495.218 147.455C495.2 147.415 495.613 147.17 496.372 146.762C497.251 146.291 498.326 145.713 499.59 145.035C502.302 143.571 506.024 141.501 510.018 139.025C511.498 138.11 512.911 137.207 514.207 136.359L514.281 136.311L514.365 136.309C517.872 136.227 520.896 136.178 523.041 136.169C525.188 136.158 526.459 136.185 526.461 136.256Z" fill="#DB96AF"/>
<path d="M525.568 122.916C525.654 122.91 525.813 124.102 525.999 126.034C526.186 127.964 526.399 130.636 526.599 133.588C526.655 134.504 526.712 135.392 526.765 136.236L526.646 136.015C528.522 137.454 529.888 139.004 530.739 140.176C531.593 141.35 531.969 142.132 531.914 142.165C531.769 142.28 529.988 139.261 526.278 136.498L526.168 136.416L526.157 136.276C526.098 135.433 526.036 134.545 525.971 133.628C525.773 130.676 525.628 128.002 525.555 126.062C525.484 124.123 525.481 122.922 525.568 122.916Z" fill="#DB96AF"/>
<path d="M500.406 130.138C500.422 130.223 498.858 130.587 496.318 131.106C493.778 131.626 490.261 132.301 486.37 133.011C483.961 133.434 481.697 133.834 479.697 134.187L479.862 134.089C478.417 135.813 477.196 137.244 476.323 138.235C475.451 139.227 474.928 139.777 474.882 139.74C474.835 139.703 475.271 139.081 476.07 138.03C476.869 136.98 478.029 135.499 479.433 133.741L479.494 133.665L479.597 133.645C481.593 133.271 483.854 132.846 486.257 132.395C490.148 131.687 493.678 131.081 496.238 130.672C498.799 130.263 500.389 130.053 500.406 130.138Z" fill="#DB96AF"/>
<path d="M479.479 124.628C479.654 124.625 479.831 126.703 479.877 129.266C479.923 131.831 479.82 133.912 479.648 133.916C479.473 133.919 479.295 131.842 479.25 129.278C479.203 126.713 479.305 124.631 479.479 124.628Z" fill="#DB96AF"/>
<path d="M477.542 107.091C477.716 107.074 478.298 111.553 478.846 117.095C479.394 122.64 479.698 127.146 479.526 127.163C479.353 127.18 478.769 122.7 478.22 117.156C477.673 111.615 477.369 107.107 477.542 107.091Z" fill="#312B35"/>
<path d="M526.632 104.844C526.806 104.852 526.736 109.249 526.478 114.665C526.219 120.082 525.869 124.464 525.696 124.456C525.522 124.447 525.592 120.052 525.85 114.635C526.108 109.219 526.458 104.836 526.632 104.844Z" fill="#312B35"/>
<path d="M526.645 54.1253C525.167 52.5449 523.38 51.0521 522.864 48.9545C522.393 47.0249 523.077 44.8169 522.055 43.1117C520.797 41.0141 517.656 40.8365 516.144 38.9141C515.412 37.9829 515.156 36.7493 514.433 35.8109C513.2 34.2137 510.903 33.8513 508.901 34.1285C506.898 34.4045 504.985 35.1857 502.974 35.3897C500.214 35.6681 497.331 34.8581 494.7 35.7329C491.798 36.6989 490.087 39.3413 488.26 41.9045L485.866 44.8853C485.367 45.3977 484.839 45.8729 484.252 46.2761C483.229 46.9841 482.047 47.4869 481.174 48.3749C479.31 50.2745 479.584 53.8073 481.719 55.3985C479.61 56.1425 478.151 58.4081 478.352 60.6293C478.46 61.8509 479.007 62.9837 479.412 64.1429C479.817 65.3009 480.08 66.5969 479.625 67.7369C479.171 68.8769 477.753 69.6941 476.662 69.1253C477.092 70.7009 478.274 72.0533 479.782 72.6905C479.223 73.3001 478.425 73.6853 477.599 73.7417C480.011 78.9233 486.201 81.4901 491.928 81.3341C497.655 81.1793 503.064 78.8369 508.307 76.5329L523.593 72.0353C524.936 71.6825 525.447 70.0241 525.382 68.6393C525.315 67.2545 524.917 65.8253 525.371 64.5161C525.992 62.7197 528.029 61.7117 528.682 59.9261C529.426 57.8981 528.122 55.7045 526.645 54.1253Z" fill="#312B35"/>
<path d="M490.63 69.3398C489.399 65.9018 488.182 62.4386 487.563 58.8398C486.943 55.2434 486.945 51.4742 488.121 48.0182C488.299 47.4938 489.847 43.9694 490.401 44.0078C490.797 44.0354 489.875 47.309 490.085 47.645C492.082 50.8502 492.712 54.7562 492.515 58.5254C492.319 62.2946 491.633 65.7002 490.63 69.3398Z" fill="#312B35"/>
<path d="M504.197 38.066L503.347 38.0443C494.173 38.3515 489.308 46.2919 489.869 55.4299L490.096 86.9371C490.138 92.6371 494.646 97.3075 500.356 97.5655C506.349 97.8355 511.405 93.1555 511.582 87.1747C511.631 85.5187 511.671 84.3607 511.677 84.3607C511.677 84.3607 520.518 83.2135 520.846 74.4355C521.004 70.1947 520.617 61.4359 520.175 53.5147C519.701 44.9983 512.746 38.2784 504.197 38.066Z" fill="#FFBF9D"/>
<path d="M511.677 84.361C511.677 84.361 506.119 84.5482 500.296 80.6962C500.296 80.6962 502.932 87.1522 511.739 86.5798L511.677 84.361Z" fill="#DB96AF"/>
<path d="M516.399 60.6949C516.406 61.3573 515.849 61.9105 515.155 61.9297C514.462 61.9489 513.894 61.4305 513.887 60.7669C513.879 60.1045 514.437 59.5513 515.13 59.5309C515.823 59.5117 516.392 60.0325 516.399 60.6949Z" fill="#312B35"/>
<path d="M518.203 57.1119C518.043 57.2715 517.109 56.5443 515.755 56.5143C514.404 56.4651 513.393 57.1347 513.251 56.9655C513.181 56.8911 513.347 56.5995 513.787 56.2959C514.22 55.9947 514.955 55.7091 515.797 55.7331C516.639 55.7583 517.34 56.0859 517.74 56.4123C518.149 56.7411 518.281 57.0399 518.203 57.1119Z" fill="#312B35"/>
<path d="M503.717 60.6948C503.724 61.3572 503.167 61.9104 502.473 61.9296C501.782 61.95 501.212 61.4304 501.205 60.7668C501.199 60.1044 501.755 59.5512 502.448 59.5308C503.142 59.5116 503.71 60.0324 503.717 60.6948Z" fill="#312B35"/>
<path d="M504.936 57.3287C504.775 57.4883 503.839 56.7623 502.487 56.7311C501.136 56.6819 500.125 57.3527 499.982 57.1823C499.912 57.1079 500.076 56.8175 500.518 56.5139C500.951 56.2115 501.686 55.9259 502.528 55.9499C503.371 55.9763 504.072 56.3027 504.472 56.6291C504.879 56.9579 505.013 57.2579 504.936 57.3287Z" fill="#312B35"/>
<path d="M509.53 67.8181C509.526 67.7413 510.37 67.6177 511.738 67.4773C512.085 67.4497 512.414 67.3897 512.477 67.1557C512.565 66.9097 512.43 66.5341 512.272 66.1285C511.969 65.2873 511.65 64.4053 511.315 63.4801C509.99 59.7085 509.039 56.6113 509.192 56.5597C509.345 56.5081 510.544 59.5213 511.869 63.2929C512.187 64.2229 512.492 65.1085 512.782 65.9569C512.903 66.3517 513.118 66.8017 512.927 67.3141C512.828 67.5685 512.57 67.7497 512.346 67.8037C512.123 67.8661 511.929 67.8649 511.759 67.8697C510.384 67.9093 509.534 67.8949 509.53 67.8181Z" fill="#312B35"/>
<path d="M505.525 68.6526C505.746 68.6454 505.711 70.1106 506.943 71.181C508.171 72.255 509.741 72.129 509.748 72.3342C509.766 72.4266 509.392 72.6102 508.731 72.6114C508.082 72.6186 507.141 72.387 506.388 71.7318C505.636 71.0754 505.328 70.2162 505.293 69.6138C505.251 69.0006 505.425 68.6418 505.525 68.6526Z" fill="#312B35"/>
<path d="M504.997 51.8506C504.854 52.2142 503.508 52.0066 501.915 52.1578C500.32 52.2778 499.029 52.7098 498.826 52.375C498.737 52.2154 498.968 51.8758 499.494 51.5338C500.016 51.1918 500.844 50.875 501.799 50.7934C502.755 50.713 503.624 50.8846 504.196 51.1342C504.772 51.3826 505.06 51.6778 504.997 51.8506Z" fill="#312B35"/>
<path d="M517.756 52.6125C517.51 52.9125 516.586 52.5717 515.466 52.5285C514.348 52.4469 513.391 52.6833 513.18 52.3569C513.089 52.1997 513.246 51.8961 513.667 51.6165C514.082 51.3381 514.772 51.1173 515.542 51.1605C516.312 51.2037 516.973 51.4977 517.355 51.8217C517.742 52.1469 517.865 52.4649 517.756 52.6125Z" fill="#312B35"/>
<path d="M490.426 61.9492C490.278 61.8808 484.419 60.0148 484.463 66.0232C484.506 72.0304 490.546 70.7488 490.554 70.576C490.562 70.4044 490.426 61.9492 490.426 61.9492Z" fill="#FFBF9D"/>
<path d="M488.697 68.3139C488.672 68.2947 488.594 68.3883 488.418 68.4699C488.244 68.5503 487.947 68.6067 487.632 68.4915C486.995 68.2635 486.452 67.2591 486.413 66.1767C486.395 65.6295 486.507 65.1087 486.698 64.6755C486.878 64.2351 487.161 63.9255 487.481 63.8667C487.8 63.7911 488.028 63.9807 488.103 64.1499C488.185 64.3167 488.147 64.4379 488.179 64.4475C488.197 64.4619 488.308 64.3455 488.258 64.0983C488.232 63.9783 488.161 63.8379 488.018 63.7227C487.872 63.6075 487.66 63.5487 487.437 63.5739C486.972 63.6099 486.557 64.0383 486.347 64.5135C486.11 64.9899 485.973 65.5767 485.995 66.1899C486.042 67.4007 486.67 68.5299 487.544 68.7747C487.969 68.8815 488.321 68.7519 488.503 68.6091C488.688 68.4591 488.719 68.3247 488.697 68.3139Z" fill="#DB96AF"/>
<path d="M516.121 43.6235C517.087 43.0715 514.111 39.9695 511.698 38.9231C508.052 37.3427 502.506 36.4211 499.182 37.4183C495.18 38.6183 491.872 40.6655 489.912 44.3459C487.951 48.0263 487.261 52.2887 487.444 56.4515C487.5 57.7223 487.653 59.0447 488.351 60.1091C489.215 61.4231 490.842 62.2343 490.801 64.0679C490.786 64.7375 490.987 65.4107 491.455 65.8919C492.575 67.0439 493.907 65.9243 494.509 64.8131C495.796 62.4395 495.898 59.6267 495.973 56.9291C496.025 55.0127 496.072 53.0543 495.5 51.2231C495.19 50.2259 494.701 49.2875 494.447 48.2747C494.192 47.2631 494.204 46.1087 494.826 45.2687C494.927 45.1319 495.095 44.9591 495.307 44.7683C496.99 43.2491 499.37 42.7655 501.52 43.4855C504.933 44.6291 510.754 46.3247 512.249 45.1523C514.399 43.4663 514.902 42.3815 514.902 42.3815L516.121 43.6235Z" fill="#312B35"/>
<path d="M499.483 36.5978C502.776 35.441 506.546 35.4398 509.669 36.9938C511.327 37.8182 512.834 39.1538 513.365 40.925C513.893 42.6962 513.168 44.897 511.463 45.6206L511.346 45.6974C508.79 46.5998 507.113 46.283 504.537 45.4394C502.37 44.729 500.431 43.433 498.259 42.7322C495.95 41.9882 493.417 41.9558 491.09 42.6386C493.352 39.9878 496.19 37.7534 499.483 36.5978Z" fill="#312B35"/>
<path d="M208.757 476.055L193.541 500.415C193.541 500.415 213.326 523.977 210.955 528.75L162.403 501.106L184.546 462.183L208.757 476.055Z" fill="#69839B"/>
<path d="M179.731 489.774C178.644 489.494 177.39 490.175 177.065 491.244C176.74 492.312 177.424 493.586 178.507 493.885C179.588 494.183 181.119 493.411 181.322 492.313C181.526 491.215 180.638 489.763 179.517 489.732" fill="#E1E1E1"/>
<g opacity="0.600006">
<path d="M162.403 501.106L164.79 497.269L210.448 525.209C210.448 525.209 212.072 527.375 210.956 528.75L162.403 501.106Z" fill="white"/>
</g>
<path d="M194.468 500.616C194.325 500.848 193.078 500.28 191.476 500.374C189.868 500.426 188.68 501.104 188.516 500.887C188.324 500.717 189.488 499.508 191.431 499.429C193.373 499.332 194.644 500.43 194.468 500.616Z" fill="#312B35"/>
<path d="M198.355 505.611C198.278 505.87 197.021 505.686 195.64 506.225C194.245 506.723 193.421 507.685 193.192 507.541C192.947 507.451 193.578 505.978 195.306 505.339C197.028 504.687 198.479 505.384 198.355 505.611Z" fill="#312B35"/>
<path d="M197.758 513.318C197.514 513.246 197.862 511.88 199.214 510.936C200.56 509.982 201.97 510.108 201.958 510.362C201.981 510.632 200.861 510.916 199.763 511.708C198.647 512.474 198.006 513.43 197.758 513.318Z" fill="#312B35"/>
<path d="M197.317 494.683C197.094 494.841 196.194 493.897 194.801 493.224C193.422 492.523 192.122 492.376 192.115 492.104C192.076 491.856 193.597 491.562 195.226 492.378C196.86 493.179 197.54 494.563 197.317 494.683Z" fill="#312B35"/>
<path d="M206.646 486.061L205.005 514.691C205.005 514.691 233.718 525.966 233.931 531.287L177.998 530.117L178.713 485.402L206.646 486.061Z" fill="#69839B"/>
<path d="M187.76 511.92C186.672 512.192 185.898 513.387 186.126 514.479C186.355 515.573 187.57 516.365 188.663 516.113C189.756 515.859 190.729 514.453 190.379 513.393C190.029 512.333 188.552 511.479 187.552 511.986" fill="#E1E1E1"/>
<g opacity="0.600006">
<path d="M177.997 530.117L178.247 525.612L231.783 528.418C231.783 528.418 234.251 529.547 233.931 531.287L177.997 530.117Z" fill="white"/>
</g>
<path d="M205.918 514.428C205.903 514.7 204.535 514.795 203.173 515.64C201.788 516.45 201.07 517.611 200.821 517.498C200.57 517.441 201.013 515.824 202.679 514.831C204.337 513.822 205.982 514.18 205.918 514.428Z" fill="#312B35"/>
<path d="M211.734 516.964C211.791 517.229 210.598 517.666 209.646 518.795C208.661 519.896 208.4 521.134 208.128 521.117C207.871 521.153 207.716 519.558 208.926 518.177C210.124 516.785 211.734 516.704 211.734 516.964Z" fill="#312B35"/>
<path d="M214.918 524.016C214.669 524.069 214.316 522.703 215.05 521.232C215.773 519.752 217.072 519.192 217.183 519.421C217.333 519.648 216.487 520.429 215.904 521.647C215.293 522.851 215.19 523.994 214.918 524.016Z" fill="#312B35"/>
<path d="M205.564 507.862C205.444 508.106 204.199 507.706 202.653 507.779C201.105 507.818 199.894 508.309 199.756 508.073C199.602 507.874 200.796 506.892 202.618 506.833C204.439 506.76 205.703 507.65 205.564 507.862Z" fill="#312B35"/>
<path d="M254.681 303.307C254.681 303.307 250.926 394.018 248.613 402.45C246.3 410.884 198.945 497.128 198.945 497.128L170.374 483.175L208.266 392.118V304.237L254.681 303.307Z" fill="#312B35"/>
<path d="M181.423 303.307C181.423 303.307 178.426 325.384 179.968 327.684C181.51 329.985 184.208 337.269 184.208 337.269L181.89 408.189L174.957 512.461H208.266L222.557 420.511C222.557 420.511 227.569 412.078 229.496 404.794C231.424 397.51 242.802 325.055 242.802 325.055V297.126L181.423 303.307Z" fill="#312B35"/>
<path d="M246.48 307.184C246.492 307.185 246.474 307.367 246.428 307.723C246.374 308.109 246.301 308.629 246.207 309.293C245.992 310.709 245.686 312.733 245.292 315.322C244.462 320.59 243.271 328.15 241.802 337.477C240.3 346.838 238.516 357.965 236.534 370.319C235.524 376.499 234.525 382.989 233.361 389.709C232.175 396.417 230.698 403.369 228.173 410.186C225.665 416.993 222.081 423.19 220.876 429.898C219.442 436.54 218.442 443.041 217.467 449.219C215.582 461.594 214.066 472.766 212.773 482.145C211.486 491.525 210.441 499.117 209.651 504.355C209.254 506.972 208.936 509.003 208.683 510.375C208.559 511.035 208.461 511.552 208.389 511.935C208.319 512.285 208.277 512.463 208.266 512.461C208.254 512.458 208.272 512.277 208.319 511.922C208.374 511.537 208.449 511.017 208.546 510.353C208.742 508.936 209.024 506.908 209.384 504.315C210.075 499.029 211.065 491.443 212.288 482.08C213.518 472.693 214.983 461.511 216.836 449.123C217.795 442.935 218.781 436.433 220.213 429.752C221.437 422.936 225.049 416.678 227.524 409.947C230.026 403.193 231.5 396.283 232.694 389.591C233.863 382.889 234.878 376.393 235.905 370.219C237.941 357.873 239.774 346.754 241.318 337.4C242.879 328.087 244.145 320.54 245.026 315.28C245.475 312.699 245.825 310.682 246.069 309.271C246.191 308.611 246.287 308.095 246.358 307.711C246.427 307.36 246.468 307.181 246.48 307.184Z" fill="#69839B"/>
<path d="M178.681 456.456C178.729 456.459 178.725 457.24 178.677 458.651C178.631 460.062 178.531 462.102 178.388 464.621C178.102 469.66 177.6 476.613 177.014 484.287C176.429 491.964 175.924 498.912 175.595 503.945C175.435 506.371 175.301 508.38 175.2 509.904C175.099 511.312 175.022 512.089 174.974 512.088C174.927 512.086 174.912 511.306 174.929 509.893C174.943 508.481 175.004 506.44 175.107 503.919C175.311 498.876 175.739 491.914 176.324 484.235C176.935 476.62 177.487 469.729 177.9 464.586C178.106 462.163 178.279 460.158 178.408 458.634C178.538 457.23 178.633 456.454 178.681 456.456Z" fill="#69839B"/>
<path d="M254.33 114.121C252.169 111.808 249.553 109.624 248.8 106.555C248.107 103.732 249.11 100.501 247.615 98.0069C245.776 94.9373 241.179 94.6781 238.967 91.8641C237.895 90.5009 237.523 88.6961 236.464 87.3245C234.66 84.9869 231.299 84.4565 228.369 84.8621C225.438 85.2677 222.64 86.4089 219.696 86.7065C215.659 87.1157 211.442 85.9301 207.592 87.2105C203.344 88.6241 200.841 92.4893 198.168 96.2393L194.665 100.601C193.937 101.351 193.162 102.045 192.305 102.638C190.806 103.671 189.077 104.408 187.802 105.706C185.072 108.485 185.473 113.655 188.597 115.983C185.513 117.073 183.379 120.387 183.671 123.637C183.832 125.425 184.631 127.083 185.223 128.777C185.814 130.473 186.199 132.369 185.535 134.037C184.87 135.705 182.795 136.9 181.2 136.069C181.828 138.373 183.559 140.351 185.764 141.284C184.947 142.177 183.778 142.739 182.569 142.821C186.098 150.404 195.156 154.159 203.536 153.932C211.915 153.704 219.829 150.277 227.5 146.906L249.866 140.326C251.831 139.81 252.577 137.381 252.483 135.357C252.387 133.331 251.803 131.24 252.467 129.323C253.376 126.695 256.356 125.221 257.313 122.609C258.4 119.641 256.491 116.432 254.33 114.121Z" fill="#312B35"/>
<path d="M201.636 136.381C199.835 131.352 198.054 126.283 197.148 121.02C196.242 115.757 196.244 110.242 197.965 105.185C198.226 104.418 200.489 99.2606 201.3 99.317C201.879 99.3566 200.53 104.147 200.837 104.638C203.759 109.33 204.681 115.044 204.395 120.559C204.108 126.075 203.103 131.057 201.636 136.381Z" fill="#312B35"/>
<path d="M221.486 90.6232L220.243 90.5932C206.819 91.0408 199.702 102.66 200.523 116.03L200.855 162.129C200.915 170.469 207.512 177.303 215.867 177.68C224.636 178.074 232.033 171.227 232.292 162.477C232.364 160.054 232.422 158.36 232.431 158.36C232.431 158.36 245.367 156.681 245.846 143.837C246.078 137.633 245.513 124.817 244.865 113.225C244.172 100.768 233.995 90.934 221.486 90.6232Z" fill="#FFBF9D"/>
<path d="M232.431 158.359C232.431 158.359 224.298 158.633 215.78 152.998C215.78 152.998 219.433 162.496 232.316 161.658L232.431 158.359Z" fill="#DB96AF"/>
<path d="M241.662 123.733C241.673 124.702 240.857 125.51 239.842 125.54C238.829 125.569 237.996 124.808 237.986 123.838C237.977 122.869 238.791 122.059 239.805 122.03C240.82 122.001 241.652 122.763 241.662 123.733Z" fill="#312B35"/>
<path d="M241.98 118.49C241.745 118.723 240.377 117.66 238.397 117.616C236.42 117.544 234.941 118.524 234.734 118.277C234.63 118.166 234.873 117.74 235.518 117.296C236.151 116.856 237.225 116.437 238.458 116.473C239.692 116.51 240.717 116.988 241.301 117.467C241.899 117.948 242.094 118.386 241.98 118.49Z" fill="#312B35"/>
<path d="M222.622 123.733C222.633 124.702 221.817 125.51 220.802 125.54C219.789 125.569 218.957 124.808 218.947 123.838C218.937 122.869 219.751 122.059 220.765 122.03C221.781 122.001 222.612 122.763 222.622 123.733Z" fill="#312B35"/>
<path d="M222.566 118.807C222.332 119.041 220.961 117.978 218.984 117.934C217.007 117.862 215.528 118.842 215.319 118.595C215.216 118.485 215.458 118.059 216.104 117.616C216.738 117.173 217.812 116.755 219.045 116.79C220.278 116.829 221.304 117.307 221.888 117.784C222.484 118.265 222.681 118.704 222.566 118.807Z" fill="#312B35"/>
<path d="M229.29 134.155C229.283 134.043 230.519 133.861 232.52 133.656C233.027 133.617 233.508 133.529 233.601 133.186C233.73 132.826 233.532 132.276 233.302 131.683C232.856 130.452 232.391 129.161 231.902 127.807C229.962 122.29 228.572 117.759 228.795 117.682C229.018 117.606 230.772 122.017 232.712 127.534C233.177 128.895 233.624 130.192 234.047 131.431C234.224 132.01 234.537 132.667 234.261 133.417C234.115 133.791 233.737 134.056 233.411 134.134C233.084 134.225 232.8 134.223 232.549 134.231C230.54 134.289 229.294 134.267 229.29 134.155Z" fill="#312B35"/>
<path d="M223.429 135.376C223.752 135.365 223.703 137.508 225.503 139.076C227.301 140.648 229.598 140.463 229.608 140.763C229.635 140.898 229.087 141.167 228.119 141.17C227.171 141.178 225.793 140.84 224.69 139.881C223.592 138.921 223.14 137.664 223.089 136.782C223.029 135.885 223.282 135.36 223.429 135.376Z" fill="#312B35"/>
<path d="M222.657 110.793C222.448 111.325 220.478 111.021 218.149 111.243C215.814 111.418 213.924 112.049 213.629 111.561C213.496 111.327 213.835 110.83 214.606 110.329C215.369 109.828 216.579 109.365 217.977 109.245C219.376 109.127 220.647 109.379 221.484 109.744C222.329 110.108 222.747 110.541 222.657 110.793Z" fill="#312B35"/>
<path d="M241.325 111.907C240.965 112.346 239.614 111.847 237.974 111.784C236.337 111.664 234.938 112.011 234.63 111.534C234.495 111.303 234.724 110.858 235.342 110.45C235.95 110.041 236.96 109.72 238.086 109.782C239.212 109.846 240.179 110.277 240.737 110.75C241.306 111.225 241.484 111.692 241.325 111.907Z" fill="#312B35"/>
<path d="M201.338 125.568C201.12 125.469 192.551 122.738 192.612 131.529C192.675 140.319 201.511 138.443 201.525 138.191C201.539 137.939 201.338 125.568 201.338 125.568Z" fill="#FFBF9D"/>
<path d="M198.809 134.88C198.77 134.852 198.656 134.988 198.397 135.108C198.145 135.226 197.711 135.308 197.25 135.14C196.316 134.806 195.521 133.337 195.467 131.753C195.44 130.954 195.603 130.191 195.881 129.557C196.146 128.913 196.561 128.46 197.029 128.374C197.495 128.263 197.829 128.541 197.938 128.787C198.057 129.031 198.003 129.208 198.05 129.223C198.075 129.245 198.238 129.075 198.164 128.712C198.127 128.537 198.022 128.331 197.813 128.163C197.601 127.993 197.29 127.908 196.963 127.945C196.283 127.997 195.676 128.626 195.369 129.319C195.023 130.018 194.822 130.876 194.853 131.773C194.922 133.544 195.843 135.196 197.121 135.554C197.742 135.71 198.257 135.521 198.523 135.311C198.794 135.092 198.839 134.896 198.809 134.88Z" fill="#DB96AF"/>
<path d="M238.932 98.7547C240.345 97.9471 235.991 93.4075 232.461 91.8775C227.125 89.5639 219.011 88.2163 214.147 89.6755C208.292 91.4311 203.454 94.4263 200.585 99.8119C197.717 105.196 196.706 111.434 196.975 117.525C197.057 119.384 197.28 121.32 198.302 122.876C199.565 124.8 201.945 125.986 201.885 128.668C201.862 129.649 202.158 130.633 202.843 131.337C204.483 133.023 206.429 131.384 207.311 129.758C209.194 126.284 209.345 122.17 209.452 118.224C209.529 115.419 209.597 112.554 208.762 109.874C208.308 108.415 207.593 107.042 207.22 105.56C206.847 104.079 206.865 102.392 207.775 101.162C207.922 100.963 208.167 100.71 208.479 100.429C210.94 98.2075 214.424 97.4995 217.571 98.5543C222.562 100.226 231.079 102.708 233.267 100.993C236.414 98.5255 237.15 96.9379 237.15 96.9379L238.932 98.7547Z" fill="#312B35"/>
<path d="M214.589 88.4752C219.407 86.7832 224.922 86.7808 229.493 89.0536C231.919 90.2608 234.124 92.2156 234.9 94.8064C235.674 97.3984 234.611 100.618 232.117 101.676L231.946 101.788C228.206 103.11 225.753 102.646 221.984 101.411C218.812 100.372 215.974 98.4748 212.798 97.4512C209.42 96.3628 205.714 96.3136 202.309 97.3132C205.619 93.4348 209.772 90.1672 214.589 88.4752Z" fill="#312B35"/>
<path d="M182.595 234.683C182.075 245.509 179.03 307.108 179.03 307.108C179.03 307.108 199.468 314.536 223.081 311.653C246.695 308.768 256.705 313.257 256.705 313.257L249.742 205.741L232.06 164.74C232.06 164.74 207.386 161.402 200.855 162.129C200.855 162.129 195.486 165.571 194.195 167.033C187.567 174.535 183.06 190.537 182.809 203.878L182.595 234.683Z" fill="#DB96AF"/>
<g opacity="0.300003">
<path d="M219.957 209.194C213.423 203.627 204.568 206.069 200.101 198.757C205.016 211.129 211.09 223.046 218.218 234.305C218.675 235.025 219.184 235.786 219.978 236.106C221.71 236.807 223.364 235.108 224.939 234.106C227.86 232.247 231.774 232.733 234.889 234.247C238.006 235.762 240.581 238.159 243.376 240.202C246.17 242.244 249.42 244.001 252.887 243.893C243.184 231.212 232.125 219.56 219.957 209.194Z" fill="#312B35"/>
</g>
<path d="M246.403 202.69L262.998 217.851L280.942 177.248L296.108 182.303C296.108 182.303 279.814 242.35 275.585 246.94C269.807 253.208 260.278 252.359 255.297 247.957C249.576 242.899 228.193 221.917 228.193 221.917L246.403 202.69Z" fill="#FFBF9D"/>
<path d="M262.991 227.777C262.824 227.793 262.48 225.508 262.517 222.667C262.548 219.826 262.948 217.551 263.114 217.571C263.293 217.59 263.176 219.869 263.146 222.676C263.108 225.48 263.17 227.761 262.991 227.777Z" fill="#DB96AF"/>
<path d="M279.988 181.245L283.149 160.962C283.255 160.281 283.615 159.666 284.157 159.237L285.509 158.168C285.509 158.168 285.344 157.897 287.757 154.76C290.172 151.622 293.609 151.664 294.466 153.458C294.466 153.458 298.973 151.136 299.956 154.356C300.531 156.243 298.797 158.845 298.797 158.845C298.797 158.845 302.971 160.169 301.332 165.291C301.332 165.291 303.582 165.24 301.5 170.843C300.614 173.226 294.372 185.696 294.372 185.696L279.988 181.245Z" fill="#FFBF9D"/>
<path d="M268.425 165.663C268.705 166.547 269.692 166.997 270.55 166.633L291.511 157.703L294.274 153.577L269.331 163.741C268.572 164.05 268.179 164.885 268.425 165.663Z" fill="#312B35"/>
<path d="M299.72 157.198C299.85 157.277 299.174 158.861 298.087 160.724C297.008 162.611 295.615 163.795 295.496 163.648C295.391 163.525 296.494 162.244 297.548 160.404C298.613 158.579 299.554 157.098 299.72 157.198Z" fill="#DB96AF"/>
<path d="M288.746 161.981C288.601 161.885 289.789 159.881 291.396 157.506C293.004 155.13 294.425 153.282 294.568 153.379C294.712 153.475 293.526 155.478 291.917 157.854C290.31 160.23 288.89 162.078 288.746 161.981Z" fill="#DB96AF"/>
<path d="M299.73 167.603C299.604 167.477 300.027 166.871 300.477 166.109C300.935 165.35 301.266 164.691 301.438 164.74C301.601 164.782 301.521 165.588 301.017 166.428C300.519 167.268 299.844 167.727 299.73 167.603Z" fill="#DB96AF"/>
<path d="M248.467 200.69L221.498 228.926C211.651 219.58 202.693 204.668 198.088 192.235C196.615 188.257 196.068 182.24 197.204 178.147C198.348 174.019 199.601 172.841 202.488 170.428C202.488 170.428 211.184 163.515 223.276 174.189C230.624 180.674 248.467 200.69 248.467 200.69Z" fill="#DB96AF"/>
<path d="M248.467 200.69C248.455 200.685 248.35 200.591 248.156 200.391C247.939 200.162 247.654 199.858 247.292 199.474C246.515 198.634 245.412 197.442 244.004 195.921C241.146 192.838 237.025 188.361 231.813 182.945C229.197 180.252 226.334 177.284 223.055 174.344C221.36 172.959 219.575 171.525 217.471 170.51C215.403 169.457 213.086 168.687 210.64 168.558C208.21 168.41 205.653 168.909 203.441 170.166C201.404 171.59 199.277 173.397 198.313 175.844C197.806 177.06 197.417 178.366 197.186 179.685C196.958 181.013 196.894 182.384 196.917 183.759C196.982 186.508 197.397 189.318 198.331 191.976C201.151 199.539 204.835 206.488 208.802 212.694C212.79 218.891 217.123 224.362 221.682 228.735L221.306 228.743C229.422 220.325 236.172 213.326 240.92 208.401C243.286 205.966 245.152 204.046 246.455 202.706C247.083 202.068 247.572 201.569 247.932 201.204C248.271 200.865 248.467 200.69 248.467 200.69C248.481 200.69 248.327 200.866 248.014 201.207C247.675 201.574 247.21 202.076 246.617 202.716C245.346 204.07 243.528 206.009 241.222 208.466C236.493 213.464 229.773 220.566 221.692 229.108L221.508 229.301L221.314 229.118C216.694 224.728 212.317 219.239 208.294 213.017C204.292 206.784 200.582 199.815 197.74 192.188C196.775 189.44 196.358 186.585 196.292 183.771C196.27 182.363 196.335 180.959 196.574 179.582C196.82 178.198 197.213 176.878 197.746 175.605C198.273 174.329 199.073 173.153 200.039 172.202C200.516 171.719 201.02 171.28 201.522 170.849L202.28 170.211C202.569 169.986 202.847 169.822 203.141 169.649C205.477 168.33 208.141 167.823 210.673 167.984C213.217 168.125 215.608 168.933 217.723 170.02C219.878 171.072 221.686 172.54 223.4 173.955C226.692 176.939 229.534 179.924 232.136 182.64C237.311 188.1 241.381 192.624 244.185 195.758C245.556 197.313 246.63 198.532 247.387 199.39C247.729 199.792 248 200.109 248.205 200.349C248.391 200.571 248.479 200.694 248.467 200.69Z" fill="#312B35"/>
</g>
<defs>
<filter id="filter0_d_82_232" x="0" y="0.618408" width="853.906" height="540.189" filterUnits="userSpaceOnUse" color-interpolation-filters="sRGB">
<feFlood flood-opacity="0" result="BackgroundImageFix"/>
<feColorMatrix in="SourceAlpha" type="matrix" values="0 0 0 0 0 0 0 0 0 0 0 0 0 0 0 0 0 0 127 0" result="hardAlpha"/>
<feOffset dy="4"/>
<feGaussianBlur stdDeviation="2"/>
<feComposite in2="hardAlpha" operator="out"/>
<feColorMatrix type="matrix" values="0 0 0 0 0 0 0 0 0 0 0 0 0 0 0 0 0 0 0.25 0"/>
<feBlend mode="normal" in2="BackgroundImageFix" result="effect1_dropShadow_82_232"/>
<feBlend mode="normal" in="SourceGraphic" in2="effect1_dropShadow_82_232" result="shape"/>
</filter>
</defs>
</svg>
