<svg width="105" height="46" viewBox="0 0 105 46" fill="none" xmlns="http://www.w3.org/2000/svg">
<path d="M74.631 29.9999C64.131 41.1666 36.431 56.7999 9.63101 29.9999C-3.73608 16.6328 0.00415897 14.9001 10.1311 18.1756M49.131 36.4999C41.0233 32.0574 30.958 26.8784 22.1311 22.9383M10.1311 18.1756C13.5429 19.2792 17.6795 20.9512 22.1311 22.9383M10.1311 18.1756L22.1311 22.9383" stroke="#312B35" stroke-width="0.8"/>
<path d="M11.25 6.5H16.2C18.3 6.5 20.0083 7.24167 21.325 8.725C22.6417 10.2083 23.3 12.3917 23.3 15.275C23.3 18.125 22.6417 20.2917 21.325 21.775C20.0083 23.2583 18.3 24 16.2 24H11.25V6.5ZM16.2 22.475C17.7167 22.475 18.975 21.8917 19.975 20.725C20.9917 19.5417 21.5 17.725 21.5 15.275C21.5 12.8083 20.9917 10.9833 19.975 9.8C18.975 8.61667 17.7167 8.025 16.2 8.025H12.85V22.475H16.2ZM27.5816 14.375C28.515 12.925 29.99 12.2 32.0066 12.2V13.825C31.2066 13.825 30.49 13.9417 29.8566 14.175C29.2233 14.4083 28.74 14.6917 28.4066 15.025C28.0733 15.3583 27.7983 15.6917 27.5816 16.025C27.365 16.3583 27.2233 16.6417 27.1566 16.875L27.0816 17.225V24H25.5566V12.35H26.7816C26.9816 13.6 27.0816 14.5417 27.0816 15.175V15.425C27.1983 15.0417 27.365 14.6917 27.5816 14.375ZM38.0273 22.95C38.6107 22.95 39.169 22.9 39.7023 22.8C40.2357 22.7 40.619 22.6 40.8523 22.5L41.2023 22.375L41.5273 23.25C40.5107 23.9333 39.2523 24.275 37.7523 24.275C36.1857 24.275 34.919 23.75 33.9523 22.7C33.0023 21.6333 32.5273 20.1667 32.5273 18.3C32.5273 16.4167 33.0273 14.9083 34.0273 13.775C35.044 12.625 36.2357 12.05 37.6023 12.05C38.3857 12.05 39.0607 12.2333 39.6273 12.6C40.194 12.95 40.619 13.4417 40.9023 14.075C41.2023 14.6917 41.4107 15.3417 41.5273 16.025C41.6607 16.6917 41.7273 17.4167 41.7273 18.2L34.0523 18.325C34.0523 19.8417 34.4523 20.9917 35.2523 21.775C36.0523 22.5583 36.9773 22.95 38.0273 22.95ZM37.6023 13.3C36.769 13.3 36.0107 13.6667 35.3273 14.4C34.6607 15.1333 34.2523 16.1167 34.1023 17.35C35.4523 17.1333 37.4857 16.9917 40.2023 16.925C40.169 15.9083 39.9273 15.05 39.4773 14.35C39.0273 13.65 38.4023 13.3 37.6023 13.3ZM47.6824 12.2C49.0824 12.2 50.1158 12.5667 50.7824 13.3C51.4658 14.0167 51.8074 15.2917 51.8074 17.125V24H50.5824C50.4824 23.4 50.4074 22.8083 50.3574 22.225C49.1241 23.4917 47.7824 24.125 46.3324 24.125C45.2824 24.125 44.4408 23.8583 43.8074 23.325C43.1741 22.7917 42.8574 22.0667 42.8574 21.15C42.8574 20.3833 43.0574 19.7333 43.4574 19.2C43.8741 18.6667 44.6491 18.2167 45.7824 17.85C46.9158 17.4833 48.4158 17.2917 50.2824 17.275V17.125C50.2824 15.7083 50.0658 14.75 49.6324 14.25C49.1991 13.7333 48.4241 13.475 47.3074 13.475C46.8408 13.475 46.3241 13.5333 45.7574 13.65C45.1908 13.75 44.7408 13.8583 44.4074 13.975L43.9074 14.15L43.5824 13.225C44.8658 12.5417 46.2324 12.2 47.6824 12.2ZM46.4324 22.85C47.7991 22.85 49.0824 22.125 50.2824 20.675V18.5C48.3324 18.5167 46.8574 18.7167 45.8574 19.1C44.8741 19.4833 44.3824 20.1333 44.3824 21.05C44.3824 21.6667 44.5741 22.125 44.9574 22.425C45.3408 22.7083 45.8324 22.85 46.4324 22.85ZM65.8414 12.05C67.1747 12.05 68.0831 12.4917 68.5664 13.375C69.0497 14.2417 69.2914 15.55 69.2914 17.3V24H67.7664V17.3C67.7664 16.05 67.6247 15.075 67.3414 14.375C67.0581 13.675 66.5247 13.325 65.7414 13.325C65.1247 13.325 64.5831 13.5167 64.1164 13.9C63.6664 14.2667 63.1497 14.85 62.5664 15.65V24H61.0414V16.825C61.0414 14.4917 60.3664 13.325 59.0164 13.325C58.3997 13.325 57.8581 13.5167 57.3914 13.9C56.9247 14.2833 56.4081 14.8667 55.8414 15.65V24H54.3164V12.35H55.5414C55.6414 12.9167 55.7164 13.4833 55.7664 14.05C56.6997 12.7167 57.8164 12.05 59.1164 12.05C60.7664 12.05 61.8081 12.8417 62.2414 14.425C63.2581 12.8417 64.4581 12.05 65.8414 12.05ZM78.7469 24V12.35H80.2719V24C80.2719 24.5333 80.2635 24.975 80.2469 25.325C80.2302 25.6917 80.1469 26.175 79.9969 26.775C79.8635 27.375 79.6719 27.8583 79.4219 28.225C79.1885 28.6083 78.8135 28.95 78.2969 29.25C77.7969 29.5667 77.1885 29.7417 76.4719 29.775L76.2969 28.825C77.1802 28.575 77.8052 28.1 78.1719 27.4C78.5552 26.7 78.7469 25.5667 78.7469 24ZM80.4219 9.525C80.4219 9.775 80.3302 9.98333 80.1469 10.15C79.9802 10.3167 79.7719 10.4 79.5219 10.4C79.2552 10.4 79.0302 10.3167 78.8469 10.15C78.6802 9.98333 78.5969 9.775 78.5969 9.525C78.5969 9.29167 78.6802 9.09167 78.8469 8.925C79.0302 8.74167 79.2552 8.65 79.5219 8.65C79.7719 8.65 79.9802 8.74167 80.1469 8.925C80.3302 9.09167 80.4219 9.29167 80.4219 9.525ZM87.6797 12.05C89.0964 12.05 90.313 12.5917 91.3297 13.675C92.3464 14.7583 92.8547 16.2583 92.8547 18.175C92.8547 20.075 92.338 21.5667 91.3047 22.65C90.2714 23.7333 89.038 24.275 87.6047 24.275C86.188 24.275 84.9714 23.7417 83.9547 22.675C82.938 21.5917 82.4297 20.0917 82.4297 18.175C82.4297 16.2583 82.9464 14.7583 83.9797 13.675C85.013 12.5917 86.2464 12.05 87.6797 12.05ZM87.6047 22.95C88.7047 22.95 89.588 22.55 90.2547 21.75C90.938 20.9333 91.2797 19.7417 91.2797 18.175C91.2797 16.625 90.938 15.4417 90.2547 14.625C89.5714 13.7917 88.713 13.375 87.6797 13.375C86.6797 13.375 85.813 13.7917 85.0797 14.625C84.363 15.4583 84.0047 16.6417 84.0047 18.175C84.0047 19.7417 84.338 20.9333 85.0047 21.75C85.6714 22.55 86.538 22.95 87.6047 22.95ZM99.1438 12.05C100.644 12.05 101.869 12.525 102.819 13.475C103.769 14.4083 104.244 15.8583 104.244 17.825C104.244 19.7417 103.752 21.3 102.769 22.5C101.802 23.6833 100.502 24.275 98.8688 24.275C98.1521 24.275 97.4604 24.1833 96.7938 24C96.1271 23.8 95.6354 23.6 95.3188 23.4L94.8438 23.125V6.5H96.3688V12.85C97.0688 12.3167 97.9938 12.05 99.1438 12.05ZM98.5688 22.925C99.8521 22.925 100.86 22.4833 101.594 21.6C102.344 20.7 102.719 19.4417 102.719 17.825C102.719 16.3417 102.369 15.225 101.669 14.475C100.985 13.725 100.052 13.35 98.8688 13.35C97.8854 13.35 97.0521 13.675 96.3688 14.325V22.5C97.0688 22.7833 97.8021 22.925 98.5688 22.925Z" fill="#312B35"/>
<path d="M88.6931 0.197294C88.6931 0.467961 88.5958 0.700628 88.4011 0.895294L81.7551 7.56229L81.1311 6.938L87.7761 0.292C87.9708 0.0973331 88.2071 0 88.4851 0H88.6931V0.197294Z" fill="#312B35"/>
<path d="M78.0483 10.5515C78.1005 10.6299 78.1583 10.7041 78.2212 10.7737C78.1228 10.7687 78.0281 10.7621 77.9387 10.7542C77.977 10.6884 78.0135 10.6203 78.0483 10.5515ZM78.5311 9.5C78.5311 9.40992 78.5418 9.32287 78.5619 9.23986C78.5743 9.19967 78.586 9.16091 78.5969 9.12388C78.7508 8.70104 79.1563 8.4 79.6311 8.4C80.2386 8.4 80.7311 8.89249 80.7311 9.5C80.7311 9.80458 80.6078 10.0796 80.4075 10.2792C80.2081 10.4779 79.9342 10.6 79.6311 10.6C79.0236 10.6 78.5311 10.1075 78.5311 9.5Z" fill="white" stroke="#312B35" stroke-width="0.8"/>
</svg>
