<svg width="882" height="600" viewBox="0 0 882 600" fill="none" xmlns="http://www.w3.org/2000/svg">
<path d="M863.395 382.968L857.244 372.191C859.965 367.799 861.538 362.629 861.538 357.094C861.538 341.172 848.559 328.266 832.55 328.266C816.54 328.266 803.562 341.172 803.562 357.094C803.562 373.014 816.54 385.921 832.55 385.921C839.235 385.921 845.386 383.665 850.29 379.885L850.281 379.897L863.395 382.968Z" fill="#ECECEC"/>
<path d="M229.023 62.7175C233.154 60.9943 236.091 56.7595 236.115 51.7675C236.141 45.2311 231.166 39.9079 225.001 39.8791C218.839 39.8503 213.819 45.1279 213.791 51.6655C213.771 56.7031 216.73 60.9895 220.904 62.7175C203.728 65.2915 204.507 83.8555 204.507 83.8555L245.124 84.0427C245.124 84.0427 246.049 65.2747 229.023 62.7175Z" fill="#ECECEC"/>
<path d="M101.719 454.129C96.2773 450.731 90.0436 448.597 83.6519 447.944C80.7004 447.643 77.4738 447.728 75.1051 449.507C74.6031 449.885 74.1132 450.443 74.2254 451.058C74.3087 451.512 74.6936 451.842 75.0616 452.12C82.4127 457.698 93.5321 458.402 101.719 454.129Z" fill="#E1E1E1"/>
<path d="M101.256 453.62C97.165 450.445 93.0515 447.25 89.586 443.41C86.1216 439.57 83.3053 435.01 82.2699 429.954C81.9562 428.42 81.8585 426.668 82.8491 425.452C92.1501 432.677 99.4565 442.02 101.256 453.62Z" fill="#E1E1E1"/>
<path d="M101.623 454.059C100.922 448.998 100.671 443.796 101.839 438.823C103.007 433.848 105.728 429.087 109.999 426.25C111.608 429.985 110.917 434.29 109.785 438.195C108.034 444.229 105.29 449.977 101.693 455.137" fill="#E1E1E1"/>
<path d="M110.742 470.308C105.207 470.978 100.385 473.879 96.252 477.6C92.1192 481.323 89.1809 486.338 87.9646 491.75C93.3946 491.416 97.9992 487.608 101.34 483.338C104.682 479.069 106.996 474.384 110.666 470.391" fill="#E1E1E1"/>
<path d="M112.722 472.907C108.263 461.985 109.879 448.825 116.847 439.289C120.002 450.445 118.844 463.047 112.722 472.907Z" fill="#E1E1E1"/>
<path d="M124.77 487.174C119.747 486.863 114.639 488.053 110.277 490.55C105.915 493.048 102.315 496.842 100.061 501.318C99.7562 501.926 99.4859 502.699 99.8961 503.245C100.252 503.718 100.94 503.762 101.534 503.724C106.404 503.41 110.719 500.497 114.281 497.179C117.842 493.861 120.944 490.028 124.879 487.159" fill="#E1E1E1"/>
<path d="M124.386 486.396C121.795 478.15 121.633 469.166 123.927 460.833C124.832 457.542 126.352 454.077 129.412 452.535C129.673 452.403 129.977 452.285 130.251 452.388C130.512 452.486 130.661 452.751 130.782 452.999C131.87 455.261 132.188 457.828 132.076 460.334C131.963 462.838 131.441 465.305 130.92 467.758C129.957 472.295 129.443 477.172 126.941 481.085C126.346 482.015 125.824 483.018 125.35 484.013C124.875 485.008 124.872 485.358 124.437 486.149" fill="#E1E1E1"/>
<path d="M156.278 491.122C153.915 482.184 156.423 471.348 162.086 464.021C162.503 463.482 163.057 462.902 163.738 462.966C164.78 463.062 165.052 464.444 165.005 465.485C164.596 474.618 161.532 483.619 156.278 491.122Z" fill="#E1E1E1"/>
<path d="M159.153 493.076C170.072 495.902 182.6 493.155 191.681 486.498C186.3 483.785 179.955 483.009 174.072 484.349C168.19 485.687 162.814 488.306 159.153 493.076Z" fill="#E1E1E1"/>
<path d="M161.578 487.125C167.693 477.21 179.418 470.738 191.1 470.149C189.755 474.873 185.85 478.547 181.444 480.765C177.039 482.984 172.12 483.95 167.273 484.887C165.387 485.251 162.8 485.651 161.578 487.125Z" fill="#E1E1E1"/>
<path d="M156.885 458.247C158.542 452.605 160.206 446.914 160.661 441.053C161.116 435.193 160.276 429.075 157.217 424.046C151.506 435.038 150.927 447.881 156.714 458.836" fill="#E1E1E1"/>
<path d="M176.118 448.58C182.799 436.506 196.429 426.86 210.22 425.509C204.899 438.682 190.39 448.862 176.118 448.58Z" fill="#E1E1E1"/>
<path d="M171.915 450.946C181.879 452.456 190.366 458.783 199.677 462.62C201.668 463.439 203.816 464.093 205.953 463.815C208.09 463.535 210.199 462.111 210.678 460.021C211.075 458.285 210.281 456.443 209.029 455.171C207.777 453.901 206.123 453.106 204.47 452.421C194.329 448.222 183.455 448.119 172.773 450.665" fill="#E1E1E1"/>
<path d="M166.15 457.895C168.405 458.537 169.176 459.699 170.962 461.212C177.022 466.345 184.29 470.057 192.015 471.967C192.818 472.166 193.874 472.244 194.272 471.521C194.62 470.89 194.18 470.126 193.727 469.564C190.491 465.537 185.875 462.782 181.016 460.983C176.158 459.183 171.949 457.016 166.15 457.48" fill="#E1E1E1"/>
<path d="M159.644 415.925C167.746 423.445 179.157 427.305 190.188 426.259C190.69 426.212 191.238 426.133 191.58 425.763C192.348 424.932 191.425 423.648 190.53 422.953C181.55 415.991 170.672 413.103 159.644 415.925Z" fill="#E1E1E1"/>
<path d="M167.358 413.117C178.067 405.133 192.752 402.724 205.472 406.862C200.673 411.568 194.013 414.098 187.31 414.792C180.607 415.487 173.894 414.748 167.358 413.117Z" fill="#E1E1E1"/>
<path d="M164.292 393.831C163.41 384.916 163.982 377.881 163.361 368.924C163.311 368.209 163.156 367.348 162.482 367.09C161.546 366.732 160.764 367.876 160.457 368.828C157.788 377.084 159.247 386.552 164.279 393.634" fill="#E1E1E1"/>
<path d="M163.647 394.816C169.723 391.08 174.28 386.2 178.495 380.465C181.427 376.474 183.9 371.693 183.234 366.794C179.115 366.713 175.202 368.972 172.523 372.085C169.844 375.196 168.252 379.087 167.063 383.009C165.874 386.932 165.042 390.961 163.647 394.816Z" fill="#E1E1E1"/>
<path d="M178.235 390.786C191.569 385.882 204.008 378.588 214.776 369.358C210.411 367.61 205.413 368.656 201.049 370.408C191.08 374.41 182.935 381.165 178.044 390.688" fill="#E1E1E1"/>
<path d="M167.749 399.693C174.494 400.425 181.347 400.904 188.039 399.791C194.618 398.698 200.833 396.105 206.981 393.531C207.49 393.319 208.044 393.063 208.268 392.56C208.51 392.014 208.251 391.349 207.807 390.949C207.361 390.548 206.769 390.357 206.191 390.195C199.508 388.336 192.296 389.207 185.721 391.412C179.146 393.617 173.754 396.236 167.749 399.693Z" fill="#E1E1E1"/>
<path d="M129.232 416.229C124.629 406.992 124.929 396.21 128.905 386.689C131.703 390.93 132.044 396.33 131.533 401.377C131.021 406.423 129.477 411.617 129.376 416.689" fill="#E1E1E1"/>
<path d="M110.847 407.008C99.3572 406.79 87.8625 411.659 80.0602 420.051C85.7955 420.946 91.7021 419.476 96.9185 416.942C102.135 414.41 106.771 410.855 111.365 407.327" fill="#E1E1E1"/>
<path d="M98.4864 402.897C92.8657 402.443 87.4562 401.752 82.0516 403.398C76.6469 405.046 71.7285 408.784 69.5264 413.962C74.7826 414.55 80.1137 413.24 84.9331 411.068C89.7525 408.896 94.1339 405.888 98.4864 402.897Z" fill="#E1E1E1"/>
<path d="M116.787 403.086C111.731 399.79 106.538 396.435 100.651 395.07C94.762 393.705 87.9395 394.713 83.8333 399.127C88.5996 401.908 94.3819 402.237 99.9085 402.232C105.435 402.228 112.209 402.165 117.418 404" fill="#E1E1E1"/>
<path d="M116.818 403.35C108.172 394.908 104.895 379.743 108.374 368.201C115.168 378.47 118.212 391.137 116.818 403.35Z" fill="#E1E1E1"/>
<path d="M140.589 379.431C142.22 375.661 143.366 371.706 144.83 367.868C146.292 364.032 148.109 360.256 150.874 357.208C153.637 354.163 157.46 351.895 161.581 351.691C159.001 363.307 151.243 373.687 140.801 379.491" fill="#E1E1E1"/>
<path d="M136.288 384.415C133.59 380.722 130.472 375.708 126.813 372.952C123.154 370.195 118.389 368.527 113.925 369.586C118.465 377.659 127.047 383.35 136.288 384.415Z" fill="#E1E1E1"/>
<path d="M137.148 379.738C135.38 375.268 133.598 370.754 132.884 366.004C132.168 361.255 132.603 356.18 135.045 352.038C139.791 360.958 141.32 370.534 137.391 379.839" fill="#E1E1E1"/>
<path d="M140.633 352.038C143.32 343.194 151.464 336.682 160.255 333.694C161.363 333.318 162.537 333.004 163.695 333.182C164.852 333.36 165.988 334.147 166.23 335.287C166.551 336.79 165.301 338.139 164.126 339.139C157.28 344.96 149.233 349.377 140.633 352.038Z" fill="#E1E1E1"/>
<path d="M140.73 344.805C141.073 339.103 141.43 333.319 143.294 327.916C145.159 322.513 148.753 317.445 153.981 315.081C154.872 320.839 152.316 326.569 149.236 331.525C146.155 336.48 142.44 341.158 140.59 346.685" fill="#E1E1E1"/>
<path d="M140.59 348.73C138.368 342.285 138.138 334.099 134.257 328.484C131.544 324.559 127.2 321.885 124.863 317.728C123.31 321.61 123.786 326.084 125.41 329.938C127.034 333.792 129.717 337.108 132.589 340.159C135.461 343.209 137.919 345.504 140.59 348.73Z" fill="#E1E1E1"/>
<path d="M140.633 538.53C140.459 538.531 140.31 495.536 140.299 442.512C140.287 389.469 140.417 346.484 140.59 346.484C140.762 346.484 140.912 389.469 140.924 442.512C140.935 495.536 140.806 538.53 140.633 538.53Z" fill="#E1E1E1"/>
<path d="M178.413 409.742C178.425 409.783 177.846 409.997 176.788 410.349C175.62 410.74 174.118 411.244 172.315 411.85C168.543 413.127 163.361 414.977 157.737 417.269C152.168 419.645 146.917 421.574 143.927 424.151C142.433 425.422 141.575 426.799 141.153 427.802C140.723 428.812 140.646 429.429 140.589 429.417C140.567 429.415 140.575 429.261 140.607 428.967C140.657 428.677 140.732 428.245 140.926 427.714C141.29 426.653 142.124 425.182 143.634 423.821C145.137 422.459 147.228 421.234 149.626 420.119C152.022 419.008 154.679 417.848 157.501 416.695C163.142 414.395 168.363 412.605 172.177 411.431C174.084 410.84 175.639 410.405 176.718 410.116C177.799 409.837 178.401 409.701 178.413 409.742Z" fill="#E1E1E1"/>
<path d="M190.797 379.491C190.811 379.508 190.655 379.673 190.342 379.975C189.973 380.318 189.516 380.747 188.954 381.271C187.666 382.435 185.912 384.019 183.775 385.949C179.304 389.909 173.239 395.279 166.538 401.213C159.809 407.169 153.994 412.862 149.963 417.147C147.946 419.287 146.357 421.06 145.272 422.297C144.767 422.871 144.352 423.341 144.021 423.719C143.73 424.042 143.569 424.205 143.552 424.191C143.535 424.178 143.663 423.988 143.923 423.64C144.185 423.295 144.565 422.78 145.086 422.141C146.115 420.854 147.657 419.032 149.639 416.848C153.597 412.475 159.379 406.717 166.122 400.75C172.873 394.808 179.018 389.468 183.482 385.619C185.675 383.751 187.473 382.216 188.793 381.089C189.385 380.601 189.869 380.201 190.259 379.881C190.598 379.61 190.783 379.475 190.797 379.491Z" fill="#E1E1E1"/>
<path d="M159.274 407.27C159.098 407.192 160.504 403.964 161.903 399.882C163.318 395.801 163.982 392.356 164.161 392.386C164.325 392.401 163.927 395.946 162.496 400.081C161.791 402.145 161.014 403.96 160.402 405.248C159.79 406.537 159.35 407.304 159.274 407.27Z" fill="#E1E1E1"/>
<path d="M140.672 433.293C140.637 433.318 140.27 432.891 139.635 432.096C138.932 431.199 138.041 430.064 136.978 428.709C134.747 425.84 131.663 421.881 128.206 417.549C124.746 413.216 121.568 409.328 119.266 406.518C118.181 405.18 117.271 404.061 116.552 403.174C115.917 402.38 115.583 401.928 115.616 401.9C115.648 401.871 116.045 402.271 116.737 403.018C117.429 403.765 118.409 404.863 119.605 406.234C121.995 408.975 125.232 412.824 128.695 417.163C132.157 421.501 135.19 425.508 137.332 428.445C138.405 429.914 139.258 431.113 139.831 431.953C140.405 432.792 140.707 433.268 140.672 433.293Z" fill="#E1E1E1"/>
<path d="M132.389 422.717C132.287 422.826 130.075 420.219 128.918 416.256C128.064 413.464 128.025 410.909 128.131 409.741L128.407 409.764C128.283 410.262 128.193 410.525 128.143 410.517C128.094 410.508 128.092 410.232 128.133 409.72L128.409 409.741C128.51 410.901 128.686 413.367 129.517 416.08C130.635 419.919 132.556 422.611 132.389 422.717Z" fill="#E1E1E1"/>
<path d="M121.694 409.339C121.614 409.424 120.902 408.532 119.271 407.938C117.652 407.315 115.216 407.179 112.543 407.407C109.868 407.602 107.479 408.075 105.769 408.494C104.059 408.914 103.014 409.246 102.982 409.16C102.953 409.085 103.948 408.607 105.651 408.07C107.35 407.539 109.773 406.985 112.496 406.786C115.199 406.555 117.763 406.762 119.436 407.531C121.132 408.278 121.749 409.323 121.694 409.339Z" fill="#E1E1E1"/>
<path d="M119.159 406.096C119.111 406.192 117.747 405.533 115.446 404.752C113.15 403.966 109.878 403.142 106.185 402.856C102.489 402.581 99.1294 402.903 96.739 403.333C94.3462 403.76 92.8982 404.205 92.8656 404.103C92.8523 404.062 93.2023 403.916 93.849 403.685C94.4946 403.447 95.4527 403.173 96.6533 402.903C99.0498 402.356 102.469 401.957 106.232 402.236C109.993 402.526 113.311 403.437 115.598 404.338C116.743 404.787 117.649 405.202 118.249 405.535C118.855 405.861 119.178 406.058 119.159 406.096Z" fill="#E1E1E1"/>
<path d="M140.59 392.385C140.422 392.427 139.209 388.24 137.882 383.034C136.554 377.824 135.613 373.57 135.781 373.528C135.947 373.486 137.16 377.672 138.488 382.88C139.815 388.087 140.757 392.343 140.59 392.385Z" fill="#E1E1E1"/>
<path d="M140.762 392.385C140.576 392.445 139.796 389.648 137.761 386.786C135.78 383.864 133.252 382.399 133.345 382.254C133.378 382.189 134.075 382.443 135.049 383.127C136.025 383.804 137.232 384.949 138.272 386.43C140.385 389.407 140.912 392.374 140.762 392.385Z" fill="#E1E1E1"/>
<path d="M140.633 515.611C140.566 515.621 140.438 514.578 139.952 512.752C139.47 510.926 138.563 508.337 137.063 505.308C134.075 499.237 128.64 491.54 121.733 483.833C118.311 479.944 114.992 476.275 112.174 472.763C109.35 469.256 107.03 465.914 105.337 462.958C103.638 460.003 102.532 457.469 101.886 455.682C101.569 454.784 101.336 454.085 101.208 453.6C101.071 453.119 101.01 452.864 101.03 452.857C101.086 452.839 101.401 453.841 102.113 455.593C102.825 457.345 103.983 459.833 105.718 462.736C107.449 465.641 109.788 468.935 112.622 472.404C115.45 475.88 118.776 479.528 122.205 483.424C129.129 491.152 134.552 498.946 137.46 505.117C138.923 508.195 139.775 510.835 140.187 512.693C140.387 513.625 140.522 514.35 140.569 514.849C140.632 515.346 140.655 515.608 140.633 515.611Z" fill="#E1E1E1"/>
<path d="M174.773 477.263C174.793 477.309 174.14 477.637 172.983 478.261C171.836 478.902 170.208 479.89 168.342 481.313C166.477 482.734 164.391 484.597 162.248 486.84C160.108 489.088 157.905 491.698 155.656 494.495C151.159 500.105 146.953 505.071 144.435 509.034C143.157 510.999 142.227 512.657 141.617 513.82C141.004 514.98 140.678 515.632 140.633 515.611C140.613 515.602 140.671 515.429 140.799 515.106C140.932 514.787 141.113 514.306 141.4 513.712C141.944 512.512 142.821 510.81 144.062 508.799C146.507 504.739 150.679 499.708 155.168 494.106C157.422 491.304 159.652 488.688 161.831 486.444C164.015 484.205 166.157 482.351 168.078 480.96C169.998 479.568 171.68 478.627 172.871 478.047C173.464 477.751 173.947 477.57 174.267 477.433C174.591 477.301 174.764 477.243 174.773 477.263Z" fill="#E1E1E1"/>
<path d="M175.441 489.703C175.448 489.793 173.996 489.969 171.659 490.249C169.33 490.549 166.087 490.936 162.69 492.006C159.305 493.103 156.491 494.773 154.658 496.198C152.807 497.62 151.935 498.797 151.849 498.729C151.819 498.707 152 498.385 152.409 497.863C152.813 497.335 153.476 496.631 154.38 495.857C156.184 494.311 159.024 492.54 162.498 491.415C165.978 490.32 169.265 490.002 171.616 489.813C173.974 489.642 175.434 489.623 175.441 489.703Z" fill="#E1E1E1"/>
<path d="M152.953 497.362C152.755 497.25 154.46 494.662 155.782 491.179C157.023 487.666 157.313 484.584 157.535 484.62C157.616 484.63 157.613 485.4 157.473 486.637C157.325 487.871 157.026 489.586 156.369 491.391C155.709 493.194 154.842 494.701 154.177 495.751C153.502 496.799 153.023 497.405 152.953 497.362Z" fill="#E1E1E1"/>
<path d="M185.83 443.863C185.837 443.884 185.628 443.993 185.225 444.184C184.754 444.395 184.168 444.661 183.446 444.988C182.668 445.319 181.723 445.739 180.659 446.298C179.591 446.846 178.343 447.41 177.046 448.187C176.386 448.559 175.698 448.948 174.983 449.353C174.267 449.762 173.559 450.247 172.806 450.716C171.286 451.634 169.762 452.765 168.135 453.918C164.953 456.319 161.607 459.163 158.385 462.445C155.195 465.761 152.451 469.184 150.146 472.43C149.042 474.086 147.958 475.638 147.088 477.182C146.643 477.947 146.18 478.667 145.792 479.392C145.41 480.116 145.043 480.815 144.691 481.483C143.956 482.798 143.431 484.057 142.917 485.138C142.392 486.215 142.001 487.169 141.694 487.954C141.392 488.681 141.144 489.274 140.948 489.746C140.77 490.156 140.668 490.367 140.647 490.36C140.627 490.352 140.689 490.128 140.829 489.706C140.998 489.22 141.208 488.611 141.468 487.866C141.74 487.066 142.1 486.094 142.596 484.999C143.082 483.9 143.582 482.622 144.296 481.285C144.639 480.607 144.996 479.899 145.369 479.164C145.746 478.428 146.203 477.696 146.642 476.922C147.499 475.356 148.574 473.783 149.672 472.104C151.968 468.817 154.72 465.355 157.936 462.014C161.183 458.705 164.568 455.851 167.792 453.457C169.441 452.308 170.985 451.187 172.53 450.282C173.293 449.819 174.013 449.34 174.738 448.939C175.465 448.544 176.164 448.164 176.834 447.8C178.153 447.046 179.42 446.506 180.508 445.985C181.593 445.453 182.556 445.063 183.351 444.764C184.092 444.482 184.696 444.251 185.178 444.067C185.598 443.915 185.822 443.843 185.83 443.863Z" fill="#E1E1E1"/>
<path d="M158.81 461.867C158.755 461.858 159.056 460.814 160.295 459.667C161.505 458.521 163.712 457.459 166.281 457.384C168.843 457.315 171.065 458.028 172.581 458.606C174.107 459.202 174.994 459.685 174.963 459.757C174.927 459.844 173.978 459.503 172.435 459.022C170.901 458.554 168.73 457.938 166.302 458.004C163.884 458.078 161.795 459.004 160.584 460C159.345 460.992 158.91 461.928 158.81 461.867Z" fill="#E1E1E1"/>
<path d="M154.771 466.011C154.6 465.916 156.124 463.693 156.47 460.511C156.87 457.333 155.901 454.823 156.09 454.77C156.158 454.741 156.498 455.326 156.793 456.372C157.087 457.413 157.284 458.928 157.092 460.584C156.895 462.237 156.355 463.667 155.826 464.613C155.298 465.563 154.832 466.054 154.771 466.011Z" fill="#E1E1E1"/>
<path d="M110.774 521.771C111.705 538.201 116.684 554.912 124.341 571.807H157.643C164.947 555.08 169.582 538.396 170.406 521.771H110.774Z" fill="#E1E1E1"/>
<path d="M165.008 548.359C165.008 548.531 154.044 548.67 140.521 548.67C126.995 548.67 116.032 548.531 116.032 548.359C116.032 548.187 126.995 548.049 140.521 548.049C154.044 548.049 165.008 548.187 165.008 548.359Z" fill="#FAFAFA"/>
<path d="M164.264 554.311C164.264 554.483 153.984 554.622 141.308 554.622C128.626 554.622 118.35 554.483 118.35 554.311C118.35 554.14 128.626 554 141.308 554C153.984 554 164.264 554.14 164.264 554.311Z" fill="#FAFAFA"/>
<path d="M124.879 532.559C125.051 532.559 125.191 535.975 125.191 540.186C125.191 544.4 125.051 547.816 124.879 547.816C124.706 547.816 124.566 544.4 124.566 540.186C124.566 535.975 124.706 532.559 124.879 532.559Z" fill="#FAFAFA"/>
<path d="M142.722 532.559C142.894 532.559 143.034 536.097 143.034 540.459C143.034 544.823 142.894 548.359 142.722 548.359C142.549 548.359 142.409 544.823 142.409 540.459C142.409 536.097 142.549 532.559 142.722 532.559Z" fill="#FAFAFA"/>
<path d="M159.472 532.425C159.645 532.425 159.785 536.034 159.785 540.482C159.785 544.933 159.645 548.54 159.472 548.54C159.3 548.54 159.16 544.933 159.16 540.482C159.16 536.034 159.3 532.425 159.472 532.425Z" fill="#FAFAFA"/>
<path d="M169.348 532.559C169.348 532.732 156.487 532.87 140.627 532.87C124.762 532.87 111.905 532.732 111.905 532.559C111.905 532.387 124.762 532.248 140.627 532.248C156.487 532.248 169.348 532.387 169.348 532.559Z" fill="#FAFAFA"/>
<path d="M783.356 87.0777C775.783 87.0777 769.645 80.9733 769.645 73.4421C769.645 65.9109 775.783 59.8053 783.356 59.8053C790.928 59.8053 797.068 65.9109 797.068 73.4421C797.068 80.9733 790.928 87.0777 783.356 87.0777ZM814.512 73.5873C814.512 54.5097 797.177 39.4593 777.317 43.1673C764.825 45.4989 754.87 55.6437 752.683 68.0949C751.314 75.8781 752.93 83.1981 756.499 89.2413H756.483L756.572 89.3565C757.766 91.3593 759.263 92.7909 760.775 94.8957L778.865 118.727C781.117 121.692 785.595 121.692 787.846 118.727L805.635 95.2881C805.635 95.2881 808.956 91.3497 810.16 89.3253L810.225 89.2413H810.213C812.929 84.6429 814.512 79.3053 814.512 73.5873Z" fill="#F5F5F5"/>
<path d="M207.716 286.222L88.8946 307.028L68.6539 192.705L187.476 171.899L207.716 286.222Z" fill="#F5F5F5"/>
<path d="M96.3748 295.63L118.828 231.046L152.371 263.939L165.173 241.11L196.771 278.051L96.3748 295.63Z" fill="#E1E1E1"/>
<path d="M155.141 212.89C155.972 217.587 152.818 222.066 148.095 222.891C143.373 223.718 138.871 220.582 138.039 215.886C137.207 211.189 140.362 206.712 145.084 205.885C149.807 205.058 154.309 208.194 155.141 212.89Z" fill="#E1E1E1"/>
<g opacity="0.300003">
<path d="M196.827 278.369C196.817 278.361 196.78 278.204 196.717 277.904C196.651 277.563 196.564 277.129 196.454 276.576C196.225 275.363 195.903 273.649 195.486 271.442C194.655 266.913 193.451 260.364 191.924 252.048C188.906 235.361 184.611 211.597 179.453 183.066L180.024 183.463C150.952 188.577 116.488 194.64 79.6535 201.12C79.5377 201.263 80.5271 199.875 80.1108 200.475L80.1157 200.502L80.1253 200.552L80.1422 200.654L80.1796 200.858L80.252 201.267L80.3956 202.082L80.684 203.711L81.2584 206.958C81.6409 209.119 82.021 211.269 82.3999 213.413C83.1577 217.695 83.9082 221.941 84.6503 226.141C86.1333 234.543 87.5849 242.769 88.9979 250.778C91.8143 266.792 94.475 281.933 96.9245 295.861L96.3441 295.457C126.327 290.313 151.372 286.017 168.977 282.996C177.762 281.515 184.687 280.346 189.473 279.54C191.814 279.155 193.63 278.857 194.915 278.646C195.506 278.555 195.968 278.483 196.327 278.427C196.648 278.381 196.817 278.36 196.827 278.369C196.839 278.376 196.692 278.412 196.394 278.473C196.047 278.54 195.608 278.628 195.045 278.738C193.786 278.971 192.01 279.302 189.718 279.729C184.968 280.592 178.095 281.84 169.379 283.423C151.717 286.579 126.595 291.066 96.5179 296.438L96.0255 296.526L95.9387 296.033C93.4566 282.111 90.7572 266.977 87.9035 250.969C86.482 242.963 85.0208 234.738 83.5281 226.338C82.7836 222.138 82.0306 217.893 81.2716 213.609C80.8915 211.467 80.5102 209.317 80.1277 207.156L79.5533 203.909L79.2637 202.28L79.1189 201.465L79.0465 201.057L79.0103 200.852L78.9922 200.75L78.9838 200.7L78.979 200.675C78.5627 201.257 79.5413 199.849 79.4532 199.994C116.3 193.572 150.772 187.565 179.853 182.496L180.341 182.412L180.425 182.894C185.399 211.59 189.542 235.489 192.453 252.272C193.863 260.561 194.975 267.089 195.743 271.601C196.103 273.777 196.383 275.467 196.582 276.663C196.665 277.197 196.73 277.619 196.781 277.949C196.823 278.234 196.839 278.376 196.827 278.369Z" fill="#E1E1E1"/>
</g>
<path d="M136.683 130.173L68.2598 116.957L77.2181 71.0925L145.64 84.3093L136.683 130.173Z" fill="#F5F5F5"/>
<path d="M145.752 84.9027C145.761 84.9219 145.501 85.0887 144.995 85.3899C144.433 85.7163 143.692 86.1459 142.766 86.6823C140.756 87.8139 137.949 89.3955 134.503 91.3359C127.439 95.2455 117.771 100.596 107.062 106.522L106.837 106.647L106.668 106.451C106.54 106.301 106.401 106.138 106.261 105.976C98.2511 96.5607 91.0014 88.0419 85.7017 81.8127C83.1279 78.7407 81.0295 76.2363 79.5272 74.4447C78.8394 73.6023 78.2892 72.9291 77.8729 72.4203C77.5 71.9523 77.3118 71.7003 77.3287 71.6859C77.3456 71.6727 77.5652 71.8971 77.9694 72.3375C78.4086 72.8283 78.9891 73.4763 79.7143 74.2851C81.254 76.0467 83.4055 78.5067 86.0432 81.5247C91.3791 87.7227 98.6782 96.2007 106.744 105.568C106.882 105.73 107.021 105.893 107.149 106.043L106.756 105.971C117.5 100.109 127.2 94.8159 134.288 90.9495C137.774 89.0811 140.615 87.5595 142.648 86.4699C143.598 85.9755 144.358 85.5795 144.933 85.2795C145.459 85.0143 145.741 84.8835 145.752 84.9027Z" fill="#E1E1E1"/>
<path d="M68.371 117.551C68.2612 117.415 74.6348 112.123 82.6037 105.729C90.5761 99.3346 97.1259 94.2622 97.2357 94.3978C97.3455 94.5322 90.9731 99.8254 83.0019 106.22C75.0318 112.613 68.4808 117.686 68.371 117.551Z" fill="#E1E1E1"/>
<path d="M120.092 98.2172C120.248 98.138 124.113 105.362 128.725 114.349C133.338 123.339 136.949 130.688 136.794 130.767C136.638 130.846 132.773 123.625 128.161 114.634C123.549 105.648 119.936 98.2964 120.092 98.2172Z" fill="#E1E1E1"/>
<path d="M811.784 285.592L744.702 262.25C740.066 260.637 737.623 255.592 739.246 250.982L771.735 158.645C773.356 154.036 778.428 151.606 783.064 153.219L825.607 168.023L846.662 213.238L823.114 280.166C821.491 284.776 816.419 287.205 811.784 285.592Z" fill="#ECECEC"/>
<path d="M825.607 168.023L816.463 194.01C814.955 198.298 817.227 202.99 821.537 204.49L846.663 213.238L825.607 168.023Z" fill="#F5F5F5"/>
<path d="M816.003 196.41C816.003 196.41 813.456 202.598 819.942 207.182C820.186 207.353 820.443 207.508 820.703 207.653C823.778 209.379 844.032 220.714 844.204 220.221C844.393 219.687 846.662 213.238 846.662 213.238L821.536 204.495C821.536 204.495 815.337 202.098 816.003 196.41Z" fill="#E1E1E1"/>
<path d="M811.212 190.993C811.094 191.326 804.051 189.179 795.482 186.197C786.91 183.215 780.06 180.527 780.177 180.193C780.295 179.859 787.336 182.006 795.908 184.989C804.477 187.97 811.329 190.659 811.212 190.993Z" fill="#FAFAFA"/>
<path d="M826.085 212.66C825.968 212.994 814.438 209.286 800.334 204.379C786.227 199.47 774.889 195.22 775.008 194.886C775.126 194.552 786.652 198.26 800.76 203.169C814.863 208.076 826.203 212.326 826.085 212.66Z" fill="#FAFAFA"/>
<path d="M826.368 226.53C826.25 226.864 813.69 222.797 798.318 217.447C782.941 212.097 770.573 207.49 770.689 207.155C770.808 206.821 783.364 210.887 798.743 216.239C814.116 221.587 826.486 226.197 826.368 226.53Z" fill="#FAFAFA"/>
<path d="M822.295 238.105C822.178 238.44 809.618 234.373 794.245 229.024C778.867 223.673 766.5 219.065 766.617 218.731C766.735 218.398 779.292 222.463 794.669 227.814C810.044 233.164 822.413 237.772 822.295 238.105Z" fill="#FAFAFA"/>
<path d="M818.222 249.681C818.104 250.015 805.544 245.949 790.172 240.6C774.794 235.249 762.427 230.641 762.544 230.306C762.661 229.974 775.219 234.039 790.597 239.39C805.97 244.74 818.341 249.348 818.222 249.681Z" fill="#FAFAFA"/>
<path d="M814.15 261.257C814.032 261.591 801.472 257.525 786.1 252.176C770.721 246.825 758.355 242.217 758.471 241.883C758.589 241.55 771.146 245.615 786.525 250.966C801.898 256.316 814.267 260.924 814.15 261.257Z" fill="#FAFAFA"/>
<path d="M796.064 480.27C791.896 484.564 792.017 491.405 796.335 495.55C800.652 499.694 807.531 499.574 811.699 495.282C815.867 490.988 815.747 484.146 811.428 480.001C807.111 475.856 800.233 475.978 796.064 480.27ZM790.665 466.853C792.58 465.702 794.62 464.831 796.722 464.237L797.969 458.275L808.097 458.098L809.555 464.011C811.676 464.532 813.744 465.332 815.699 466.416L820.818 463.08L828.105 470.076L824.932 475.279C826.089 477.185 826.967 479.213 827.563 481.303L833.556 482.544L833.735 492.614L827.788 494.065C827.266 496.175 826.46 498.232 825.372 500.176L828.726 505.266L821.691 512.513L816.458 509.357C814.543 510.509 812.505 511.381 810.402 511.975L809.154 517.936L799.026 518.112L797.569 512.198C795.446 511.679 793.379 510.877 791.424 509.795L786.306 513.132L779.019 506.135L782.192 500.93C781.035 499.026 780.156 496.998 779.559 494.908L773.566 493.667L773.388 483.595L779.335 482.144C779.857 480.036 780.663 477.979 781.752 476.035L778.397 470.945L785.432 463.698L790.665 466.853Z" fill="#F5F5F5"/>
<path d="M631.632 88.0369C627.028 92.7805 627.16 100.337 631.93 104.916C636.699 109.495 644.299 109.362 648.903 104.618C653.507 99.8761 653.374 92.3197 648.604 87.7405C643.834 83.1613 636.236 83.2945 631.632 88.0369ZM625.669 73.2157C627.784 71.9449 630.036 70.9813 632.359 70.3249L633.735 63.7393L644.924 63.5449L646.533 70.0765C648.878 70.6513 651.163 71.5357 653.322 72.7333L658.975 69.0469L667.025 76.7761L663.521 82.5241C664.799 84.6277 665.769 86.8681 666.428 89.1781L673.049 90.5485L673.245 101.674L666.676 103.276C666.098 105.606 665.209 107.878 664.006 110.026L667.712 115.649L659.941 123.654L654.161 120.168C652.044 121.44 649.793 122.404 647.47 123.06L646.09 129.644L634.905 129.839L633.294 123.307C630.95 122.732 628.665 121.848 626.506 120.652L620.852 124.337L612.803 116.608L616.308 110.86C615.028 108.756 614.06 106.516 613.401 104.206L606.778 102.836L606.582 91.7101L613.151 90.1081C613.729 87.7777 614.618 85.5061 615.82 83.3593L612.116 77.7361L619.888 69.7309L625.669 73.2157Z" fill="#E1E1E1"/>
<path d="M785.098 43.8124L782.697 43.8772C762.447 44.4196 743.962 55.6876 735.135 73.6156C733.999 75.9208 733.033 78.3076 732.248 80.7592C726.609 98.4136 730.72 118.892 742.785 133.259C749.88 141.71 759.722 148.528 763.241 158.92C767.821 172.443 760.085 186.602 752.642 198.686C745.198 210.768 737.494 224.957 742.133 238.462C745.039 246.92 752.426 253.275 760.501 257.308C781.882 267.986 808.688 264.134 828.404 251.079C848.119 238.023 861.298 216.959 868.725 194.642C879.128 163.378 878.817 127.857 863.905 98.1508C848.992 68.4448 818.476 45.7528 785.098 43.8124Z" fill="#F5F5F5"/>
<path d="M71.6958 293.019L73.0582 291.329C84.5444 277.081 102.853 269.975 120.709 273.455C123.005 273.903 125.268 274.515 127.479 275.295C143.391 280.915 156.012 295.083 159.838 311.62C162.088 321.346 161.652 332.15 167.271 340.369C174.585 351.068 189.105 353.266 201.958 354.538C214.811 355.81 229.337 358.048 236.604 368.777C241.155 375.497 241.725 384.284 240.23 392.295C236.274 413.501 218.793 430.646 198.513 437.656C178.231 444.667 155.714 442.595 135.437 435.705C107.032 426.053 81.4023 406.372 67.995 379.39C54.5877 352.407 54.8218 318.057 71.6958 293.019Z" fill="#F5F5F5"/>
<path d="M133.24 161.713C133.24 190.064 110.129 213.048 81.62 213.048C53.1113 213.048 30 190.064 30 161.713C30 133.362 53.1113 110.379 81.62 110.379C110.129 110.379 133.24 133.362 133.24 161.713Z" fill="#F5F5F5"/>
<path d="M839.948 344.198C839.948 364.583 823.331 381.111 802.831 381.111C782.331 381.111 765.713 364.583 765.713 344.198C765.713 323.812 782.331 307.285 802.831 307.285C823.331 307.285 839.948 323.812 839.948 344.198Z" fill="#F5F5F5"/>
<path d="M820.387 570.286C820.387 570.459 654.995 570.598 451.022 570.598C246.977 570.598 81.62 570.459 81.62 570.286C81.62 570.114 246.977 569.973 451.022 569.973C654.995 569.973 820.387 570.114 820.387 570.286Z" fill="#312B35"/>
<path d="M711.484 109.118H186.493C177.441 109.118 170.105 116.414 170.105 125.415V494.18C170.105 503.181 177.441 510.477 186.493 510.477H387.983C387.983 510.477 400.8 549.892 361.068 570.286H549.472C549.472 570.286 504.613 554.992 516.148 510.477H711.487C720.535 510.477 727.873 503.181 727.873 494.181V125.415C727.873 116.414 720.536 109.118 711.484 109.118Z" fill="#69839B"/>
<path d="M455.999 471.694C463.14 481.845 451.962 492.96 441.754 485.86C441.418 485.624 441.112 485.32 440.877 484.984C433.754 474.837 444.918 463.736 455.12 470.82C455.457 471.056 455.763 471.359 455.999 471.694Z" fill="#312B35"/>
<path d="M718.834 443.015H179.145V127.511C179.145 121.083 184.383 115.873 190.846 115.873H707.133C713.595 115.873 718.834 121.083 718.834 127.511V443.015Z" fill="white"/>
<path d="M718.834 143.057H179.145V126.858C179.145 120.791 184.09 115.874 190.19 115.874H709.763C714.773 115.874 718.834 119.912 718.834 124.893V143.057Z" fill="#ECECEC"/>
<path d="M617.625 510.529C617.625 510.703 542.918 510.843 450.784 510.843C358.617 510.843 283.927 510.703 283.927 510.529C283.927 510.356 358.617 510.216 450.784 510.216C542.918 510.216 617.625 510.356 617.625 510.529Z" fill="#312B35"/>
<path d="M627.322 59.2322H298.225V443.441H627.322V59.2322Z" fill="white"/>
<path d="M627.229 101.225H582.427V59.2933H627.229V101.225Z" fill="#F5F5F5"/>
<path d="M602.813 76.5037H599.265V72.9649H602.813V76.5037Z" fill="white"/>
<path d="M607.745 76.5037H604.197V72.9649H607.745V76.5037Z" fill="white"/>
<path d="M612.678 76.5037H609.129V72.9649H612.678V76.5037Z" fill="white"/>
<path d="M602.813 81.7764H599.265V78.2376H602.813V81.7764Z" fill="white"/>
<path d="M607.745 81.7764H604.197V78.2376H607.745V81.7764Z" fill="white"/>
<path d="M612.678 81.7764H609.129V78.2376H612.678V81.7764Z" fill="white"/>
<path d="M602.813 87.0481H599.265V83.5093H602.813V87.0481Z" fill="white"/>
<path d="M607.745 87.0481H604.197V83.5093H607.745V87.0481Z" fill="white"/>
<path d="M612.678 87.0481H609.129V83.5093H612.678V87.0481Z" fill="white"/>
<path d="M627.229 59.2932H298.132V39.8784H627.229V59.2932Z" fill="#E1E1E1"/>
<path d="M310.336 49.5867C310.336 51.3603 308.894 52.7979 307.117 52.7979C305.337 52.7979 303.896 51.3603 303.896 49.5867C303.896 47.8131 305.337 46.3755 307.117 46.3755C308.894 46.3755 310.336 47.8131 310.336 49.5867Z" fill="white"/>
<path d="M319.513 49.5867C319.513 51.3603 318.071 52.7979 316.294 52.7979C314.515 52.7979 313.073 51.3603 313.073 49.5867C313.073 47.8131 314.515 46.3755 316.294 46.3755C318.071 46.3755 319.513 47.8131 319.513 49.5867Z" fill="white"/>
<path d="M328.691 49.5867C328.691 51.3603 327.25 52.7979 325.471 52.7979C323.693 52.7979 322.251 51.3603 322.251 49.5867C322.251 47.8131 323.693 46.3755 325.471 46.3755C327.25 46.3755 328.691 47.8131 328.691 49.5867Z" fill="white"/>
<path d="M336.866 94.7854V105.936H334.28V101.364H329.204V105.936H326.618V94.7854H329.204V99.1822H334.28V94.7854H336.866Z" fill="#312B35"/>
<path d="M341.179 100.903H345.408C345.233 99.8189 344.42 99.1181 343.302 99.1181C342.169 99.1181 341.355 99.8033 341.179 100.903ZM347.708 102.352H341.21C341.451 103.419 342.36 104.073 343.668 104.073C344.578 104.073 345.233 103.802 345.825 103.244L347.15 104.678C346.351 105.586 345.154 106.064 343.606 106.064C340.636 106.064 338.704 104.2 338.704 101.651C338.704 99.0857 340.669 97.2389 343.286 97.2389C345.808 97.2389 347.755 98.9273 347.755 101.683C347.755 101.875 347.724 102.145 347.708 102.352Z" fill="#312B35"/>
<path d="M349.418 94.1163H351.908V105.936H349.418V94.1163Z" fill="#312B35"/>
<path d="M354.223 94.1163H356.712V105.936H354.223V94.1163Z" fill="#312B35"/>
<path d="M365.303 101.651C365.303 100.169 364.361 99.2777 363.117 99.2777C361.87 99.2777 360.913 100.169 360.913 101.651C360.913 103.132 361.87 104.025 363.117 104.025C364.361 104.025 365.303 103.132 365.303 101.651ZM358.39 101.651C358.39 99.0701 360.386 97.2389 363.117 97.2389C365.846 97.2389 367.825 99.0701 367.825 101.651C367.825 104.231 365.846 106.064 363.117 106.064C360.386 106.064 358.39 104.231 358.39 101.651Z" fill="#312B35"/>
<path d="M369.167 94.7854H372.136L371.641 102.065H369.662L369.167 94.7854ZM369.119 104.613C369.119 103.802 369.757 103.196 370.652 103.196C371.546 103.196 372.184 103.802 372.184 104.613C372.184 105.41 371.546 106.063 370.652 106.063C369.757 106.063 369.119 105.41 369.119 104.613Z" fill="#312B35"/>
<path d="M382.476 118.119C382.476 118.292 369.877 118.431 354.337 118.431C338.792 118.431 326.195 118.292 326.195 118.119C326.195 117.946 338.792 117.806 354.337 117.806C369.877 117.806 382.476 117.946 382.476 118.119Z" fill="#312B35"/>
<path d="M432.604 127.573C432.604 127.746 408.782 127.886 379.402 127.886C350.013 127.886 326.195 127.746 326.195 127.573C326.195 127.4 350.013 127.261 379.402 127.261C408.782 127.261 432.604 127.4 432.604 127.573Z" fill="#312B35"/>
<path d="M450.382 138.151C450.382 138.323 422.701 138.464 388.562 138.464C354.412 138.464 326.737 138.323 326.737 138.151C326.737 137.978 354.412 137.839 388.562 137.839C422.701 137.839 450.382 137.978 450.382 138.151Z" fill="#E1E1E1"/>
<path d="M450.382 145.238C450.382 145.41 422.701 145.55 388.562 145.55C354.412 145.55 326.737 145.41 326.737 145.238C326.737 145.065 354.412 144.926 388.562 144.926C422.701 144.926 450.382 145.065 450.382 145.238Z" fill="#E1E1E1"/>
<path d="M395.385 172.712C390.661 172.712 386.832 168.894 386.832 164.184C386.832 159.473 390.661 155.654 395.385 155.654C400.109 155.654 403.938 159.473 403.938 164.184C403.938 168.894 400.109 172.712 395.385 172.712Z" fill="#DB96AF"/>
<path d="M391.507 167.985H393.277V162.282H391.507V167.985Z" fill="white"/>
<path d="M392.383 161.535C392.961 161.535 393.431 161.063 393.431 160.482C393.431 159.901 392.961 159.43 392.383 159.43C391.805 159.43 391.337 159.901 391.337 160.482C391.337 161.063 391.805 161.535 392.383 161.535Z" fill="white"/>
<path d="M396.106 164.991C396.106 164.189 396.477 163.711 397.185 163.711C397.836 163.711 398.148 164.17 398.148 164.991V167.985H399.91V164.374C399.91 162.846 399.042 162.107 397.83 162.107C396.617 162.107 396.106 163.05 396.106 163.05V162.282H394.409V167.985H396.106V164.991Z" fill="white"/>
<path d="M354.746 172.782C349.984 172.782 346.124 168.932 346.124 164.183C346.124 159.434 349.984 155.585 354.746 155.585C359.508 155.583 363.369 159.434 363.369 164.183C363.369 168.932 359.508 172.782 354.746 172.782Z" fill="#DB96AF"/>
<path d="M356.688 163.959H353.205L353.208 164.954H355.558C355.28 166.166 354.422 166.908 353.271 166.908C351.761 166.908 350.539 165.688 350.539 164.183C350.539 162.678 351.761 161.458 353.271 161.458C353.989 161.458 354.642 161.734 355.129 162.185L355.9 161.523C355.225 160.858 354.297 160.448 353.271 160.448C351.203 160.448 349.526 162.119 349.526 164.183C349.526 166.246 351.203 167.919 353.271 167.919C355.258 167.919 356.694 166.408 356.694 164.344L356.688 163.959Z" fill="white"/>
<path d="M361.695 164H360.257V162.566H359.34V164H357.901V164.915H359.34V166.349H360.257V164.915H361.695V164Z" fill="white"/>
<path d="M375.361 172.661C370.671 172.661 366.869 168.869 366.869 164.192C366.869 159.515 370.671 155.723 375.361 155.723C380.051 155.723 383.854 159.515 383.854 164.192C383.854 168.869 380.051 172.661 375.361 172.661Z" fill="#DB96AF"/>
<path d="M375.361 159.548C374.096 159.548 373.938 159.553 373.441 159.576C372.945 159.599 372.607 159.677 372.311 159.792C372.004 159.911 371.745 160.07 371.486 160.327C371.227 160.586 371.068 160.846 370.949 161.15C370.834 161.446 370.755 161.783 370.733 162.277C370.711 162.773 370.704 162.931 370.704 164.192C370.704 165.454 370.711 165.612 370.733 166.106C370.755 166.601 370.834 166.938 370.949 167.234C371.068 167.539 371.227 167.798 371.486 168.056C371.745 168.314 372.004 168.473 372.311 168.592C372.607 168.707 372.945 168.785 373.441 168.808C373.938 168.83 374.096 168.836 375.361 168.836C376.626 168.836 376.785 168.83 377.281 168.808C377.777 168.785 378.115 168.707 378.411 168.592C378.718 168.473 378.977 168.314 379.236 168.056C379.495 167.798 379.654 167.539 379.773 167.234C379.888 166.938 379.967 166.601 379.99 166.106C380.011 165.612 380.018 165.454 380.018 164.192C380.018 162.931 380.011 162.773 379.99 162.277C379.967 161.783 379.888 161.446 379.773 161.15C379.654 160.846 379.495 160.586 379.236 160.327C378.977 160.07 378.718 159.911 378.411 159.792C378.115 159.677 377.777 159.599 377.281 159.576C376.785 159.553 376.626 159.548 375.361 159.548ZM375.361 160.385C376.604 160.385 376.751 160.39 377.243 160.412C377.697 160.433 377.943 160.508 378.107 160.572C378.325 160.656 378.479 160.757 378.643 160.92C378.805 161.082 378.906 161.237 378.991 161.453C379.055 161.617 379.131 161.863 379.151 162.316C379.174 162.805 379.179 162.952 379.179 164.192C379.179 165.432 379.174 165.578 379.151 166.069C379.131 166.522 379.055 166.768 378.991 166.931C378.906 167.148 378.805 167.302 378.643 167.465C378.479 167.627 378.325 167.728 378.107 167.812C377.943 167.875 377.697 167.951 377.243 167.972C376.751 167.994 376.605 167.999 375.361 167.999C374.118 167.999 373.971 167.994 373.48 167.972C373.025 167.951 372.779 167.875 372.615 167.812C372.397 167.728 372.243 167.627 372.079 167.465C371.917 167.302 371.816 167.148 371.731 166.931C371.667 166.768 371.591 166.522 371.571 166.069C371.548 165.578 371.543 165.432 371.543 164.192C371.543 162.952 371.548 162.805 371.571 162.316C371.591 161.863 371.667 161.617 371.731 161.453C371.816 161.237 371.917 161.082 372.079 160.92C372.243 160.757 372.397 160.656 372.615 160.572C372.779 160.508 373.025 160.433 373.48 160.412C373.971 160.39 374.118 160.385 375.361 160.385Z" fill="white"/>
<path d="M375.361 165.74C374.504 165.74 373.809 165.046 373.809 164.192C373.809 163.338 374.504 162.644 375.361 162.644C376.218 162.644 376.913 163.338 376.913 164.192C376.913 165.046 376.218 165.74 375.361 165.74ZM375.361 161.808C374.041 161.808 372.971 162.876 372.971 164.192C372.971 165.51 374.041 166.576 375.361 166.576C376.681 166.576 377.751 165.51 377.751 164.192C377.751 162.876 376.681 161.808 375.361 161.808Z" fill="white"/>
<path d="M378.405 161.713C378.405 162.021 378.156 162.27 377.847 162.27C377.538 162.27 377.288 162.021 377.288 161.713C377.288 161.406 377.538 161.157 377.847 161.157C378.156 161.157 378.405 161.406 378.405 161.713Z" fill="white"/>
<path d="M334.417 172.772C329.695 172.772 325.869 168.955 325.869 164.248C325.869 159.54 329.695 155.723 334.417 155.723C339.139 155.723 342.965 159.54 342.965 164.248C342.965 168.955 339.139 172.772 334.417 172.772Z" fill="#DB96AF"/>
<path d="M333.115 169.4H335.195V164.203H336.647L336.802 162.464H335.195V161.473C335.195 161.063 335.277 160.901 335.676 160.901H336.802V159.095H335.362C333.812 159.095 333.115 159.775 333.115 161.076V162.464H332.032V164.226H333.115V169.4Z" fill="white"/>
<path d="M417.198 184.303C417.198 184.476 395.567 184.616 368.891 184.616C342.206 184.616 320.58 184.476 320.58 184.303C320.58 184.13 342.206 183.991 368.891 183.991C395.567 183.991 417.198 184.13 417.198 184.303Z" fill="#312B35"/>
<path d="M612.615 442.872H317.67V215.733H612.615V442.872Z" fill="#F5F5F5"/>
<path d="M410.806 242.733C410.806 242.906 401.835 243.045 390.773 243.045C379.706 243.045 370.737 242.906 370.737 242.733C370.737 242.561 379.706 242.421 390.773 242.421C401.835 242.421 410.806 242.561 410.806 242.733Z" fill="#DB96AF"/>
<path d="M554.48 242.733C554.48 242.906 545.509 243.045 534.447 243.045C523.38 243.045 514.412 242.906 514.412 242.733C514.412 242.561 523.38 242.421 534.447 242.421C545.509 242.421 554.48 242.561 554.48 242.733Z" fill="#DB96AF"/>
<path d="M554.48 288.663C554.48 288.836 545.509 288.977 534.447 288.977C523.38 288.977 514.412 288.836 514.412 288.663C514.412 288.491 523.38 288.351 534.447 288.351C545.509 288.351 554.48 288.491 554.48 288.663Z" fill="#DB96AF"/>
<path d="M424.454 257.46C424.454 257.633 412.803 257.773 398.434 257.773C384.061 257.773 372.411 257.633 372.411 257.46C372.411 257.287 384.061 257.148 398.434 257.148C412.803 257.148 424.454 257.287 424.454 257.46Z" fill="#69839B"/>
<path d="M422.849 284.62C422.849 284.792 411.198 284.932 396.829 284.932C382.456 284.932 370.807 284.792 370.807 284.62C370.807 284.447 382.456 284.308 396.829 284.308C411.198 284.308 422.849 284.447 422.849 284.62Z" fill="#312B35"/>
<path d="M368.53 257.46C368.53 258.121 367.993 258.656 367.331 258.656C366.668 258.656 366.131 258.121 366.131 257.46C366.131 256.8 366.668 256.263 367.331 256.263C367.993 256.263 368.53 256.8 368.53 257.46Z" fill="#312B35"/>
<path d="M368.53 284.62C368.53 285.281 367.993 285.816 367.331 285.816C366.668 285.816 366.131 285.281 366.131 284.62C366.131 283.96 366.668 283.423 367.331 283.423C367.993 283.423 368.53 283.96 368.53 284.62Z" fill="#312B35"/>
<path d="M368.466 307.586C368.466 308.247 367.929 308.782 367.267 308.782C366.604 308.782 366.068 308.247 366.068 307.586C366.068 306.925 366.604 306.39 367.267 306.39C367.929 306.39 368.466 306.925 368.466 307.586Z" fill="#312B35"/>
<path d="M367.267 281.352C367.093 281.352 366.953 276.648 366.953 270.846C366.953 265.042 367.093 260.338 367.267 260.338C367.44 260.338 367.58 265.042 367.58 270.846C367.58 276.648 367.44 281.352 367.267 281.352Z" fill="#312B35"/>
<path d="M367.267 303.209C367.093 303.209 366.953 299.952 366.953 295.936C366.953 291.92 367.093 288.663 367.267 288.663C367.44 288.663 367.58 291.92 367.58 295.936C367.58 299.952 367.44 303.209 367.267 303.209Z" fill="#312B35"/>
<path d="M393.932 261.86C393.932 262.033 389.307 262.173 383.603 262.173C377.898 262.173 373.274 262.033 373.274 261.86C373.274 261.687 377.898 261.548 383.603 261.548C389.307 261.548 393.932 261.687 393.932 261.86Z" fill="#69839B"/>
<path d="M424.034 270.248C424.034 270.421 412.769 270.56 398.877 270.56C384.98 270.56 373.717 270.421 373.717 270.248C373.717 270.075 384.98 269.936 398.877 269.936C412.769 269.936 424.034 270.075 424.034 270.248Z" fill="#E1E1E1"/>
<path d="M409.957 277.233C409.957 277.406 401.844 277.546 391.838 277.546C381.829 277.546 373.717 277.406 373.717 277.233C373.717 277.06 381.829 276.921 391.838 276.921C401.844 276.921 409.957 277.06 409.957 277.233Z" fill="#E1E1E1"/>
<path d="M423.591 273.632C423.591 273.805 412.327 273.944 398.433 273.944C384.537 273.944 373.274 273.805 373.274 273.632C373.274 273.46 384.537 273.32 398.433 273.32C412.327 273.32 423.591 273.46 423.591 273.632Z" fill="#E1E1E1"/>
<path d="M424.034 292.185C424.034 292.358 412.769 292.497 398.877 292.497C384.98 292.497 373.717 292.358 373.717 292.185C373.717 292.012 384.98 291.873 398.877 291.873C412.769 291.873 424.034 292.012 424.034 292.185Z" fill="#E1E1E1"/>
<path d="M409.957 299.171C409.957 299.344 401.844 299.483 391.838 299.483C381.829 299.483 373.717 299.344 373.717 299.171C373.717 298.998 381.829 298.858 391.838 298.858C401.844 298.858 409.957 298.998 409.957 299.171Z" fill="#E1E1E1"/>
<path d="M423.591 295.569C423.591 295.742 412.327 295.882 398.433 295.882C384.537 295.882 373.274 295.742 373.274 295.569C373.274 295.396 384.537 295.257 398.433 295.257C412.327 295.257 423.591 295.396 423.591 295.569Z" fill="#E1E1E1"/>
<path d="M422.849 307.816C422.849 307.989 411.198 308.128 396.829 308.128C382.456 308.128 370.807 307.989 370.807 307.816C370.807 307.642 382.456 307.503 396.829 307.503C411.198 307.503 422.849 307.642 422.849 307.816Z" fill="#312B35"/>
<path d="M424.034 315.38C424.034 315.553 412.769 315.693 398.877 315.693C384.98 315.693 373.717 315.553 373.717 315.38C373.717 315.207 384.98 315.068 398.877 315.068C412.769 315.068 424.034 315.207 424.034 315.38Z" fill="#E1E1E1"/>
<path d="M409.957 322.366C409.957 322.54 401.844 322.679 391.838 322.679C381.829 322.679 373.717 322.54 373.717 322.366C373.717 322.193 381.829 322.054 391.838 322.054C401.844 322.054 409.957 322.193 409.957 322.366Z" fill="#E1E1E1"/>
<path d="M423.591 318.765C423.591 318.937 412.327 319.078 398.433 319.078C384.537 319.078 373.274 318.937 373.274 318.765C373.274 318.592 384.537 318.453 398.433 318.453C412.327 318.453 423.591 318.592 423.591 318.765Z" fill="#E1E1E1"/>
<path d="M410.806 337.967C410.806 338.14 401.835 338.279 390.773 338.279C379.706 338.279 370.737 338.14 370.737 337.967C370.737 337.793 379.706 337.654 390.773 337.654C401.835 337.654 410.806 337.793 410.806 337.967Z" fill="#DB96AF"/>
<path d="M424.454 352.693C424.454 352.867 412.803 353.006 398.434 353.006C384.061 353.006 372.411 352.867 372.411 352.693C372.411 352.52 384.061 352.381 398.434 352.381C412.803 352.381 424.454 352.52 424.454 352.693Z" fill="#69839B"/>
<path d="M422.849 379.853C422.849 380.026 411.198 380.165 396.829 380.165C382.456 380.165 370.807 380.026 370.807 379.853C370.807 379.679 382.456 379.54 396.829 379.54C411.198 379.54 422.849 379.679 422.849 379.853Z" fill="#312B35"/>
<path d="M368.53 352.693C368.53 353.354 367.993 353.889 367.331 353.889C366.668 353.889 366.131 353.354 366.131 352.693C366.131 352.033 366.668 351.498 367.331 351.498C367.993 351.498 368.53 352.033 368.53 352.693Z" fill="#312B35"/>
<path d="M368.53 379.853C368.53 380.513 367.993 381.049 367.331 381.049C366.668 381.049 366.131 380.513 366.131 379.853C366.131 379.192 366.668 378.657 367.331 378.657C367.993 378.657 368.53 379.192 368.53 379.853Z" fill="#312B35"/>
<path d="M368.466 402.82C368.466 403.48 367.929 404.015 367.267 404.015C366.604 404.015 366.068 403.48 366.068 402.82C366.068 402.158 366.604 401.623 367.267 401.623C367.929 401.623 368.466 402.158 368.466 402.82Z" fill="#312B35"/>
<path d="M367.267 376.585C367.093 376.585 366.953 371.881 366.953 366.079C366.953 360.275 367.093 355.571 367.267 355.571C367.44 355.571 367.58 360.275 367.58 366.079C367.58 371.881 367.44 376.585 367.267 376.585Z" fill="#312B35"/>
<path d="M367.267 398.442C367.093 398.442 366.953 395.186 366.953 391.17C366.953 387.153 367.093 383.896 367.267 383.896C367.44 383.896 367.58 387.153 367.58 391.17C367.58 395.186 367.44 398.442 367.267 398.442Z" fill="#312B35"/>
<path d="M393.932 357.093C393.932 357.267 389.307 357.406 383.603 357.406C377.898 357.406 373.274 357.267 373.274 357.093C373.274 356.92 377.898 356.781 383.603 356.781C389.307 356.781 393.932 356.92 393.932 357.093Z" fill="#69839B"/>
<path d="M424.034 365.481C424.034 365.654 412.769 365.793 398.877 365.793C384.98 365.793 373.717 365.654 373.717 365.481C373.717 365.307 384.98 365.168 398.877 365.168C412.769 365.168 424.034 365.307 424.034 365.481Z" fill="#E1E1E1"/>
<path d="M409.957 372.467C409.957 372.64 401.844 372.78 391.838 372.78C381.829 372.78 373.717 372.64 373.717 372.467C373.717 372.294 381.829 372.154 391.838 372.154C401.844 372.154 409.957 372.294 409.957 372.467Z" fill="#E1E1E1"/>
<path d="M423.591 368.866C423.591 369.039 412.327 369.178 398.433 369.178C384.537 369.178 373.274 369.039 373.274 368.866C373.274 368.692 384.537 368.553 398.433 368.553C412.327 368.553 423.591 368.692 423.591 368.866Z" fill="#E1E1E1"/>
<path d="M424.034 387.418C424.034 387.591 412.769 387.731 398.877 387.731C384.98 387.731 373.717 387.591 373.717 387.418C373.717 387.245 384.98 387.106 398.877 387.106C412.769 387.106 424.034 387.245 424.034 387.418Z" fill="#E1E1E1"/>
<path d="M409.957 394.403C409.957 394.577 401.844 394.717 391.838 394.717C381.829 394.717 373.717 394.577 373.717 394.403C373.717 394.231 381.829 394.091 391.838 394.091C401.844 394.091 409.957 394.231 409.957 394.403Z" fill="#E1E1E1"/>
<path d="M423.591 390.802C423.591 390.976 412.327 391.115 398.433 391.115C384.537 391.115 373.274 390.976 373.274 390.802C373.274 390.629 384.537 390.49 398.433 390.49C412.327 390.49 423.591 390.629 423.591 390.802Z" fill="#E1E1E1"/>
<path d="M422.849 403.048C422.849 403.221 411.198 403.362 396.829 403.362C382.456 403.362 370.807 403.221 370.807 403.048C370.807 402.876 382.456 402.736 396.829 402.736C411.198 402.736 422.849 402.876 422.849 403.048Z" fill="#312B35"/>
<path d="M424.034 410.614C424.034 410.787 412.769 410.926 398.877 410.926C384.98 410.926 373.717 410.787 373.717 410.614C373.717 410.44 384.98 410.301 398.877 410.301C412.769 410.301 424.034 410.44 424.034 410.614Z" fill="#E1E1E1"/>
<path d="M409.957 417.599C409.957 417.772 401.844 417.913 391.838 417.913C381.829 417.913 373.717 417.772 373.717 417.599C373.717 417.427 381.829 417.286 391.838 417.286C401.844 417.286 409.957 417.427 409.957 417.599Z" fill="#E1E1E1"/>
<path d="M423.591 413.998C423.591 414.171 412.327 414.31 398.433 414.31C384.537 414.31 373.274 414.171 373.274 413.998C373.274 413.826 384.537 413.685 398.433 413.685C412.327 413.685 423.591 413.826 423.591 413.998Z" fill="#E1E1E1"/>
<path d="M468.465 442.318C468.29 442.318 468.15 391.908 468.15 329.741C468.15 267.551 468.29 217.153 468.465 217.153C468.638 217.153 468.778 267.551 468.778 329.741C468.778 391.908 468.638 442.318 468.465 442.318Z" fill="#69839B"/>
<path d="M582.426 256.152C582.426 256.325 566.568 256.465 547.013 256.465C527.449 256.465 511.597 256.325 511.597 256.152C511.597 255.979 527.449 255.84 547.013 255.84C566.568 255.84 582.426 255.979 582.426 256.152Z" fill="#69839B"/>
<path d="M583.368 261.86C583.368 262.033 567.629 262.173 548.219 262.173C528.801 262.173 513.066 262.033 513.066 261.86C513.066 261.687 528.801 261.548 548.219 261.548C567.629 261.548 583.368 261.687 583.368 261.86Z" fill="#69839B"/>
<path d="M554.48 376.694C554.48 376.867 545.509 377.006 534.447 377.006C523.38 377.006 514.412 376.867 514.412 376.694C514.412 376.52 523.38 376.381 534.447 376.381C545.509 376.381 554.48 376.52 554.48 376.694Z" fill="#DB96AF"/>
<path d="M582.426 390.112C582.426 390.286 566.568 390.425 547.013 390.425C527.449 390.425 511.597 390.286 511.597 390.112C511.597 389.939 527.449 389.8 547.013 389.8C566.568 389.8 582.426 389.939 582.426 390.112Z" fill="#69839B"/>
<path d="M583.368 395.82C583.368 395.994 567.3 396.133 547.484 396.133C527.661 396.133 511.597 395.994 511.597 395.82C511.597 395.647 527.661 395.508 547.484 395.508C567.3 395.508 583.368 395.647 583.368 395.82Z" fill="#69839B"/>
<path d="M576.693 307.694H515.777C514.279 307.694 513.067 306.488 513.067 305C513.067 303.511 514.279 302.305 515.777 302.305H576.693C578.19 302.305 579.404 303.511 579.404 305C579.404 306.488 578.19 307.694 576.693 307.694Z" fill="#E1E1E1"/>
<path d="M548.544 307.694H515.777C514.28 307.694 513.067 306.488 513.067 305C513.067 303.511 514.28 302.305 515.777 302.305H548.544C550.04 302.305 551.254 303.511 551.254 305C551.254 306.488 550.04 307.694 548.544 307.694Z" fill="#DB96AF"/>
<path d="M576.693 319.695H515.777C514.279 319.695 513.067 318.489 513.067 317.001C513.067 315.513 514.279 314.306 515.777 314.306H576.693C578.19 314.306 579.404 315.513 579.404 317.001C579.404 318.489 578.19 319.695 576.693 319.695Z" fill="#E1E1E1"/>
<path d="M537.888 319.695H515.777C514.28 319.695 513.067 318.489 513.067 317.001C513.067 315.513 514.28 314.306 515.777 314.306H537.888C539.384 314.306 540.598 315.513 540.598 317.001C540.598 318.489 539.384 319.695 537.888 319.695Z" fill="#DB96AF"/>
<path d="M576.693 331.698H515.777C514.279 331.698 513.067 330.49 513.067 329.002C513.067 327.514 514.279 326.307 515.777 326.307H576.693C578.19 326.307 579.404 327.514 579.404 329.002C579.404 330.49 578.19 331.698 576.693 331.698Z" fill="#E1E1E1"/>
<path d="M567.866 331.698H515.777C514.279 331.698 513.067 330.49 513.067 329.002C513.067 327.514 514.279 326.307 515.777 326.307H567.866C569.362 326.307 570.576 327.514 570.576 329.002C570.576 330.49 569.362 331.698 567.866 331.698Z" fill="#DB96AF"/>
<path d="M576.693 343.698H515.777C514.279 343.698 513.067 342.491 513.067 341.003C513.067 339.515 514.279 338.308 515.777 338.308H576.693C578.19 338.308 579.404 339.515 579.404 341.003C579.404 342.491 578.19 343.698 576.693 343.698Z" fill="#E1E1E1"/>
<path d="M560.473 343.698H515.777C514.279 343.698 513.067 342.491 513.067 341.003C513.067 339.515 514.279 338.308 515.777 338.308H560.473C561.97 338.308 563.183 339.515 563.183 341.003C563.183 342.491 561.97 343.698 560.473 343.698Z" fill="#DB96AF"/>
<path d="M507.137 306.151C507.137 306.323 504.569 306.463 501.402 306.463C498.233 306.463 495.665 306.323 495.665 306.151C495.665 305.978 498.233 305.837 501.402 305.837C504.569 305.837 507.137 305.978 507.137 306.151Z" fill="#69839B"/>
<path d="M507.137 317.001C507.137 317.174 504.569 317.313 501.402 317.313C498.233 317.313 495.665 317.174 495.665 317.001C495.665 316.828 498.233 316.688 501.402 316.688C504.569 316.688 507.137 316.828 507.137 317.001Z" fill="#69839B"/>
<path d="M507.137 327.851C507.137 328.024 504.569 328.163 501.402 328.163C498.233 328.163 495.665 328.024 495.665 327.851C495.665 327.677 498.233 327.538 501.402 327.538C504.569 327.538 507.137 327.677 507.137 327.851Z" fill="#69839B"/>
<path d="M507.137 338.702C507.137 338.874 504.569 339.014 501.402 339.014C498.233 339.014 495.665 338.874 495.665 338.702C495.665 338.528 498.233 338.388 501.402 338.388C504.569 338.388 507.137 338.528 507.137 338.702Z" fill="#69839B"/>
<path d="M341.887 236.327L352.035 231.898L361.246 236.327L351.828 241.13L341.887 236.327Z" fill="#DB96AF"/>
<path d="M344.007 238.735L343.87 244.77H358.897V238.941L351.642 242.481L344.007 238.735Z" fill="#DB96AF"/>
<path d="M503.666 245.337H488.645V235.845H503.666V245.337Z" fill="#DB96AF"/>
<path d="M499.172 248.308H493.141V245.337H499.172V248.308Z" fill="#DB96AF"/>
<path d="M502.512 248.205C502.512 248.378 499.51 248.517 495.805 248.517C492.102 248.517 489.1 248.378 489.1 248.205C489.1 248.032 492.102 247.893 495.805 247.893C499.51 247.893 502.512 248.032 502.512 248.205Z" fill="#DB96AF"/>
<path d="M353.33 341.228H338.308V331.736H353.33V341.228Z" fill="#DB96AF"/>
<path d="M348.835 344.198H342.803V341.226H348.835V344.198Z" fill="#DB96AF"/>
<path d="M352.176 344.095C352.176 344.269 349.174 344.408 345.469 344.408C341.766 344.408 338.762 344.269 338.762 344.095C338.762 343.922 341.766 343.783 345.469 343.783C349.174 343.783 352.176 343.922 352.176 344.095Z" fill="#DB96AF"/>
<path d="M502.835 291.64L501.461 289.234C502.068 288.254 502.42 287.099 502.42 285.863C502.42 282.309 499.522 279.427 495.948 279.427C492.374 279.427 489.477 282.309 489.477 285.863C489.477 289.418 492.374 292.3 495.948 292.3C497.441 292.3 498.814 291.796 499.908 290.951L499.907 290.955L502.835 291.64Z" fill="#DB96AF"/>
<path d="M499.178 373.211C500.464 372.675 501.379 371.355 501.388 369.801C501.396 367.764 499.847 366.106 497.926 366.097C496.006 366.088 494.442 367.733 494.433 369.768C494.427 371.337 495.348 372.672 496.649 373.211C491.3 374.013 491.542 379.794 491.542 379.794L504.193 379.853C504.193 379.853 504.483 374.008 499.178 373.211Z" fill="#DB96AF"/>
<path d="M627.229 39.8789C627.23 42.3197 627.342 203.483 627.509 443.502V443.781H627.229C529.455 443.79 417.107 443.802 298.167 443.814H298.132H297.817V443.502C297.836 294.161 297.854 155.296 297.869 39.8789V39.6185H298.132C496.557 39.7757 625.042 39.8777 627.229 39.8789C625.042 39.8801 496.557 39.9821 298.132 40.1393L298.393 39.8789C298.408 155.296 298.426 294.161 298.446 443.502L298.132 443.189H298.167C417.107 443.201 529.455 443.213 627.229 443.224L626.949 443.502C627.114 203.483 627.226 42.3173 627.229 39.8789Z" fill="#312B35"/>
<path d="M765.714 296.954C751.393 304.332 740.411 317.033 732.515 331.017C724.619 345.003 719.531 360.349 714.489 375.584L710.079 454.156C726.742 425.965 740.115 392.824 743.729 360.323C740.033 359.996 736.336 359.667 732.641 359.341C740.076 358.212 746.316 352.854 750.288 346.503C754.257 340.151 756.302 332.826 758.297 325.614L744.768 327.614C755.362 320.582 763.042 309.339 765.714 296.954Z" fill="#69839B"/>
<path d="M765.714 296.954C751.393 304.332 740.411 317.033 732.515 331.017C724.619 345.003 719.531 360.349 714.489 375.584L710.079 454.156C726.742 425.965 740.115 392.824 743.729 360.323C740.033 359.996 736.336 359.667 732.641 359.341C740.076 358.212 746.316 352.854 750.288 346.503C754.257 340.151 756.302 332.826 758.297 325.614L744.768 327.614C755.362 320.582 763.042 309.339 765.714 296.954Z" fill="#DB96AF"/>
<g opacity="0.300003">
<path d="M765.714 296.954C751.393 304.332 740.411 317.033 732.515 331.017C724.619 345.003 719.531 360.349 714.489 375.584L710.079 454.156C726.742 425.965 740.115 392.824 743.729 360.323C740.033 359.996 736.336 359.667 732.641 359.341C740.076 358.212 746.316 352.854 750.288 346.503C754.257 340.151 756.302 332.826 758.297 325.614L744.768 327.614C755.362 320.582 763.042 309.339 765.714 296.954Z" fill="#312B35"/>
</g>
<path d="M707.612 472.567C707.612 472.567 671.443 429.516 671.862 388.42H686.471C686.471 388.42 670.602 378.042 671.859 372.229C673.113 366.418 673.532 344.416 673.532 344.416L686.889 347.737C686.889 347.737 676.87 342.755 675.619 334.868C674.366 326.981 678.54 290.45 678.54 290.45C678.54 290.45 694.82 307.47 699.83 324.905C704.838 342.341 717.987 362.682 714.126 415.817C710.266 468.953 707.612 472.567 707.612 472.567Z" fill="#DB96AF"/>
<path d="M725.948 476.63C725.948 476.63 765.132 450.672 773.838 417.54L762.091 414.361C762.091 414.361 777.133 409.47 777.402 404.525C777.67 399.578 782.176 381.8 782.176 381.8L770.705 381.563C770.705 381.563 779.857 379.737 782.598 373.669C785.341 367.601 790.022 337.322 790.022 337.322C790.022 337.322 773.188 347.463 765.325 360.391C757.462 373.319 742.415 386.811 733.83 430.371C725.244 473.931 725.948 476.63 725.948 476.63Z" fill="#DB96AF"/>
<path d="M688.421 327.985C688.432 327.982 688.474 328.133 688.548 328.432C688.626 328.76 688.73 329.199 688.86 329.758C689.13 330.959 689.513 332.674 690.004 334.867C690.504 337.085 691.085 339.806 691.716 342.971C692.359 346.137 693.108 349.738 693.84 353.737C695.387 361.718 697.02 371.261 698.702 381.879C700.33 392.504 701.959 404.21 703.405 416.53C704.823 428.858 705.925 440.626 706.776 451.343C707.574 462.062 708.174 471.725 708.5 479.848C708.705 483.908 708.802 487.582 708.902 490.809C709.014 494.037 709.071 496.816 709.094 499.089C709.119 501.334 709.139 503.091 709.154 504.322C709.154 504.897 709.154 505.347 709.153 505.684C709.149 505.99 709.142 506.149 709.131 506.149C709.12 506.149 709.107 505.991 709.089 505.685C709.073 505.348 709.053 504.898 709.026 504.325C708.985 503.095 708.925 501.339 708.85 499.095C708.789 496.823 708.697 494.047 708.551 490.821C708.415 487.598 708.289 483.925 708.056 479.869C707.673 471.753 707.028 462.099 706.198 451.388C705.315 440.681 704.198 428.92 702.78 416.602C701.335 404.29 699.725 392.589 698.129 381.965C696.48 371.351 694.893 361.807 693.403 353.817C692.7 349.815 691.981 346.21 691.371 343.04C690.774 339.867 690.227 337.142 689.764 334.916C689.324 332.714 688.98 330.992 688.737 329.783C688.631 329.219 688.548 328.777 688.486 328.445C688.432 328.143 688.41 327.987 688.421 327.985Z" fill="#312B35"/>
<path d="M702.595 498.93C702.595 498.93 669.497 461.583 659.221 439.006L666.979 435.71C661.356 436.633 655.594 434.229 651.234 430.58C646.872 426.93 643.671 422.128 640.531 417.399L650.751 415.681C641.458 413.088 633.269 406.779 628.421 398.479C640.481 400.452 651.392 407.04 660.384 415.273C667.665 421.941 673.83 429.681 679.751 437.59C682.64 441.448 685.168 445.558 687.274 449.889C692.834 461.323 702.615 485.214 702.595 498.93Z" fill="#DB96AF"/>
<path d="M774.358 359.059C774.368 359.064 774.315 359.193 774.203 359.439C774.073 359.712 773.905 360.071 773.691 360.523C773.213 361.505 772.536 362.893 771.672 364.665C769.896 368.248 767.38 373.463 764.336 379.935C761.282 386.401 757.77 394.159 753.996 402.827C750.253 411.508 746.268 421.108 742.304 431.269C738.361 441.443 734.815 451.215 731.711 460.143C728.639 469.083 725.99 477.173 723.875 484C721.749 490.825 720.084 496.366 718.975 500.206C718.416 502.093 717.977 503.573 717.667 504.621C717.519 505.097 717.401 505.475 717.312 505.764C717.227 506.021 717.179 506.151 717.168 506.148C717.159 506.145 717.186 506.009 717.249 505.747C717.324 505.453 717.42 505.071 717.545 504.586C717.827 503.532 718.228 502.041 718.738 500.14C719.777 496.278 721.378 490.716 723.451 483.871C725.512 477.023 728.12 468.913 731.163 459.957C734.24 451.012 737.772 441.227 741.717 431.044C745.684 420.874 749.69 411.274 753.465 402.598C757.271 393.936 760.827 386.191 763.934 379.745C767.031 373.295 769.609 368.107 771.455 364.555C772.362 362.807 773.076 361.435 773.579 360.466C773.815 360.025 774.002 359.677 774.145 359.41C774.276 359.173 774.347 359.055 774.358 359.059Z" fill="#312B35"/>
<path d="M705.403 514.933C705.381 514.935 705.329 514.699 705.249 514.246C705.166 513.724 705.06 513.068 704.93 512.263C704.805 511.401 704.645 510.348 704.417 509.13C704.195 507.912 703.981 506.52 703.649 504.998C703.057 501.94 702.207 498.328 701.125 494.358C700.006 490.396 698.635 486.08 696.961 481.634C695.261 477.195 693.422 473.054 691.629 469.345C689.802 465.652 688.039 462.384 686.451 459.7C685.689 458.34 684.923 457.154 684.281 456.094C683.644 455.031 683.064 454.135 682.585 453.406C682.147 452.715 681.789 452.155 681.506 451.707C681.266 451.315 681.146 451.104 681.166 451.092C681.184 451.078 681.336 451.267 681.61 451.636C681.92 452.065 682.31 452.607 682.789 453.27C683.3 453.98 683.91 454.858 684.577 455.907C685.25 456.951 686.044 458.124 686.833 459.475C688.476 462.138 690.286 465.398 692.149 469.09C693.978 472.801 695.841 476.954 697.549 481.412C699.231 485.88 700.592 490.22 701.684 494.206C702.74 498.202 703.547 501.837 704.085 504.915C704.39 506.448 704.574 507.85 704.764 509.076C704.96 510.301 705.084 511.362 705.173 512.23C705.255 513.044 705.322 513.706 705.375 514.231C705.415 514.689 705.426 514.93 705.403 514.933Z" fill="#312B35"/>
<path d="M749.076 520.843H676.637V506.148H749.076V520.843Z" fill="#312B35"/>
<path d="M683.539 520.844L691.375 570.271H735.148L742.449 520.844H683.539Z" fill="#312B35"/>
<path d="M744.632 520.843C744.632 521.017 730.929 521.156 714.029 521.156C697.122 521.156 683.422 521.017 683.422 520.843C683.422 520.67 697.122 520.531 714.029 520.531C730.929 520.531 744.632 520.67 744.632 520.843Z" fill="#69839B"/>
<path d="M504.747 130.264C504.747 130.264 491.339 134.826 489.681 143.697C487.988 152.752 486.152 164.761 486.152 164.761L506.432 163.628L504.747 130.264Z" fill="#DB96AF"/>
<path d="M516.096 125.937L503.538 130.738L500.92 194.465L499.25 215.733H562.014L554.494 130.264L534.914 126.186L516.096 125.937Z" fill="#DB96AF"/>
<path d="M570.476 161.916C570.476 161.916 567.325 132.06 554.494 130.265L549.091 150.018V161.916H570.476Z" fill="#DB96AF"/>
<path d="M505.525 166.163C505.525 166.163 510.074 163.999 512.211 164.761C514.348 165.522 523.312 169.701 523.312 169.701L506.431 175.256L502.272 170.532L505.525 166.163Z" fill="#FFBF9D"/>
<g opacity="0.300003">
<path d="M560.153 190.685C559.099 188.086 556.652 186.244 554.013 185.262C551.374 184.281 548.523 184.044 545.714 183.818C537.824 183.179 529.935 182.541 522.046 181.902C519.057 181.66 515.976 181.428 513.125 182.352C508.068 183.993 503.761 188.973 500.97 193.476V194.531C503.388 196.314 506.724 196.292 509.645 195.566C512.565 194.841 515.313 193.504 518.256 192.876C523.788 191.698 529.509 193.106 534.99 194.505C540.001 195.784 545.011 197.063 550.021 198.342C552.723 199.034 555.793 199.672 558.141 198.173C560.512 196.66 561.205 193.284 560.153 190.685Z" fill="#312B35"/>
</g>
<path d="M487.762 164.76C487.762 164.76 487.189 186.609 491.915 190.649C496.643 194.689 499.569 194.016 504.747 193.343C509.924 192.67 539.637 177.873 539.637 177.873L536.486 167.304L505.647 172.915L505.481 163.627L487.762 164.76Z" fill="#FFBF9D"/>
<path d="M567.999 161.916C567.999 161.916 569.35 186.384 567.999 189.527C566.649 192.67 561.697 196.037 556.295 195.139C550.891 194.24 521.92 186.388 521.894 186.398C521.867 186.41 531.983 175.834 531.983 175.834L552.918 175.385L551.568 161.916H567.999Z" fill="#FFBF9D"/>
<path d="M551.568 164.76C545.733 160.602 536.486 167.304 536.486 167.304V168.426L538.797 176.002L552.918 175.385C552.918 175.385 555.324 167.439 551.568 164.76Z" fill="#FFBF9D"/>
<path d="M552.461 175.256C552.464 175.327 551.197 175.429 549.053 175.543C546.909 175.657 543.889 175.784 540.382 175.907L540.54 175.856C539.252 176.721 537.836 177.637 536.35 178.556C532.338 181.041 528.567 183.06 525.795 184.428C524.41 185.114 523.272 185.634 522.479 185.982C521.685 186.323 521.237 186.493 521.218 186.455C521.2 186.415 521.613 186.17 522.372 185.762C523.251 185.291 524.326 184.713 525.59 184.035C528.302 182.571 532.024 180.501 536.018 178.025C537.498 177.11 538.911 176.207 540.207 175.359L540.281 175.311L540.365 175.309C543.872 175.227 546.896 175.178 549.041 175.169C551.188 175.158 552.459 175.185 552.461 175.256Z" fill="#DB96AF"/>
<path d="M551.568 161.916C551.654 161.91 551.813 163.102 551.999 165.034C552.186 166.964 552.399 169.636 552.599 172.588C552.655 173.504 552.712 174.392 552.765 175.236L552.646 175.015C554.522 176.454 555.888 178.004 556.739 179.176C557.593 180.35 557.969 181.132 557.914 181.165C557.769 181.28 555.988 178.261 552.278 175.498L552.168 175.416L552.157 175.276C552.098 174.433 552.036 173.545 551.971 172.628C551.773 169.676 551.628 167.002 551.555 165.062C551.484 163.123 551.481 161.922 551.568 161.916Z" fill="#DB96AF"/>
<path d="M526.406 169.138C526.422 169.223 524.858 169.587 522.318 170.106C519.778 170.626 516.261 171.301 512.37 172.011C509.961 172.434 507.697 172.834 505.697 173.187L505.862 173.089C504.417 174.813 503.196 176.244 502.323 177.235C501.451 178.227 500.928 178.777 500.882 178.74C500.835 178.703 501.271 178.081 502.07 177.03C502.869 175.98 504.029 174.499 505.433 172.741L505.494 172.665L505.597 172.645C507.593 172.271 509.854 171.846 512.257 171.395C516.148 170.687 519.678 170.081 522.238 169.672C524.799 169.263 526.389 169.053 526.406 169.138Z" fill="#DB96AF"/>
<path d="M505.479 163.628C505.654 163.625 505.831 165.703 505.877 168.266C505.923 170.831 505.82 172.912 505.648 172.916C505.473 172.919 505.295 170.842 505.25 168.278C505.203 165.713 505.305 163.631 505.479 163.628Z" fill="#DB96AF"/>
<path d="M503.542 146.091C503.716 146.074 504.298 150.553 504.846 156.095C505.394 161.64 505.698 166.146 505.526 166.163C505.353 166.18 504.769 161.7 504.22 156.156C503.673 150.615 503.369 146.107 503.542 146.091Z" fill="#312B35"/>
<path d="M552.632 143.844C552.806 143.852 552.736 148.249 552.478 153.665C552.219 159.082 551.869 163.464 551.696 163.456C551.522 163.447 551.592 159.052 551.85 153.635C552.108 148.219 552.458 143.836 552.632 143.844Z" fill="#312B35"/>
<path d="M552.645 93.1253C551.167 91.5449 549.38 90.0521 548.864 87.9545C548.393 86.0249 549.077 83.8169 548.055 82.1117C546.797 80.0141 543.656 79.8365 542.144 77.9141C541.412 76.9829 541.156 75.7493 540.433 74.8109C539.2 73.2137 536.903 72.8513 534.901 73.1285C532.898 73.4045 530.985 74.1857 528.974 74.3897C526.214 74.6681 523.331 73.8581 520.7 74.7329C517.798 75.6989 516.087 78.3413 514.26 80.9045L511.866 83.8853C511.367 84.3977 510.839 84.8729 510.252 85.2761C509.229 85.9841 508.047 86.4869 507.174 87.3749C505.31 89.2745 505.584 92.8073 507.719 94.3985C505.61 95.1425 504.151 97.4081 504.352 99.6293C504.46 100.851 505.007 101.984 505.412 103.143C505.817 104.301 506.08 105.597 505.625 106.737C505.171 107.877 503.753 108.694 502.662 108.125C503.092 109.701 504.274 111.053 505.782 111.691C505.223 112.3 504.425 112.685 503.599 112.742C506.011 117.923 512.201 120.49 517.928 120.334C523.655 120.179 529.064 117.837 534.307 115.533L549.593 111.035C550.936 110.683 551.447 109.024 551.382 107.639C551.315 106.255 550.917 104.825 551.371 103.516C551.992 101.72 554.029 100.712 554.682 98.9261C555.426 96.8981 554.122 94.7045 552.645 93.1253Z" fill="#312B35"/>
<path d="M516.63 108.34C515.399 104.902 514.182 101.439 513.563 97.8398C512.943 94.2434 512.945 90.4742 514.121 87.0182C514.299 86.4938 515.847 82.9694 516.401 83.0078C516.797 83.0354 515.875 86.309 516.085 86.645C518.082 89.8502 518.712 93.7562 518.515 97.5254C518.319 101.295 517.633 104.7 516.63 108.34Z" fill="#312B35"/>
<path d="M530.197 77.0659L529.347 77.0443C520.173 77.3515 515.308 85.2919 515.869 94.4299L516.096 125.937C516.138 131.637 520.646 136.308 526.356 136.566C532.349 136.836 537.405 132.156 537.582 126.175C537.631 124.519 537.671 123.361 537.677 123.361C537.677 123.361 546.518 122.214 546.846 113.436C547.004 109.195 546.617 100.436 546.175 92.5147C545.701 83.9983 538.746 77.2784 530.197 77.0659Z" fill="#FFBF9D"/>
<path d="M537.677 123.361C537.677 123.361 532.119 123.548 526.296 119.696C526.296 119.696 528.932 126.152 537.739 125.58L537.677 123.361Z" fill="#DB96AF"/>
<path d="M542.399 99.6949C542.406 100.357 541.849 100.91 541.155 100.93C540.462 100.949 539.894 100.43 539.887 99.7669C539.879 99.1045 540.437 98.5513 541.13 98.5309C541.823 98.5117 542.392 99.0325 542.399 99.6949Z" fill="#312B35"/>
<path d="M544.203 96.1119C544.043 96.2715 543.109 95.5443 541.755 95.5143C540.404 95.4651 539.393 96.1347 539.251 95.9655C539.181 95.8911 539.347 95.5995 539.787 95.2959C540.22 94.9947 540.955 94.7091 541.797 94.7331C542.639 94.7583 543.34 95.0859 543.74 95.4123C544.149 95.7411 544.281 96.0399 544.203 96.1119Z" fill="#312B35"/>
<path d="M529.717 99.6948C529.724 100.357 529.167 100.91 528.473 100.93C527.782 100.95 527.212 100.43 527.205 99.7668C527.199 99.1044 527.755 98.5512 528.448 98.5308C529.142 98.5116 529.71 99.0324 529.717 99.6948Z" fill="#312B35"/>
<path d="M530.936 96.3287C530.775 96.4883 529.839 95.7623 528.487 95.7311C527.136 95.6819 526.125 96.3527 525.982 96.1823C525.912 96.1079 526.076 95.8175 526.518 95.5139C526.951 95.2115 527.686 94.9259 528.528 94.9499C529.371 94.9763 530.072 95.3027 530.472 95.6291C530.879 95.9579 531.013 96.2579 530.936 96.3287Z" fill="#312B35"/>
<path d="M535.53 106.818C535.526 106.741 536.37 106.618 537.738 106.477C538.085 106.45 538.414 106.39 538.477 106.156C538.565 105.91 538.43 105.534 538.272 105.129C537.969 104.287 537.65 103.405 537.315 102.48C535.99 98.7085 535.039 95.6113 535.192 95.5597C535.345 95.5081 536.544 98.5213 537.869 102.293C538.187 103.223 538.492 104.109 538.782 104.957C538.903 105.352 539.118 105.802 538.927 106.314C538.828 106.569 538.57 106.75 538.346 106.804C538.123 106.866 537.929 106.865 537.759 106.87C536.384 106.909 535.534 106.895 535.53 106.818Z" fill="#312B35"/>
<path d="M531.525 107.653C531.746 107.645 531.711 109.111 532.943 110.181C534.171 111.255 535.741 111.129 535.748 111.334C535.766 111.427 535.392 111.61 534.731 111.611C534.082 111.619 533.141 111.387 532.388 110.732C531.636 110.075 531.328 109.216 531.293 108.614C531.251 108.001 531.425 107.642 531.525 107.653Z" fill="#312B35"/>
<path d="M530.997 90.8506C530.854 91.2142 529.508 91.0066 527.915 91.1578C526.32 91.2778 525.029 91.7098 524.826 91.375C524.737 91.2154 524.968 90.8758 525.494 90.5338C526.016 90.1918 526.844 89.875 527.799 89.7934C528.755 89.713 529.624 89.8846 530.196 90.1342C530.772 90.3826 531.06 90.6778 530.997 90.8506Z" fill="#312B35"/>
<path d="M543.756 91.6125C543.51 91.9125 542.586 91.5717 541.466 91.5285C540.348 91.4469 539.391 91.6833 539.18 91.3569C539.089 91.1997 539.246 90.8961 539.667 90.6165C540.082 90.3381 540.772 90.1173 541.542 90.1605C542.312 90.2037 542.973 90.4977 543.355 90.8217C543.742 91.1469 543.865 91.4649 543.756 91.6125Z" fill="#312B35"/>
<path d="M516.426 100.949C516.278 100.881 510.419 99.0148 510.463 105.023C510.506 111.03 516.546 109.749 516.554 109.576C516.562 109.404 516.426 100.949 516.426 100.949Z" fill="#FFBF9D"/>
<path d="M514.697 107.314C514.672 107.295 514.594 107.388 514.418 107.47C514.244 107.55 513.947 107.607 513.632 107.491C512.995 107.263 512.452 106.259 512.413 105.177C512.395 104.629 512.507 104.109 512.698 103.675C512.878 103.235 513.161 102.925 513.481 102.867C513.8 102.791 514.028 102.981 514.103 103.15C514.185 103.317 514.147 103.438 514.179 103.447C514.197 103.462 514.308 103.345 514.258 103.098C514.232 102.978 514.161 102.838 514.018 102.723C513.872 102.607 513.66 102.549 513.437 102.574C512.972 102.61 512.557 103.038 512.347 103.513C512.11 103.99 511.973 104.577 511.995 105.19C512.042 106.401 512.67 107.53 513.544 107.775C513.969 107.881 514.321 107.752 514.503 107.609C514.688 107.459 514.719 107.325 514.697 107.314Z" fill="#DB96AF"/>
<path d="M542.121 82.6235C543.087 82.0715 540.111 78.9695 537.698 77.9231C534.052 76.3427 528.506 75.4211 525.182 76.4183C521.18 77.6183 517.872 79.6655 515.912 83.3459C513.951 87.0263 513.261 91.2887 513.444 95.4515C513.5 96.7223 513.653 98.0447 514.351 99.1091C515.215 100.423 516.842 101.234 516.801 103.068C516.786 103.738 516.987 104.411 517.455 104.892C518.575 106.044 519.907 104.924 520.509 103.813C521.796 101.44 521.898 98.6267 521.973 95.9291C522.025 94.0127 522.072 92.0543 521.5 90.2231C521.19 89.2259 520.701 88.2875 520.447 87.2747C520.192 86.2631 520.204 85.1087 520.826 84.2687C520.927 84.1319 521.095 83.9591 521.307 83.7683C522.99 82.2491 525.37 81.7655 527.52 82.4855C530.933 83.6291 536.754 85.3247 538.249 84.1523C540.399 82.4663 540.902 81.3815 540.902 81.3815L542.121 82.6235Z" fill="#312B35"/>
<path d="M525.483 75.5978C528.776 74.441 532.546 74.4398 535.669 75.9938C537.327 76.8182 538.834 78.1538 539.365 79.925C539.893 81.6962 539.168 83.897 537.463 84.6206L537.346 84.6974C534.79 85.5998 533.113 85.283 530.537 84.4394C528.37 83.729 526.431 82.433 524.259 81.7322C521.95 80.9882 519.417 80.9558 517.09 81.6386C519.352 78.9878 522.19 76.7534 525.483 75.5978Z" fill="#312B35"/>
<path d="M234.757 515.055L219.541 539.415C219.541 539.415 239.326 562.977 236.955 567.75L188.403 540.106L210.546 501.183L234.757 515.055Z" fill="#69839B"/>
<path d="M205.731 528.774C204.644 528.494 203.39 529.175 203.065 530.244C202.74 531.312 203.424 532.586 204.507 532.885C205.588 533.183 207.119 532.411 207.322 531.313C207.526 530.215 206.638 528.763 205.517 528.732" fill="#E1E1E1"/>
<g opacity="0.600006">
<path d="M188.403 540.106L190.79 536.269L236.448 564.209C236.448 564.209 238.072 566.375 236.956 567.75L188.403 540.106Z" fill="white"/>
</g>
<path d="M220.468 539.616C220.325 539.848 219.078 539.28 217.476 539.374C215.868 539.426 214.68 540.104 214.516 539.887C214.324 539.717 215.488 538.508 217.431 538.429C219.373 538.332 220.644 539.43 220.468 539.616Z" fill="#312B35"/>
<path d="M224.355 544.611C224.278 544.87 223.021 544.686 221.64 545.225C220.245 545.723 219.421 546.685 219.192 546.541C218.947 546.451 219.578 544.978 221.306 544.339C223.028 543.687 224.479 544.384 224.355 544.611Z" fill="#312B35"/>
<path d="M223.758 552.318C223.514 552.246 223.862 550.88 225.214 549.936C226.56 548.982 227.97 549.108 227.958 549.362C227.981 549.632 226.861 549.916 225.763 550.708C224.647 551.474 224.006 552.43 223.758 552.318Z" fill="#312B35"/>
<path d="M223.317 533.683C223.094 533.841 222.194 532.897 220.801 532.224C219.422 531.523 218.122 531.376 218.115 531.104C218.076 530.856 219.597 530.562 221.226 531.378C222.86 532.179 223.54 533.563 223.317 533.683Z" fill="#312B35"/>
<path d="M232.646 525.061L231.005 553.691C231.005 553.691 259.718 564.966 259.931 570.287L203.998 569.117L204.713 524.402L232.646 525.061Z" fill="#69839B"/>
<path d="M213.76 550.92C212.672 551.192 211.898 552.387 212.126 553.479C212.355 554.573 213.57 555.365 214.663 555.113C215.756 554.859 216.729 553.453 216.379 552.393C216.029 551.333 214.552 550.479 213.552 550.986" fill="#E1E1E1"/>
<g opacity="0.600006">
<path d="M203.997 569.117L204.247 564.612L257.783 567.418C257.783 567.418 260.251 568.547 259.931 570.287L203.997 569.117Z" fill="white"/>
</g>
<path d="M231.918 553.428C231.903 553.7 230.535 553.795 229.173 554.64C227.788 555.45 227.07 556.611 226.821 556.498C226.57 556.441 227.013 554.824 228.679 553.831C230.337 552.822 231.982 553.18 231.918 553.428Z" fill="#312B35"/>
<path d="M237.734 555.964C237.791 556.229 236.598 556.666 235.646 557.795C234.661 558.896 234.4 560.134 234.128 560.117C233.871 560.153 233.716 558.558 234.926 557.177C236.124 555.785 237.734 555.704 237.734 555.964Z" fill="#312B35"/>
<path d="M240.918 563.016C240.669 563.069 240.316 561.703 241.05 560.232C241.773 558.752 243.072 558.192 243.183 558.421C243.333 558.648 242.487 559.429 241.904 560.647C241.293 561.851 241.19 562.994 240.918 563.016Z" fill="#312B35"/>
<path d="M231.564 546.862C231.444 547.106 230.199 546.706 228.653 546.779C227.105 546.818 225.894 547.309 225.756 547.073C225.602 546.874 226.796 545.892 228.618 545.833C230.439 545.76 231.703 546.65 231.564 546.862Z" fill="#312B35"/>
<path d="M280.681 342.307C280.681 342.307 276.926 433.018 274.613 441.45C272.3 449.884 224.945 536.128 224.945 536.128L196.374 522.175L234.266 431.118V343.237L280.681 342.307Z" fill="#312B35"/>
<path d="M207.423 342.307C207.423 342.307 204.426 364.384 205.968 366.684C207.51 368.985 210.208 376.269 210.208 376.269L207.89 447.189L200.957 551.461H234.266L248.557 459.511C248.557 459.511 253.569 451.078 255.496 443.794C257.424 436.51 268.802 364.055 268.802 364.055V336.126L207.423 342.307Z" fill="#312B35"/>
<path d="M272.48 346.184C272.492 346.185 272.474 346.367 272.428 346.723C272.374 347.109 272.301 347.629 272.207 348.293C271.992 349.709 271.686 351.733 271.292 354.322C270.462 359.59 269.271 367.15 267.802 376.477C266.3 385.838 264.516 396.965 262.534 409.319C261.524 415.499 260.525 421.989 259.361 428.709C258.175 435.417 256.698 442.369 254.173 449.186C251.665 455.993 248.081 462.19 246.876 468.898C245.442 475.54 244.442 482.041 243.467 488.219C241.582 500.594 240.066 511.766 238.773 521.145C237.486 530.525 236.441 538.117 235.651 543.355C235.254 545.972 234.936 548.003 234.683 549.375C234.559 550.035 234.461 550.552 234.389 550.935C234.319 551.285 234.277 551.463 234.266 551.461C234.254 551.458 234.272 551.277 234.319 550.922C234.374 550.537 234.449 550.017 234.546 549.353C234.742 547.936 235.024 545.908 235.384 543.315C236.075 538.029 237.065 530.443 238.288 521.08C239.518 511.693 240.983 500.511 242.836 488.123C243.795 481.935 244.781 475.433 246.213 468.752C247.437 461.936 251.049 455.678 253.524 448.947C256.026 442.193 257.5 435.283 258.694 428.591C259.863 421.889 260.878 415.393 261.905 409.219C263.941 396.873 265.774 385.754 267.318 376.4C268.879 367.087 270.145 359.54 271.026 354.28C271.475 351.699 271.825 349.682 272.069 348.271C272.191 347.611 272.287 347.095 272.358 346.711C272.427 346.36 272.468 346.181 272.48 346.184Z" fill="#69839B"/>
<path d="M204.681 495.456C204.729 495.459 204.725 496.24 204.677 497.651C204.631 499.062 204.531 501.102 204.388 503.621C204.102 508.66 203.6 515.613 203.014 523.287C202.429 530.964 201.924 537.912 201.595 542.945C201.435 545.371 201.301 547.38 201.2 548.904C201.099 550.312 201.022 551.089 200.974 551.088C200.927 551.086 200.912 550.306 200.929 548.893C200.943 547.481 201.004 545.44 201.107 542.919C201.311 537.876 201.739 530.914 202.324 523.235C202.935 515.62 203.487 508.729 203.9 503.586C204.106 501.163 204.279 499.158 204.408 497.634C204.538 496.23 204.633 495.454 204.681 495.456Z" fill="#69839B"/>
<path d="M280.33 153.121C278.169 150.808 275.553 148.624 274.8 145.555C274.107 142.732 275.11 139.501 273.615 137.007C271.776 133.937 267.179 133.678 264.967 130.864C263.895 129.501 263.523 127.696 262.464 126.325C260.66 123.987 257.299 123.457 254.369 123.862C251.438 124.268 248.64 125.409 245.696 125.707C241.659 126.116 237.442 124.93 233.592 126.211C229.344 127.624 226.841 131.489 224.168 135.239L220.665 139.601C219.937 140.351 219.162 141.045 218.305 141.638C216.806 142.671 215.077 143.408 213.802 144.706C211.072 147.485 211.473 152.655 214.597 154.983C211.513 156.073 209.379 159.387 209.671 162.637C209.832 164.425 210.631 166.083 211.223 167.777C211.814 169.473 212.199 171.369 211.535 173.037C210.87 174.705 208.795 175.9 207.2 175.069C207.828 177.373 209.559 179.351 211.764 180.284C210.947 181.177 209.778 181.739 208.569 181.821C212.098 189.404 221.156 193.159 229.536 192.932C237.915 192.704 245.829 189.277 253.5 185.906L275.866 179.326C277.831 178.81 278.577 176.381 278.483 174.357C278.387 172.331 277.803 170.24 278.467 168.323C279.376 165.695 282.356 164.221 283.313 161.609C284.4 158.641 282.491 155.432 280.33 153.121Z" fill="#312B35"/>
<path d="M227.636 175.381C225.835 170.352 224.054 165.283 223.148 160.02C222.242 154.757 222.244 149.242 223.965 144.185C224.226 143.418 226.489 138.261 227.3 138.317C227.879 138.357 226.53 143.147 226.837 143.638C229.759 148.33 230.681 154.044 230.395 159.559C230.108 165.075 229.103 170.057 227.636 175.381Z" fill="#312B35"/>
<path d="M247.486 129.623L246.243 129.593C232.819 130.041 225.702 141.66 226.523 155.03L226.855 201.129C226.915 209.469 233.512 216.303 241.867 216.68C250.636 217.074 258.033 210.227 258.292 201.477C258.364 199.054 258.422 197.36 258.431 197.36C258.431 197.36 271.367 195.681 271.846 182.837C272.078 176.633 271.513 163.817 270.865 152.225C270.172 139.768 259.995 129.934 247.486 129.623Z" fill="#FFBF9D"/>
<path d="M258.431 197.359C258.431 197.359 250.298 197.633 241.78 191.998C241.78 191.998 245.433 201.496 258.316 200.658L258.431 197.359Z" fill="#DB96AF"/>
<path d="M267.662 162.733C267.673 163.702 266.857 164.51 265.842 164.54C264.829 164.569 263.996 163.808 263.986 162.838C263.977 161.869 264.791 161.059 265.805 161.03C266.82 161.001 267.652 161.763 267.662 162.733Z" fill="#312B35"/>
<path d="M267.98 157.49C267.745 157.723 266.377 156.66 264.397 156.616C262.42 156.544 260.941 157.524 260.734 157.277C260.63 157.166 260.873 156.74 261.518 156.296C262.151 155.856 263.225 155.437 264.458 155.473C265.692 155.51 266.717 155.988 267.301 156.467C267.899 156.948 268.094 157.386 267.98 157.49Z" fill="#312B35"/>
<path d="M248.622 162.733C248.633 163.702 247.817 164.51 246.802 164.54C245.789 164.569 244.957 163.808 244.947 162.838C244.937 161.869 245.751 161.059 246.765 161.03C247.781 161.001 248.612 161.763 248.622 162.733Z" fill="#312B35"/>
<path d="M248.566 157.807C248.332 158.041 246.961 156.978 244.984 156.934C243.007 156.862 241.528 157.842 241.319 157.595C241.216 157.485 241.458 157.059 242.104 156.616C242.738 156.173 243.812 155.755 245.045 155.79C246.278 155.829 247.304 156.307 247.888 156.784C248.484 157.265 248.681 157.704 248.566 157.807Z" fill="#312B35"/>
<path d="M255.29 173.155C255.283 173.043 256.519 172.861 258.52 172.656C259.027 172.617 259.508 172.529 259.601 172.186C259.73 171.826 259.532 171.276 259.302 170.683C258.856 169.452 258.391 168.161 257.902 166.807C255.962 161.29 254.572 156.759 254.795 156.682C255.018 156.606 256.772 161.017 258.712 166.534C259.177 167.895 259.624 169.192 260.047 170.431C260.224 171.01 260.537 171.667 260.261 172.417C260.115 172.791 259.737 173.056 259.411 173.134C259.084 173.225 258.8 173.223 258.549 173.231C256.54 173.289 255.294 173.267 255.29 173.155Z" fill="#312B35"/>
<path d="M249.429 174.376C249.752 174.365 249.703 176.508 251.503 178.076C253.301 179.648 255.598 179.463 255.608 179.763C255.635 179.898 255.087 180.167 254.119 180.17C253.171 180.178 251.793 179.84 250.69 178.881C249.592 177.921 249.14 176.664 249.089 175.782C249.029 174.885 249.282 174.36 249.429 174.376Z" fill="#312B35"/>
<path d="M248.657 149.793C248.448 150.325 246.478 150.021 244.149 150.243C241.814 150.418 239.924 151.049 239.629 150.561C239.496 150.327 239.835 149.83 240.606 149.329C241.369 148.828 242.579 148.365 243.977 148.245C245.376 148.127 246.647 148.379 247.484 148.744C248.329 149.108 248.747 149.541 248.657 149.793Z" fill="#312B35"/>
<path d="M267.325 150.907C266.965 151.346 265.614 150.847 263.974 150.784C262.337 150.664 260.938 151.011 260.63 150.534C260.495 150.303 260.724 149.858 261.342 149.45C261.95 149.041 262.96 148.72 264.086 148.782C265.212 148.846 266.179 149.277 266.737 149.75C267.306 150.225 267.484 150.692 267.325 150.907Z" fill="#312B35"/>
<path d="M227.338 164.568C227.12 164.469 218.551 161.738 218.612 170.529C218.675 179.319 227.511 177.443 227.525 177.191C227.539 176.939 227.338 164.568 227.338 164.568Z" fill="#FFBF9D"/>
<path d="M224.809 173.88C224.77 173.852 224.656 173.988 224.397 174.108C224.145 174.226 223.711 174.308 223.25 174.14C222.316 173.806 221.521 172.337 221.467 170.753C221.44 169.954 221.603 169.191 221.881 168.557C222.146 167.913 222.561 167.46 223.029 167.374C223.495 167.263 223.829 167.541 223.938 167.787C224.057 168.031 224.003 168.208 224.05 168.223C224.075 168.245 224.238 168.075 224.164 167.712C224.127 167.537 224.022 167.331 223.813 167.163C223.601 166.993 223.29 166.908 222.963 166.945C222.283 166.997 221.676 167.626 221.369 168.319C221.023 169.018 220.822 169.876 220.853 170.773C220.922 172.544 221.843 174.196 223.121 174.554C223.742 174.71 224.257 174.521 224.523 174.311C224.794 174.092 224.839 173.896 224.809 173.88Z" fill="#DB96AF"/>
<path d="M264.932 137.755C266.345 136.947 261.991 132.408 258.461 130.878C253.125 128.564 245.011 127.216 240.147 128.676C234.292 130.431 229.454 133.426 226.585 138.812C223.717 144.196 222.706 150.434 222.975 156.525C223.057 158.384 223.28 160.32 224.302 161.876C225.565 163.8 227.945 164.986 227.885 167.668C227.862 168.649 228.158 169.633 228.843 170.337C230.483 172.023 232.429 170.384 233.311 168.758C235.194 165.284 235.345 161.17 235.452 157.224C235.529 154.419 235.597 151.554 234.762 148.874C234.308 147.415 233.593 146.042 233.22 144.56C232.847 143.079 232.865 141.392 233.775 140.162C233.922 139.963 234.167 139.71 234.479 139.429C236.94 137.208 240.424 136.5 243.571 137.554C248.562 139.226 257.079 141.708 259.267 139.993C262.414 137.526 263.15 135.938 263.15 135.938L264.932 137.755Z" fill="#312B35"/>
<path d="M240.589 127.475C245.407 125.783 250.922 125.781 255.493 128.054C257.919 129.261 260.124 131.216 260.9 133.806C261.674 136.398 260.611 139.618 258.117 140.676L257.946 140.788C254.206 142.11 251.753 141.646 247.984 140.411C244.812 139.372 241.974 137.475 238.798 136.451C235.42 135.363 231.714 135.314 228.309 136.313C231.619 132.435 235.772 129.167 240.589 127.475Z" fill="#312B35"/>
<path d="M208.595 273.683C208.075 284.509 205.03 346.108 205.03 346.108C205.03 346.108 225.468 353.536 249.081 350.653C272.695 347.768 282.705 352.257 282.705 352.257L275.742 244.741L258.06 203.74C258.06 203.74 233.386 200.402 226.855 201.129C226.855 201.129 221.486 204.571 220.195 206.033C213.567 213.535 209.06 229.537 208.809 242.878L208.595 273.683Z" fill="#DB96AF"/>
<g opacity="0.300003">
<path d="M245.957 248.194C239.423 242.627 230.568 245.069 226.101 237.757C231.016 250.129 237.09 262.046 244.218 273.305C244.675 274.025 245.184 274.786 245.978 275.106C247.71 275.807 249.364 274.108 250.939 273.106C253.86 271.247 257.774 271.733 260.889 273.247C264.006 274.762 266.581 277.159 269.376 279.202C272.17 281.244 275.42 283.001 278.887 282.893C269.184 270.212 258.125 258.56 245.957 248.194Z" fill="#312B35"/>
</g>
<path d="M272.403 241.69L288.998 256.851L306.942 216.248L322.108 221.303C322.108 221.303 305.814 281.35 301.585 285.94C295.807 292.208 286.278 291.359 281.297 286.957C275.576 281.899 254.193 260.917 254.193 260.917L272.403 241.69Z" fill="#FFBF9D"/>
<path d="M288.991 266.777C288.824 266.793 288.48 264.508 288.517 261.667C288.548 258.826 288.948 256.551 289.114 256.571C289.293 256.59 289.176 258.869 289.146 261.676C289.108 264.48 289.17 266.761 288.991 266.777Z" fill="#DB96AF"/>
<path d="M305.988 220.245L309.149 199.962C309.255 199.281 309.615 198.666 310.157 198.237L311.509 197.168C311.509 197.168 311.344 196.897 313.757 193.76C316.172 190.622 319.609 190.664 320.466 192.458C320.466 192.458 324.973 190.136 325.956 193.356C326.531 195.243 324.797 197.845 324.797 197.845C324.797 197.845 328.971 199.169 327.332 204.291C327.332 204.291 329.582 204.24 327.5 209.843C326.614 212.226 320.372 224.696 320.372 224.696L305.988 220.245Z" fill="#FFBF9D"/>
<path d="M294.425 204.663C294.705 205.547 295.692 205.997 296.55 205.633L317.511 196.703L320.274 192.577L295.331 202.741C294.572 203.05 294.179 203.885 294.425 204.663Z" fill="#312B35"/>
<path d="M325.72 196.198C325.85 196.277 325.174 197.861 324.087 199.724C323.008 201.611 321.615 202.795 321.496 202.648C321.391 202.525 322.494 201.244 323.548 199.404C324.613 197.579 325.554 196.098 325.72 196.198Z" fill="#DB96AF"/>
<path d="M314.746 200.981C314.601 200.885 315.789 198.881 317.396 196.506C319.004 194.13 320.425 192.282 320.568 192.379C320.712 192.475 319.526 194.478 317.917 196.854C316.31 199.23 314.89 201.078 314.746 200.981Z" fill="#DB96AF"/>
<path d="M325.73 206.603C325.604 206.477 326.027 205.871 326.477 205.109C326.935 204.35 327.266 203.691 327.438 203.74C327.601 203.782 327.521 204.588 327.017 205.428C326.519 206.268 325.844 206.727 325.73 206.603Z" fill="#DB96AF"/>
<path d="M274.467 239.69L247.498 267.926C237.651 258.58 228.693 243.668 224.088 231.235C222.615 227.257 222.068 221.24 223.204 217.147C224.348 213.019 225.601 211.841 228.488 209.428C228.488 209.428 237.184 202.515 249.276 213.189C256.624 219.674 274.467 239.69 274.467 239.69Z" fill="#DB96AF"/>
<path d="M274.467 239.69C274.455 239.685 274.35 239.591 274.156 239.391C273.939 239.162 273.654 238.858 273.292 238.474C272.515 237.634 271.412 236.442 270.004 234.921C267.146 231.838 263.025 227.361 257.813 221.945C255.197 219.252 252.334 216.284 249.055 213.344C247.36 211.959 245.575 210.525 243.471 209.51C241.403 208.457 239.086 207.687 236.64 207.558C234.21 207.41 231.653 207.909 229.441 209.166C227.404 210.59 225.277 212.397 224.313 214.844C223.806 216.06 223.417 217.366 223.186 218.685C222.958 220.013 222.894 221.384 222.917 222.759C222.982 225.508 223.397 228.318 224.331 230.976C227.151 238.539 230.835 245.488 234.802 251.694C238.79 257.891 243.123 263.362 247.682 267.735L247.306 267.743C255.422 259.325 262.172 252.326 266.92 247.401C269.286 244.966 271.152 243.046 272.455 241.706C273.083 241.068 273.572 240.569 273.932 240.204C274.271 239.865 274.467 239.69 274.467 239.69C274.481 239.69 274.327 239.866 274.014 240.207C273.675 240.574 273.21 241.076 272.617 241.716C271.346 243.07 269.528 245.009 267.222 247.466C262.493 252.464 255.773 259.566 247.692 268.108L247.508 268.301L247.314 268.118C242.694 263.728 238.317 258.239 234.294 252.017C230.292 245.784 226.582 238.815 223.74 231.188C222.775 228.44 222.358 225.585 222.292 222.771C222.27 221.363 222.335 219.959 222.574 218.582C222.82 217.198 223.213 215.878 223.746 214.605C224.273 213.329 225.073 212.153 226.039 211.202C226.516 210.719 227.02 210.28 227.522 209.849L228.28 209.211C228.569 208.986 228.847 208.822 229.141 208.649C231.477 207.33 234.141 206.823 236.673 206.984C239.217 207.125 241.608 207.933 243.723 209.02C245.878 210.072 247.686 211.54 249.4 212.955C252.692 215.939 255.534 218.924 258.136 221.64C263.311 227.1 267.381 231.624 270.185 234.758C271.556 236.313 272.63 237.532 273.387 238.39C273.729 238.792 274 239.109 274.205 239.349C274.391 239.571 274.479 239.694 274.467 239.69Z" fill="#312B35"/>
</svg>
