<svg width="61" height="61" viewBox="0 0 61 61" fill="none" xmlns="http://www.w3.org/2000/svg">
<rect x="1.75" y="1.75" width="58" height="58" rx="9" stroke="#312B35" stroke-width="2" stroke-linejoin="round"/>
<path d="M13.25 53.25V39.75H20V53.25H13.25ZM24.5 53.25V26.475C22.625 27.1125 21.4062 28.284 20.8438 29.9895C20.2812 31.6965 20 33.45 20 35.25H15.5C15.5 30.45 16.9062 26.625 19.7188 23.775C22.5312 20.925 26.375 19.5 31.25 19.5C35 19.5 37.8125 18.5715 39.6875 16.7145C41.5625 14.859 42.5 12.0375 42.5 8.25H47C47 11.55 46.2965 14.5035 44.8895 17.1105C43.484 19.716 41.1875 21.5625 38 22.65V53.25H33.5V39.75H29V53.25H24.5ZM31.25 17.25C30.0125 17.25 28.9535 16.809 28.073 15.927C27.191 15.0465 26.75 13.9875 26.75 12.75C26.75 11.5125 27.191 10.4527 28.073 9.57075C28.9535 8.69025 30.0125 8.25 31.25 8.25C32.4875 8.25 33.5473 8.69025 34.4293 9.57075C35.3097 10.4527 35.75 11.5125 35.75 12.75C35.75 13.9875 35.3097 15.0465 34.4293 15.927C33.5473 16.809 32.4875 17.25 31.25 17.25Z" fill="#312B35"/>
</svg>
