<svg width="846" height="533" viewBox="0 0 846 533" fill="none" xmlns="http://www.w3.org/2000/svg">
<path d="M833.395 343.968L827.244 333.191C829.965 328.799 831.538 323.629 831.538 318.094C831.538 302.172 818.559 289.266 802.55 289.266C786.54 289.266 773.562 302.172 773.562 318.094C773.562 334.014 786.54 346.921 802.55 346.921C809.235 346.921 815.386 344.665 820.29 340.885L820.281 340.897L833.395 343.968Z" fill="#ECECEC"/>
<path d="M199.023 23.7175C203.154 21.9943 206.091 17.7595 206.115 12.7675C206.141 6.23113 201.166 0.907926 195.001 0.879126C188.839 0.850326 183.819 6.12793 183.791 12.6655C183.771 17.7031 186.73 21.9895 190.904 23.7175C173.728 26.2915 174.507 44.8555 174.507 44.8555L215.124 45.0427C215.124 45.0427 216.049 26.2747 199.023 23.7175" fill="#ECECEC"/>
<path d="M71.7193 415.129C66.2773 411.731 60.0436 409.597 53.6519 408.944C50.7004 408.643 47.4738 408.728 45.1051 410.507C44.6031 410.885 44.1132 411.443 44.2254 412.058C44.3087 412.512 44.6936 412.842 45.0616 413.12C52.4127 418.698 63.5321 419.402 71.7193 415.129Z" fill="#E1E1E1"/>
<path d="M71.2556 414.62C67.165 411.445 63.0515 408.25 59.586 404.41C56.1216 400.57 53.3053 396.01 52.2699 390.954C51.9562 389.42 51.8585 387.668 52.8491 386.452C62.1501 393.677 69.4565 403.02 71.2556 414.62Z" fill="#E1E1E1"/>
<path d="M71.6228 415.059C70.9217 409.998 70.6707 404.796 71.8388 399.823C73.0068 394.848 75.7279 390.087 79.9995 387.25C81.6079 390.985 80.9165 395.29 79.7847 399.195C78.0338 405.229 75.2898 410.977 71.6928 416.137" fill="#E1E1E1"/>
<path d="M80.7416 431.308C75.2067 431.978 70.3848 434.879 66.252 438.6C62.1192 442.323 59.1809 447.338 57.9646 452.75C63.3946 452.416 67.9992 448.608 71.3405 444.338C74.6818 440.069 76.9961 435.384 80.6656 431.391" fill="#E1E1E1"/>
<path d="M82.7219 433.907C78.2632 422.985 79.879 409.825 86.8475 400.289C90.0017 411.445 88.8445 424.047 82.7219 433.907Z" fill="#E1E1E1"/>
<path d="M94.7704 448.174C89.747 447.863 84.6392 449.053 80.2771 451.55C75.915 454.048 72.3155 457.842 70.0614 462.318C69.7562 462.926 69.4859 463.699 69.8961 464.245C70.2521 464.718 70.9399 464.762 71.5336 464.724C76.4037 464.41 80.7187 461.497 84.2808 458.179C87.8417 454.861 90.944 451.028 94.879 448.159" fill="#E1E1E1"/>
<path d="M94.3855 447.396C91.7948 439.15 91.6331 430.166 93.927 421.833C94.832 418.542 96.3524 415.077 99.4125 413.535C99.6731 413.403 99.9772 413.285 100.251 413.388C100.512 413.486 100.661 413.751 100.782 413.999C101.87 416.261 102.188 418.828 102.076 421.334C101.963 423.838 101.441 426.305 100.92 428.758C99.9567 433.295 99.4426 438.172 96.9412 442.085C96.3463 443.015 95.8239 444.018 95.3496 445.013C94.8754 446.008 94.8718 446.358 94.4374 447.149" fill="#E1E1E1"/>
<path d="M126.278 452.122C123.915 443.184 126.423 432.348 132.086 425.021C132.503 424.482 133.057 423.902 133.738 423.966C134.78 424.062 135.052 425.444 135.005 426.485C134.596 435.618 131.532 444.619 126.278 452.122Z" fill="#E1E1E1"/>
<path d="M129.153 454.076C140.072 456.902 152.6 454.155 161.681 447.498C156.3 444.785 149.955 444.009 144.072 445.349C138.19 446.687 132.814 449.306 129.153 454.076Z" fill="#E1E1E1"/>
<path d="M131.578 448.125C137.693 438.21 149.418 431.738 161.1 431.149C159.755 435.873 155.85 439.547 151.444 441.765C147.039 443.984 142.12 444.95 137.273 445.887C135.387 446.251 132.8 446.651 131.578 448.125Z" fill="#E1E1E1"/>
<path d="M126.885 419.247C128.542 413.605 130.206 407.914 130.661 402.053C131.116 396.193 130.276 390.075 127.217 385.046C121.506 396.038 120.927 408.881 126.714 419.836" fill="#E1E1E1"/>
<path d="M146.118 409.58C152.799 397.506 166.429 387.86 180.22 386.509C174.899 399.682 160.39 409.862 146.118 409.58Z" fill="#E1E1E1"/>
<path d="M141.915 411.946C151.879 413.456 160.366 419.783 169.677 423.62C171.668 424.439 173.816 425.093 175.953 424.815C178.09 424.535 180.199 423.111 180.678 421.021C181.075 419.285 180.281 417.443 179.029 416.171C177.777 414.901 176.123 414.106 174.47 413.421C164.329 409.222 153.455 409.119 142.773 411.665" fill="#E1E1E1"/>
<path d="M136.15 418.895C138.405 419.537 139.176 420.699 140.962 422.212C147.022 427.345 154.29 431.057 162.015 432.967C162.818 433.166 163.874 433.244 164.272 432.521C164.62 431.89 164.18 431.126 163.727 430.564C160.491 426.537 155.875 423.782 151.016 421.983C146.158 420.183 141.949 418.016 136.15 418.48" fill="#E1E1E1"/>
<path d="M129.644 376.925C137.746 384.445 149.157 388.305 160.188 387.259C160.69 387.212 161.238 387.133 161.58 386.763C162.348 385.932 161.425 384.648 160.53 383.953C151.55 376.991 140.672 374.103 129.644 376.925Z" fill="#E1E1E1"/>
<path d="M137.358 374.117C148.067 366.133 162.752 363.724 175.472 367.862C170.673 372.568 164.013 375.098 157.31 375.792C150.607 376.487 143.894 375.748 137.358 374.117Z" fill="#E1E1E1"/>
<path d="M134.292 354.831C133.41 345.916 133.982 338.881 133.361 329.924C133.311 329.209 133.156 328.348 132.482 328.09C131.546 327.732 130.764 328.876 130.457 329.828C127.788 338.084 129.247 347.552 134.279 354.634" fill="#E1E1E1"/>
<path d="M133.647 355.816C139.723 352.08 144.28 347.2 148.495 341.465C151.427 337.474 153.9 332.693 153.234 327.794C149.115 327.713 145.202 329.972 142.523 333.085C139.844 336.196 138.252 340.087 137.063 344.009C135.874 347.932 135.042 351.961 133.647 355.816Z" fill="#E1E1E1"/>
<path d="M148.235 351.786C161.569 346.882 174.008 339.588 184.776 330.358C180.411 328.61 175.413 329.656 171.049 331.408C161.08 335.41 152.935 342.165 148.044 351.688" fill="#E1E1E1"/>
<path d="M137.749 360.693C144.494 361.425 151.347 361.904 158.039 360.791C164.618 359.698 170.833 357.105 176.981 354.531C177.49 354.319 178.044 354.063 178.268 353.56C178.51 353.014 178.251 352.349 177.807 351.949C177.361 351.548 176.769 351.357 176.191 351.195C169.508 349.336 162.296 350.207 155.721 352.412C149.146 354.617 143.754 357.236 137.749 360.693Z" fill="#E1E1E1"/>
<path d="M99.2317 377.229C94.6294 367.992 94.9287 357.21 98.9046 347.689C101.703 351.93 102.044 357.33 101.533 362.377C101.021 367.423 99.4766 372.617 99.3765 377.689" fill="#E1E1E1"/>
<path d="M80.8471 368.008C69.3572 367.79 57.8625 372.659 50.0602 381.051C55.7955 381.946 61.7021 380.476 66.9185 377.942C72.1349 375.41 76.771 371.855 81.3647 368.327" fill="#E1E1E1"/>
<path d="M68.4864 363.897C62.8657 363.443 57.4562 362.752 52.0516 364.398C46.6469 366.046 41.7285 369.784 39.5264 374.962C44.7826 375.55 50.1137 374.24 54.9331 372.068C59.7525 369.896 64.1339 366.888 68.4864 363.897Z" fill="#E1E1E1"/>
<path d="M86.7873 364.086C81.7314 360.79 76.5379 357.435 70.6506 356.07C64.762 354.705 57.9395 355.713 53.8333 360.127C58.5996 362.908 64.3819 363.237 69.9085 363.232C75.435 363.228 82.2092 363.165 87.4184 365" fill="#E1E1E1"/>
<path d="M86.818 364.35C78.1722 355.908 74.8949 340.743 78.3738 329.201C85.1685 339.47 88.2117 352.137 86.818 364.35Z" fill="#E1E1E1"/>
<path d="M110.589 340.431C112.22 336.661 113.366 332.706 114.83 328.868C116.292 325.032 118.109 321.256 120.874 318.208C123.637 315.163 127.46 312.895 131.581 312.691C129.001 324.307 121.243 334.687 110.801 340.491" fill="#E1E1E1"/>
<path d="M106.288 345.415C103.59 341.722 100.472 336.708 96.8131 333.952C93.1545 331.195 88.3893 329.527 83.9247 330.586C88.4654 338.659 97.0472 344.35 106.288 345.415Z" fill="#E1E1E1"/>
<path d="M107.148 340.738C105.38 336.268 103.598 331.754 102.884 327.004C102.168 322.255 102.603 317.18 105.045 313.038C109.791 321.958 111.32 331.534 107.391 340.839" fill="#E1E1E1"/>
<path d="M110.633 313.038C113.32 304.194 121.464 297.682 130.255 294.694C131.363 294.318 132.537 294.004 133.695 294.182C134.852 294.36 135.988 295.147 136.23 296.287C136.551 297.79 135.301 299.139 134.126 300.139C127.28 305.96 119.233 310.377 110.633 313.038Z" fill="#E1E1E1"/>
<path d="M110.73 305.805C111.073 300.103 111.43 294.319 113.294 288.916C115.159 283.513 118.753 278.445 123.981 276.081C124.872 281.839 122.316 287.569 119.236 292.525C116.155 297.48 112.44 302.158 110.59 307.685" fill="#E1E1E1"/>
<path d="M110.59 309.73C108.368 303.285 108.138 295.099 104.257 289.484C101.544 285.559 97.2004 282.885 94.8631 278.728C93.3101 282.61 93.7855 287.084 95.4097 290.938C97.0338 294.792 99.7175 298.108 102.589 301.159C105.461 304.209 107.919 306.504 110.59 309.73Z" fill="#E1E1E1"/>
<path d="M110.633 499.53C110.459 499.531 110.31 456.536 110.299 403.512C110.287 350.469 110.417 307.484 110.59 307.484C110.762 307.484 110.912 350.469 110.924 403.512C110.935 456.536 110.806 499.53 110.633 499.53Z" fill="#E1E1E1"/>
<path d="M148.413 370.742C148.425 370.783 147.846 370.997 146.788 371.349C145.62 371.74 144.118 372.244 142.315 372.85C138.543 374.127 133.361 375.977 127.737 378.269C122.168 380.645 116.917 382.574 113.927 385.151C112.433 386.422 111.575 387.799 111.153 388.802C110.723 389.812 110.646 390.429 110.589 390.417C110.567 390.415 110.575 390.261 110.607 389.967C110.657 389.677 110.732 389.245 110.926 388.714C111.29 387.653 112.124 386.182 113.634 384.821C115.137 383.459 117.228 382.234 119.626 381.119C122.022 380.008 124.679 378.848 127.501 377.695C133.142 375.395 138.363 373.605 142.177 372.431C144.084 371.84 145.639 371.405 146.718 371.116C147.799 370.837 148.401 370.701 148.413 370.742Z" fill="#E1E1E1"/>
<path d="M160.797 340.491C160.811 340.508 160.655 340.673 160.342 340.975C159.973 341.318 159.516 341.747 158.954 342.271C157.666 343.435 155.912 345.019 153.775 346.949C149.304 350.909 143.239 356.279 136.538 362.213C129.809 368.169 123.994 373.862 119.963 378.147C117.946 380.287 116.357 382.06 115.272 383.297C114.767 383.871 114.352 384.341 114.021 384.719C113.73 385.042 113.569 385.205 113.552 385.191C113.535 385.178 113.663 384.988 113.923 384.64C114.185 384.295 114.565 383.78 115.086 383.141C116.115 381.854 117.657 380.032 119.639 377.848C123.597 373.475 129.379 367.717 136.122 361.75C142.873 355.808 149.018 350.468 153.482 346.619C155.675 344.751 157.473 343.216 158.793 342.089C159.385 341.601 159.869 341.201 160.259 340.881C160.598 340.61 160.783 340.475 160.797 340.491Z" fill="#E1E1E1"/>
<path d="M129.274 368.27C129.098 368.192 130.504 364.964 131.903 360.882C133.318 356.801 133.982 353.356 134.161 353.386C134.325 353.401 133.927 356.946 132.496 361.081C131.791 363.145 131.014 364.96 130.402 366.248C129.79 367.537 129.35 368.304 129.274 368.27Z" fill="#E1E1E1"/>
<path d="M110.672 394.293C110.637 394.318 110.27 393.891 109.635 393.096C108.932 392.199 108.041 391.064 106.978 389.709C104.747 386.84 101.663 382.881 98.2059 378.549C94.7464 374.216 91.5681 370.328 89.2657 367.518C88.181 366.18 87.2711 365.061 86.552 364.174C85.9172 363.38 85.583 362.928 85.6156 362.9C85.6482 362.871 86.0452 363.271 86.7366 364.018C87.4292 364.765 88.409 365.863 89.6048 367.234C91.9952 369.975 95.2315 373.824 98.6946 378.163C102.157 382.501 105.19 386.508 107.332 389.445C108.405 390.914 109.258 392.113 109.831 392.953C110.405 393.792 110.707 394.268 110.672 394.293Z" fill="#E1E1E1"/>
<path d="M102.389 383.717C102.287 383.826 100.075 381.219 98.9181 377.256C98.0638 374.464 98.0252 371.909 98.1314 370.741L98.4065 370.764C98.2834 371.262 98.1929 371.525 98.1435 371.517C98.094 371.508 98.0916 371.232 98.1326 370.72L98.4089 370.741C98.5103 371.901 98.6865 374.367 99.5167 377.08C100.635 380.919 102.556 383.611 102.389 383.717Z" fill="#E1E1E1"/>
<path d="M91.6936 370.339C91.614 370.424 90.902 369.532 89.2706 368.938C87.6525 368.315 85.2162 368.179 82.5434 368.407C79.8683 368.602 77.4791 369.075 75.7692 369.494C74.0594 369.914 73.0144 370.246 72.9818 370.16C72.9529 370.085 73.9484 369.607 75.651 369.07C77.3499 368.539 79.7729 367.985 82.4964 367.786C85.1993 367.555 87.7635 367.762 89.4359 368.531C91.1325 369.278 91.7491 370.323 91.6936 370.339Z" fill="#E1E1E1"/>
<path d="M89.1589 367.096C89.1106 367.192 87.7471 366.533 85.446 365.752C83.1497 364.966 79.8784 364.142 76.1848 363.856C72.4888 363.581 69.1294 363.903 66.739 364.333C64.3462 364.76 62.8982 365.205 62.8656 365.103C62.8523 365.062 63.2023 364.916 63.849 364.685C64.4946 364.447 65.4527 364.173 66.6533 363.903C69.0498 363.356 72.4695 362.957 76.2318 363.236C79.993 363.526 83.3114 364.437 85.598 365.338C86.7431 365.787 87.6493 366.202 88.249 366.535C88.8548 366.861 89.1782 367.058 89.1589 367.096Z" fill="#E1E1E1"/>
<path d="M110.59 353.385C110.422 353.427 109.209 349.24 107.882 344.034C106.554 338.824 105.613 334.57 105.781 334.528C105.947 334.486 107.16 338.672 108.488 343.88C109.815 349.087 110.757 353.343 110.59 353.385Z" fill="#E1E1E1"/>
<path d="M110.762 353.385C110.576 353.445 109.796 350.648 107.761 347.786C105.78 344.864 103.252 343.399 103.345 343.254C103.378 343.189 104.075 343.443 105.049 344.127C106.025 344.804 107.232 345.949 108.272 347.43C110.385 350.407 110.912 353.374 110.762 353.385Z" fill="#E1E1E1"/>
<path d="M110.633 476.611C110.566 476.621 110.438 475.578 109.952 473.752C109.47 471.926 108.563 469.337 107.063 466.308C104.075 460.237 98.6402 452.54 91.7333 444.833C88.3111 440.944 84.9916 437.275 82.174 433.763C79.3504 430.256 77.03 426.914 75.3371 423.958C73.6381 421.003 72.5316 418.469 71.886 416.682C71.5686 415.784 71.3358 415.085 71.2079 414.6C71.0715 414.119 71.01 413.864 71.0305 413.857C71.086 413.839 71.4009 414.841 72.1129 416.593C72.8248 418.345 73.9832 420.833 75.7184 423.736C77.4487 426.641 79.7885 429.935 82.6217 433.404C85.4501 436.88 88.7757 440.528 92.2051 444.424C99.1289 452.152 104.552 459.946 107.46 466.117C108.923 469.195 109.775 471.835 110.187 473.693C110.387 474.625 110.522 475.35 110.569 475.849C110.632 476.346 110.655 476.608 110.633 476.611Z" fill="#E1E1E1"/>
<path d="M144.773 438.263C144.793 438.309 144.14 438.637 142.983 439.261C141.836 439.902 140.208 440.89 138.342 442.313C136.477 443.734 134.391 445.597 132.248 447.84C130.108 450.088 127.905 452.698 125.656 455.495C121.159 461.105 116.953 466.071 114.435 470.034C113.157 471.999 112.227 473.657 111.617 474.82C111.004 475.98 110.678 476.632 110.633 476.611C110.613 476.602 110.671 476.429 110.799 476.106C110.932 475.787 111.113 475.306 111.4 474.712C111.944 473.512 112.821 471.81 114.062 469.799C116.507 465.739 120.679 460.708 125.168 455.106C127.422 452.304 129.652 449.688 131.831 447.444C134.015 445.205 136.157 443.351 138.078 441.96C139.998 440.568 141.68 439.627 142.871 439.047C143.464 438.751 143.947 438.57 144.267 438.433C144.591 438.301 144.764 438.243 144.773 438.263Z" fill="#E1E1E1"/>
<path d="M145.441 450.703C145.448 450.793 143.996 450.969 141.659 451.249C139.33 451.549 136.087 451.936 132.69 453.006C129.305 454.103 126.491 455.773 124.658 457.198C122.807 458.62 121.935 459.797 121.849 459.729C121.819 459.707 122 459.385 122.409 458.863C122.813 458.335 123.476 457.631 124.38 456.857C126.184 455.311 129.024 453.54 132.498 452.415C135.978 451.32 139.265 451.002 141.616 450.813C143.974 450.642 145.434 450.623 145.441 450.703Z" fill="#E1E1E1"/>
<path d="M122.953 458.362C122.755 458.25 124.46 455.662 125.782 452.179C127.023 448.666 127.313 445.584 127.535 445.62C127.616 445.63 127.613 446.4 127.473 447.637C127.325 448.871 127.026 450.586 126.369 452.391C125.709 454.194 124.842 455.701 124.177 456.751C123.502 457.799 123.023 458.405 122.953 458.362Z" fill="#E1E1E1"/>
<path d="M155.83 404.863C155.837 404.884 155.628 404.993 155.225 405.184C154.754 405.395 154.168 405.661 153.446 405.988C152.668 406.319 151.723 406.739 150.659 407.298C149.591 407.846 148.343 408.41 147.046 409.187C146.386 409.559 145.698 409.948 144.983 410.353C144.267 410.762 143.559 411.247 142.806 411.716C141.286 412.634 139.762 413.765 138.135 414.918C134.953 417.319 131.607 420.163 128.385 423.445C125.195 426.761 122.451 430.184 120.146 433.43C119.042 435.086 117.958 436.638 117.088 438.182C116.643 438.947 116.18 439.667 115.792 440.392C115.41 441.116 115.043 441.815 114.691 442.483C113.956 443.798 113.431 445.057 112.917 446.138C112.392 447.215 112.001 448.169 111.694 448.954C111.392 449.681 111.144 450.274 110.948 450.746C110.77 451.156 110.668 451.367 110.647 451.36C110.627 451.352 110.689 451.128 110.829 450.706C110.998 450.22 111.208 449.611 111.468 448.866C111.74 448.066 112.1 447.094 112.596 445.999C113.082 444.9 113.582 443.622 114.296 442.285C114.639 441.607 114.996 440.899 115.369 440.164C115.746 439.428 116.203 438.696 116.642 437.922C117.499 436.356 118.574 434.783 119.672 433.104C121.968 429.817 124.72 426.355 127.936 423.014C131.183 419.705 134.568 416.851 137.792 414.457C139.441 413.308 140.985 412.187 142.53 411.282C143.293 410.819 144.013 410.34 144.738 409.939C145.465 409.544 146.164 409.164 146.834 408.8C148.153 408.046 149.42 407.506 150.508 406.985C151.593 406.453 152.556 406.063 153.351 405.764C154.092 405.482 154.696 405.251 155.178 405.067C155.598 404.915 155.822 404.843 155.83 404.863Z" fill="#E1E1E1"/>
<path d="M128.81 422.867C128.755 422.858 129.056 421.814 130.295 420.667C131.505 419.521 133.712 418.459 136.281 418.384C138.843 418.315 141.065 419.028 142.581 419.606C144.107 420.202 144.994 420.685 144.963 420.757C144.927 420.844 143.978 420.503 142.435 420.022C140.901 419.554 138.73 418.938 136.302 419.004C133.884 419.078 131.795 420.004 130.584 421C129.345 421.992 128.91 422.928 128.81 422.867Z" fill="#E1E1E1"/>
<path d="M124.771 427.011C124.6 426.916 126.124 424.693 126.47 421.511C126.87 418.333 125.901 415.823 126.09 415.77C126.158 415.741 126.498 416.326 126.793 417.372C127.087 418.413 127.284 419.928 127.092 421.584C126.895 423.237 126.355 424.667 125.826 425.613C125.298 426.563 124.832 427.054 124.771 427.011Z" fill="#E1E1E1"/>
<path d="M80.7736 482.771C81.7051 499.201 86.6838 515.912 94.3413 532.807H127.643C134.947 516.08 139.582 499.396 140.406 482.771H80.7736Z" fill="#E1E1E1"/>
<path d="M135.008 509.359C135.008 509.531 124.044 509.67 110.521 509.67C96.9946 509.67 86.032 509.531 86.032 509.359C86.032 509.187 96.9946 509.049 110.521 509.049C124.044 509.049 135.008 509.187 135.008 509.359Z" fill="#FAFAFA"/>
<path d="M134.264 515.311C134.264 515.483 123.984 515.622 111.308 515.622C98.6263 515.622 88.3503 515.483 88.3503 515.311C88.3503 515.14 98.6263 515 111.308 515C123.984 515 134.264 515.14 134.264 515.311Z" fill="#FAFAFA"/>
<path d="M94.8787 493.559C95.0512 493.559 95.1912 496.975 95.1912 501.186C95.1912 505.4 95.0512 508.816 94.8787 508.816C94.7061 508.816 94.5662 505.4 94.5662 501.186C94.5662 496.975 94.7061 493.559 94.8787 493.559Z" fill="#FAFAFA"/>
<path d="M112.722 493.559C112.894 493.559 113.034 497.097 113.034 501.459C113.034 505.823 112.894 509.359 112.722 509.359C112.549 509.359 112.409 505.823 112.409 501.459C112.409 497.097 112.549 493.559 112.722 493.559Z" fill="#FAFAFA"/>
<path d="M129.472 493.425C129.645 493.425 129.785 497.034 129.785 501.482C129.785 505.933 129.645 509.54 129.472 509.54C129.3 509.54 129.16 505.933 129.16 501.482C129.16 497.034 129.3 493.425 129.472 493.425Z" fill="#FAFAFA"/>
<path d="M139.348 493.559C139.348 493.732 126.487 493.87 110.627 493.87C94.7617 493.87 81.9047 493.732 81.9047 493.559C81.9047 493.387 94.7617 493.248 110.627 493.248C126.487 493.248 139.348 493.387 139.348 493.559Z" fill="#FAFAFA"/>
<path d="M753.356 48.0777C745.783 48.0777 739.645 41.9733 739.645 34.4421C739.645 26.9109 745.783 20.8053 753.356 20.8053C760.928 20.8053 767.068 26.9109 767.068 34.4421C767.068 41.9733 760.928 48.0777 753.356 48.0777ZM784.512 34.5873C784.512 15.5097 767.177 0.459342 747.317 4.16734C734.825 6.49894 724.87 16.6437 722.683 29.0949C721.314 36.8781 722.93 44.1981 726.499 50.2413H726.483L726.572 50.3565C727.766 52.3593 729.263 53.7909 730.775 55.8957L748.865 79.7265C751.117 82.6917 755.595 82.6917 757.846 79.7265L775.635 56.2881C775.635 56.2881 778.956 52.3497 780.16 50.3253L780.225 50.2413H780.213C782.929 45.6429 784.512 40.3053 784.512 34.5873" fill="#F5F5F5"/>
<path d="M177.716 247.222L58.8946 268.028L38.6539 153.705L157.476 132.899L177.716 247.222Z" fill="#F5F5F5"/>
<path d="M66.3748 256.63L88.8284 192.046L122.371 224.939L135.173 202.11L166.771 239.051L66.3748 256.63Z" fill="#E1E1E1"/>
<path d="M125.141 173.89C125.972 178.587 122.818 183.066 118.095 183.891C113.373 184.718 108.871 181.582 108.039 176.886C107.207 172.189 110.362 167.712 115.084 166.885C119.807 166.058 124.309 169.194 125.141 173.89Z" fill="#E1E1E1"/>
<g opacity="0.300003">
<path d="M166.827 239.369C166.817 239.361 166.78 239.204 166.717 238.904C166.651 238.563 166.564 238.129 166.454 237.576C166.225 236.363 165.903 234.649 165.486 232.442C164.655 227.913 163.451 221.364 161.924 213.048C158.906 196.361 154.611 172.597 149.453 144.066L150.024 144.463C120.952 149.577 86.4882 155.64 49.6535 162.12C49.5377 162.263 50.5271 160.875 50.1108 161.475L50.1157 161.502L50.1253 161.552L50.1422 161.654L50.1796 161.858L50.252 162.267L50.3956 163.082L50.684 164.711L51.2584 167.958C51.6409 170.119 52.021 172.269 52.3999 174.413C53.1577 178.695 53.9082 182.941 54.6503 187.141C56.1333 195.543 57.5849 203.769 58.9979 211.778C61.8143 227.792 64.475 242.933 66.9245 256.861L66.3441 256.457C96.3274 251.313 121.372 247.017 138.977 243.996C147.762 242.515 154.687 241.346 159.473 240.54C161.814 240.155 163.63 239.857 164.916 239.646C165.506 239.555 165.968 239.483 166.327 239.427C166.648 239.381 166.817 239.36 166.827 239.369C166.839 239.376 166.692 239.412 166.394 239.473C166.047 239.54 165.608 239.628 165.045 239.738C163.786 239.971 162.01 240.302 159.718 240.729C154.968 241.592 148.095 242.84 139.379 244.423C121.717 247.579 96.5952 252.066 66.5179 257.438L66.0255 257.526L65.9387 257.033C63.4566 243.111 60.7572 227.977 57.9035 211.969C56.482 203.963 55.0208 195.738 53.5281 187.338C52.7836 183.138 52.0306 178.893 51.2716 174.609C50.8915 172.467 50.5102 170.317 50.1277 168.156L49.5533 164.909L49.2637 163.28L49.1189 162.465L49.0465 162.057L49.0103 161.852L48.9922 161.75L48.9838 161.7L48.979 161.675C48.5627 162.257 49.5413 160.849 49.4532 160.994C86.3 154.572 120.772 148.565 149.853 143.496L150.341 143.412L150.425 143.894C155.399 172.59 159.542 196.489 162.453 213.272C163.863 221.561 164.975 228.089 165.743 232.601C166.103 234.777 166.383 236.467 166.582 237.663C166.665 238.197 166.73 238.619 166.781 238.949C166.823 239.234 166.839 239.376 166.827 239.369Z" fill="#E1E1E1"/>
</g>
<path d="M106.683 91.1733L38.2598 77.9565L47.2181 32.0925L115.64 45.3093L106.683 91.1733Z" fill="#F5F5F5"/>
<path d="M115.752 45.9027C115.761 45.9219 115.501 46.0887 114.995 46.3899C114.433 46.7163 113.692 47.1459 112.766 47.6823C110.756 48.8139 107.949 50.3955 104.503 52.3359C97.4391 56.2455 87.7713 61.5963 77.0622 67.5219L76.8365 67.6467L76.6676 67.4511C76.5397 67.3011 76.4009 67.1379 76.2609 66.9759C68.2511 57.5607 61.0014 49.0419 55.7017 42.8127C53.1279 39.7407 51.0295 37.2363 49.5272 35.4447C48.8394 34.6023 48.2892 33.9291 47.8729 33.4203C47.5 32.9523 47.3118 32.7003 47.3287 32.6859C47.3456 32.6727 47.5652 32.8971 47.9694 33.3375C48.4086 33.8283 48.9891 34.4763 49.7143 35.2851C51.254 37.0467 53.4055 39.5067 56.0432 42.5247C61.3791 48.7227 68.6782 57.2007 76.7436 66.5679C76.8824 66.7299 77.0211 66.8931 77.149 67.0431L76.7557 66.9711C87.4998 61.1091 97.2002 55.8159 104.288 51.9495C107.774 50.0811 110.615 48.5595 112.648 47.4699C113.598 46.9755 114.358 46.5795 114.933 46.2795C115.459 46.0143 115.741 45.8835 115.752 45.9027Z" fill="#E1E1E1"/>
<path d="M38.371 78.5506C38.2612 78.415 44.6348 73.123 52.6037 66.7294C60.5761 60.3346 67.1259 55.2622 67.2357 55.3978C67.3455 55.5322 60.9731 60.8254 53.0019 67.2202C45.0318 73.6126 38.4808 78.6862 38.371 78.5506Z" fill="#E1E1E1"/>
<path d="M90.0921 59.2172C90.2478 59.138 94.1127 66.362 98.7246 75.3488C103.338 84.3392 106.949 91.688 106.794 91.7672C106.638 91.8464 102.773 84.6248 98.1611 75.6344C93.5492 66.6476 89.9365 59.2964 90.0921 59.2172Z" fill="#E1E1E1"/>
<path d="M781.784 246.592L714.702 223.25C710.066 221.637 707.623 216.592 709.246 211.982L741.735 119.645C743.356 115.036 748.428 112.606 753.064 114.219L795.607 129.023L816.662 174.238L793.114 241.166C791.491 245.776 786.419 248.205 781.784 246.592Z" fill="#ECECEC"/>
<path d="M795.607 129.023L786.463 155.01C784.955 159.298 787.227 163.99 791.537 165.49L816.663 174.238L795.607 129.023Z" fill="#F5F5F5"/>
<path d="M786.003 157.41C786.003 157.41 783.456 163.598 789.942 168.182C790.186 168.353 790.443 168.508 790.703 168.653C793.778 170.379 814.032 181.714 814.204 181.221C814.393 180.687 816.662 174.238 816.662 174.238L791.536 165.495C791.536 165.495 785.337 163.098 786.003 157.41Z" fill="#E1E1E1"/>
<path d="M781.212 151.993C781.094 152.326 774.051 150.179 765.482 147.197C756.91 144.215 750.06 141.527 750.177 141.193C750.295 140.859 757.336 143.006 765.908 145.989C774.477 148.97 781.329 151.659 781.212 151.993Z" fill="#FAFAFA"/>
<path d="M796.085 173.66C795.968 173.994 784.438 170.286 770.334 165.379C756.227 160.47 744.889 156.22 745.008 155.886C745.126 155.552 756.652 159.26 770.76 164.169C784.863 169.076 796.203 173.326 796.085 173.66Z" fill="#FAFAFA"/>
<path d="M796.369 187.53C796.25 187.864 783.69 183.797 768.318 178.447C752.941 173.097 740.573 168.49 740.689 168.155C740.808 167.821 753.364 171.887 768.743 177.239C784.116 182.587 796.486 187.197 796.369 187.53Z" fill="#FAFAFA"/>
<path d="M792.295 199.105C792.178 199.44 779.618 195.373 764.245 190.024C748.867 184.673 736.5 180.065 736.617 179.731C736.735 179.398 749.292 183.463 764.669 188.814C780.044 194.164 792.413 198.772 792.295 199.105Z" fill="#FAFAFA"/>
<path d="M788.222 210.681C788.104 211.015 775.544 206.949 760.172 201.6C744.794 196.249 732.427 191.641 732.544 191.306C732.661 190.974 745.219 195.039 760.597 200.39C775.97 205.74 788.341 210.348 788.222 210.681Z" fill="#FAFAFA"/>
<path d="M784.15 222.257C784.032 222.591 771.472 218.525 756.1 213.176C740.721 207.825 728.355 203.217 728.471 202.883C728.589 202.55 741.146 206.615 756.525 211.966C771.898 217.316 784.267 221.924 784.15 222.257Z" fill="#FAFAFA"/>
<path d="M766.064 441.27C761.896 445.564 762.017 452.405 766.335 456.55C770.652 460.694 777.531 460.574 781.699 456.282C785.867 451.988 785.747 445.146 781.428 441.001C777.111 436.856 770.233 436.978 766.064 441.27ZM760.665 427.853C762.58 426.702 764.62 425.831 766.722 425.237L767.969 419.275L778.097 419.098L779.555 425.011C781.676 425.532 783.744 426.332 785.699 427.416L790.818 424.08L798.105 431.076L794.932 436.279C796.089 438.185 796.967 440.213 797.563 442.303L803.556 443.544L803.735 453.614L797.788 455.065C797.266 457.175 796.46 459.232 795.372 461.176L798.726 466.266L791.691 473.513L786.458 470.357C784.543 471.509 782.505 472.381 780.402 472.975L779.154 478.936L769.026 479.112L767.569 473.198C765.446 472.679 763.379 471.877 761.424 470.795L756.306 474.132L749.019 467.135L752.192 461.93C751.035 460.026 750.156 457.998 749.559 455.908L743.566 454.667L743.388 444.595L749.335 443.144C749.857 441.036 750.663 438.979 751.752 437.035L748.397 431.945L755.432 424.698L760.665 427.853Z" fill="#F5F5F5"/>
<path d="M601.632 49.0369C597.028 53.7805 597.16 61.3369 601.93 65.9161C606.699 70.4953 614.299 70.3621 618.903 65.6185C623.507 60.8761 623.374 53.3197 618.604 48.7405C613.834 44.1613 606.236 44.2945 601.632 49.0369ZM595.669 34.2157C597.784 32.9449 600.036 31.9813 602.359 31.3249L603.735 24.7393L614.924 24.5449L616.533 31.0765C618.878 31.6513 621.163 32.5357 623.322 33.7333L628.975 30.0469L637.025 37.7761L633.521 43.5241C634.799 45.6277 635.769 47.8681 636.428 50.1781L643.049 51.5485L643.245 62.6737L636.676 64.2757C636.098 66.6061 635.209 68.8777 634.006 71.0257L637.712 76.6489L629.941 84.6541L624.161 81.1681C622.044 82.4401 619.793 83.4037 617.47 84.0601L616.09 90.6445L604.905 90.8389L603.294 84.3073C600.95 83.7325 598.665 82.8481 596.506 81.6517L590.852 85.3369L582.803 77.6077L586.308 71.8597C585.028 69.7561 584.059 67.5157 583.401 65.2057L576.778 63.8365L576.582 52.7101L583.151 51.1081C583.729 48.7777 584.618 46.5061 585.82 44.3593L582.116 38.7361L589.888 30.7309L595.669 34.2157Z" fill="#E1E1E1"/>
<path d="M755.098 4.81236L752.697 4.87717C732.447 5.41956 713.962 16.6876 705.135 34.6156C703.999 36.9208 703.033 39.3076 702.248 41.7592C696.609 59.4136 700.72 79.8916 712.785 94.2592C719.88 102.71 729.722 109.528 733.241 119.92C737.821 133.443 730.085 147.602 722.642 159.686C715.198 171.768 707.494 185.957 712.133 199.462C715.039 207.92 722.426 214.275 730.501 218.308C751.882 228.986 778.688 225.134 798.404 212.079C818.119 199.023 831.298 177.959 838.725 155.642C849.128 124.378 848.817 88.8567 833.905 59.1508C818.992 29.4448 788.476 6.75276 755.098 4.81236Z" fill="#F5F5F5"/>
<path d="M41.6958 254.019L43.0582 252.329C54.5444 238.081 72.8532 230.975 90.7094 234.455C93.0045 234.903 95.2682 235.515 97.4788 236.295C113.391 241.915 126.012 256.083 129.838 272.62C132.088 282.346 131.652 293.15 137.271 301.369C144.585 312.068 159.105 314.266 171.958 315.538C184.811 316.81 199.337 319.048 206.604 329.777C211.155 336.497 211.725 345.284 210.23 353.295C206.274 374.501 188.793 391.646 168.513 398.656C148.231 405.667 125.714 403.595 105.437 396.705C77.0319 387.053 51.4023 367.372 37.995 340.39C24.5877 313.407 24.8218 279.057 41.6958 254.019Z" fill="#F5F5F5"/>
<path d="M103.24 122.713C103.24 151.064 80.1287 174.048 51.62 174.048C23.1113 174.048 0 151.064 0 122.713C0 94.3621 23.1113 71.3785 51.62 71.3785C80.1287 71.3785 103.24 94.3621 103.24 122.713Z" fill="#F5F5F5"/>
<path d="M809.948 305.198C809.948 325.583 793.331 342.111 772.831 342.111C752.331 342.111 735.713 325.583 735.713 305.198C735.713 284.812 752.331 268.285 772.831 268.285C793.331 268.285 809.948 284.812 809.948 305.198Z" fill="#F5F5F5"/>
<path d="M790.387 531.286C790.387 531.459 624.995 531.598 421.022 531.598C216.977 531.598 51.62 531.459 51.62 531.286C51.62 531.114 216.977 530.973 421.022 530.973C624.995 530.973 790.387 531.114 790.387 531.286Z" fill="#312B35"/>
<path d="M681.484 70.1178H156.493C147.441 70.1178 140.105 77.4137 140.105 86.4149V455.18C140.105 464.181 147.441 471.477 156.493 471.477H357.983C357.983 471.477 370.8 510.892 331.068 531.286H519.472C519.472 531.286 474.613 515.992 486.148 471.477H681.487C690.535 471.477 697.873 464.181 697.873 455.181V86.4149C697.873 77.4137 690.536 70.1178 681.484 70.1178Z" fill="#69839B"/>
<path d="M425.999 432.694C433.14 442.845 421.962 453.96 411.754 446.86C411.418 446.624 411.112 446.32 410.877 445.984C403.754 435.837 414.918 424.736 425.12 431.82C425.457 432.056 425.763 432.359 425.999 432.694Z" fill="#312B35"/>
<path d="M688.834 404.015H149.145V88.5107C149.145 82.0835 154.383 76.8731 160.846 76.8731H677.133C683.595 76.8731 688.834 82.0835 688.834 88.5107V404.015Z" fill="white"/>
<path d="M688.834 104.057H149.145V87.8583C149.145 81.7911 154.09 76.8735 160.19 76.8735H679.763C684.773 76.8735 688.834 80.9115 688.834 85.8927V104.057Z" fill="#ECECEC"/>
<path d="M587.625 471.529C587.625 471.703 512.918 471.843 420.784 471.843C328.617 471.843 253.927 471.703 253.927 471.529C253.927 471.356 328.617 471.216 420.784 471.216C512.918 471.216 587.625 471.356 587.625 471.529Z" fill="#312B35"/>
<path d="M597.322 20.2322H268.225V404.441H597.322V20.2322Z" fill="white"/>
<path d="M597.229 62.2249H552.427V20.2933H597.229V62.2249Z" fill="#F5F5F5"/>
<path d="M572.813 37.5037H569.265V33.9649H572.813V37.5037Z" fill="white"/>
<path d="M577.745 37.5037H574.197V33.9649H577.745V37.5037Z" fill="white"/>
<path d="M582.678 37.5037H579.129V33.9649H582.678V37.5037Z" fill="white"/>
<path d="M572.813 42.7764H569.265V39.2376H572.813V42.7764Z" fill="white"/>
<path d="M577.745 42.7764H574.197V39.2376H577.745V42.7764Z" fill="white"/>
<path d="M582.678 42.7764H579.129V39.2376H582.678V42.7764Z" fill="white"/>
<path d="M572.813 48.0481H569.265V44.5093H572.813V48.0481Z" fill="white"/>
<path d="M577.745 48.0481H574.197V44.5093H577.745V48.0481Z" fill="white"/>
<path d="M582.678 48.0481H579.129V44.5093H582.678V48.0481Z" fill="white"/>
<path d="M597.229 20.2932H268.132V0.878395H597.229V20.2932Z" fill="#E1E1E1"/>
<path d="M280.336 10.5867C280.336 12.3603 278.894 13.7979 277.117 13.7979C275.337 13.7979 273.896 12.3603 273.896 10.5867C273.896 8.81305 275.337 7.37545 277.117 7.37545C278.894 7.37545 280.336 8.81305 280.336 10.5867Z" fill="white"/>
<path d="M289.513 10.5867C289.513 12.3603 288.071 13.7979 286.294 13.7979C284.515 13.7979 283.073 12.3603 283.073 10.5867C283.073 8.81305 284.515 7.37545 286.294 7.37545C288.071 7.37545 289.513 8.81305 289.513 10.5867Z" fill="white"/>
<path d="M298.691 10.5867C298.691 12.3603 297.25 13.7979 295.471 13.7979C293.693 13.7979 292.251 12.3603 292.251 10.5867C292.251 8.81305 293.693 7.37545 295.471 7.37545C297.25 7.37545 298.691 8.81305 298.691 10.5867Z" fill="white"/>
<path d="M306.866 55.7854V66.9358H304.28V62.3638H299.204V66.9358H296.618V55.7854H299.204V60.1822H304.28V55.7854H306.866Z" fill="#312B35"/>
<path d="M311.179 61.9025H315.408C315.233 60.8189 314.42 60.1181 313.302 60.1181C312.169 60.1181 311.355 60.8033 311.179 61.9025ZM317.708 63.3521H311.21C311.451 64.4189 312.36 65.0729 313.668 65.0729C314.578 65.0729 315.233 64.8017 315.825 64.2437L317.15 65.6777C316.351 66.5861 315.154 67.0637 313.606 67.0637C310.636 67.0637 308.704 65.2001 308.704 62.6513C308.704 60.0857 310.669 58.2389 313.286 58.2389C315.808 58.2389 317.755 59.9273 317.755 62.6825C317.755 62.8745 317.724 63.1445 317.708 63.3521" fill="#312B35"/>
<path d="M319.418 55.1163H321.908V66.9363H319.418V55.1163Z" fill="#312B35"/>
<path d="M324.223 55.1163H326.712V66.9363H324.223V55.1163Z" fill="#312B35"/>
<path d="M335.303 62.6513C335.303 61.1693 334.361 60.2777 333.117 60.2777C331.87 60.2777 330.913 61.1693 330.913 62.6513C330.913 64.1321 331.87 65.0249 333.117 65.0249C334.361 65.0249 335.303 64.1321 335.303 62.6513ZM328.39 62.6513C328.39 60.0701 330.386 58.2389 333.117 58.2389C335.846 58.2389 337.825 60.0701 337.825 62.6513C337.825 65.2313 335.846 67.0637 333.117 67.0637C330.386 67.0637 328.39 65.2313 328.39 62.6513Z" fill="#312B35"/>
<path d="M339.167 55.7854H342.136L341.641 63.0646H339.662L339.167 55.7854ZM339.119 65.6134C339.119 64.8022 339.757 64.1962 340.652 64.1962C341.546 64.1962 342.184 64.8022 342.184 65.6134C342.184 66.4102 341.546 67.063 340.652 67.063C339.757 67.063 339.119 66.4102 339.119 65.6134" fill="#312B35"/>
<path d="M352.476 79.1192C352.476 79.292 339.877 79.4312 324.337 79.4312C308.792 79.4312 296.195 79.292 296.195 79.1192C296.195 78.9464 308.792 78.806 324.337 78.806C339.877 78.806 352.476 78.9464 352.476 79.1192Z" fill="#312B35"/>
<path d="M402.604 88.5728C402.604 88.7456 378.782 88.886 349.402 88.886C320.013 88.886 296.195 88.7456 296.195 88.5728C296.195 88.4 320.013 88.2608 349.402 88.2608C378.782 88.2608 402.604 88.4 402.604 88.5728Z" fill="#312B35"/>
<path d="M420.382 99.1507C420.382 99.3235 392.701 99.4639 358.562 99.4639C324.412 99.4639 296.737 99.3235 296.737 99.1507C296.737 98.9779 324.412 98.8387 358.562 98.8387C392.701 98.8387 420.382 98.9779 420.382 99.1507Z" fill="#E1E1E1"/>
<path d="M420.382 106.238C420.382 106.41 392.701 106.55 358.562 106.55C324.412 106.55 296.737 106.41 296.737 106.238C296.737 106.065 324.412 105.926 358.562 105.926C392.701 105.926 420.382 106.065 420.382 106.238Z" fill="#E1E1E1"/>
<path d="M365.385 133.712C360.661 133.712 356.832 129.894 356.832 125.184C356.832 120.473 360.661 116.654 365.385 116.654C370.109 116.654 373.938 120.473 373.938 125.184C373.938 129.894 370.109 133.712 365.385 133.712Z" fill="#DB96AF"/>
<path d="M361.507 128.985H363.277V123.282H361.507V128.985Z" fill="white"/>
<path d="M362.383 122.535C362.961 122.535 363.431 122.063 363.431 121.482C363.431 120.901 362.961 120.43 362.383 120.43C361.805 120.43 361.337 120.901 361.337 121.482C361.337 122.063 361.805 122.535 362.383 122.535Z" fill="white"/>
<path d="M366.106 125.991C366.106 125.189 366.477 124.711 367.185 124.711C367.836 124.711 368.148 125.17 368.148 125.991V128.985H369.91V125.374C369.91 123.846 369.042 123.107 367.83 123.107C366.617 123.107 366.106 124.05 366.106 124.05V123.282H364.409V128.985H366.106V125.991Z" fill="white"/>
<path d="M324.746 133.782C319.984 133.782 316.124 129.932 316.124 125.183C316.124 120.434 319.984 116.585 324.746 116.585C329.508 116.583 333.369 120.434 333.369 125.183C333.369 129.932 329.508 133.782 324.746 133.782Z" fill="#DB96AF"/>
<path d="M326.688 124.959H323.205L323.208 125.954H325.558C325.28 127.166 324.422 127.908 323.271 127.908C321.761 127.908 320.539 126.688 320.539 125.183C320.539 123.678 321.761 122.458 323.271 122.458C323.989 122.458 324.642 122.734 325.129 123.185L325.9 122.523C325.225 121.858 324.297 121.448 323.271 121.448C321.203 121.448 319.526 123.119 319.526 125.183C319.526 127.246 321.203 128.919 323.271 128.919C325.258 128.919 326.694 127.408 326.694 125.344L326.688 124.959Z" fill="white"/>
<path d="M331.695 125H330.257V123.566H329.34V125H327.901V125.915H329.34V127.349H330.257V125.915H331.695V125Z" fill="white"/>
<path d="M345.361 133.661C340.671 133.661 336.869 129.869 336.869 125.192C336.869 120.515 340.671 116.723 345.361 116.723C350.051 116.723 353.854 120.515 353.854 125.192C353.854 129.869 350.051 133.661 345.361 133.661Z" fill="#DB96AF"/>
<path d="M345.361 120.548C344.096 120.548 343.938 120.553 343.441 120.576C342.945 120.599 342.607 120.677 342.311 120.792C342.004 120.911 341.745 121.07 341.486 121.327C341.227 121.586 341.068 121.846 340.949 122.15C340.834 122.446 340.755 122.783 340.733 123.277C340.711 123.773 340.704 123.931 340.704 125.192C340.704 126.454 340.711 126.612 340.733 127.106C340.755 127.601 340.834 127.938 340.949 128.234C341.068 128.539 341.227 128.798 341.486 129.056C341.745 129.314 342.004 129.473 342.311 129.592C342.607 129.707 342.945 129.785 343.441 129.808C343.938 129.83 344.096 129.836 345.361 129.836C346.626 129.836 346.785 129.83 347.281 129.808C347.777 129.785 348.115 129.707 348.411 129.592C348.718 129.473 348.977 129.314 349.236 129.056C349.495 128.798 349.654 128.539 349.773 128.234C349.888 127.938 349.967 127.601 349.99 127.106C350.011 126.612 350.018 126.454 350.018 125.192C350.018 123.931 350.011 123.773 349.99 123.277C349.967 122.783 349.888 122.446 349.773 122.15C349.654 121.846 349.495 121.586 349.236 121.327C348.977 121.07 348.718 120.911 348.411 120.792C348.115 120.677 347.777 120.599 347.281 120.576C346.785 120.553 346.626 120.548 345.361 120.548ZM345.361 121.385C346.604 121.385 346.751 121.39 347.243 121.412C347.697 121.433 347.943 121.508 348.107 121.572C348.325 121.656 348.479 121.757 348.643 121.92C348.805 122.082 348.906 122.237 348.991 122.453C349.055 122.617 349.131 122.863 349.151 123.316C349.174 123.805 349.179 123.952 349.179 125.192C349.179 126.432 349.174 126.578 349.151 127.069C349.131 127.522 349.055 127.768 348.991 127.931C348.906 128.148 348.805 128.302 348.643 128.465C348.479 128.627 348.325 128.728 348.107 128.812C347.943 128.875 347.697 128.951 347.243 128.972C346.751 128.994 346.605 128.999 345.361 128.999C344.118 128.999 343.971 128.994 343.48 128.972C343.025 128.951 342.779 128.875 342.615 128.812C342.397 128.728 342.243 128.627 342.079 128.465C341.917 128.302 341.816 128.148 341.731 127.931C341.667 127.768 341.591 127.522 341.571 127.069C341.548 126.578 341.543 126.432 341.543 125.192C341.543 123.952 341.548 123.805 341.571 123.316C341.591 122.863 341.667 122.617 341.731 122.453C341.816 122.237 341.917 122.082 342.079 121.92C342.243 121.757 342.397 121.656 342.615 121.572C342.779 121.508 343.025 121.433 343.48 121.412C343.971 121.39 344.118 121.385 345.361 121.385" fill="white"/>
<path d="M345.361 126.74C344.504 126.74 343.809 126.046 343.809 125.192C343.809 124.338 344.504 123.644 345.361 123.644C346.218 123.644 346.913 124.338 346.913 125.192C346.913 126.046 346.218 126.74 345.361 126.74ZM345.361 122.808C344.041 122.808 342.971 123.876 342.971 125.192C342.971 126.51 344.041 127.576 345.361 127.576C346.681 127.576 347.751 126.51 347.751 125.192C347.751 123.876 346.681 122.808 345.361 122.808Z" fill="white"/>
<path d="M348.405 122.713C348.405 123.021 348.156 123.27 347.847 123.27C347.538 123.27 347.288 123.021 347.288 122.713C347.288 122.406 347.538 122.157 347.847 122.157C348.156 122.157 348.405 122.406 348.405 122.713Z" fill="white"/>
<path d="M304.417 133.772C299.695 133.772 295.869 129.955 295.869 125.248C295.869 120.54 299.695 116.723 304.417 116.723C309.139 116.723 312.965 120.54 312.965 125.248C312.965 129.955 309.139 133.772 304.417 133.772Z" fill="#DB96AF"/>
<path d="M303.115 130.4H305.195V125.203H306.647L306.802 123.464H305.195V122.473C305.195 122.063 305.277 121.901 305.676 121.901H306.802V120.095H305.362C303.812 120.095 303.115 120.775 303.115 122.076V123.464H302.032V125.226H303.115V130.4Z" fill="white"/>
<path d="M387.198 145.303C387.198 145.476 365.567 145.616 338.891 145.616C312.206 145.616 290.58 145.476 290.58 145.303C290.58 145.13 312.206 144.991 338.891 144.991C365.567 144.991 387.198 145.13 387.198 145.303Z" fill="#312B35"/>
<path d="M582.615 403.872H287.67V176.733H582.615V403.872Z" fill="#F5F5F5"/>
<path d="M380.806 203.733C380.806 203.906 371.835 204.045 360.773 204.045C349.706 204.045 340.737 203.906 340.737 203.733C340.737 203.561 349.706 203.421 360.773 203.421C371.835 203.421 380.806 203.561 380.806 203.733Z" fill="#DB96AF"/>
<path d="M524.48 203.733C524.48 203.906 515.509 204.045 504.447 204.045C493.38 204.045 484.412 203.906 484.412 203.733C484.412 203.561 493.38 203.421 504.447 203.421C515.509 203.421 524.48 203.561 524.48 203.733Z" fill="#DB96AF"/>
<path d="M524.48 249.663C524.48 249.836 515.509 249.977 504.447 249.977C493.38 249.977 484.412 249.836 484.412 249.663C484.412 249.491 493.38 249.351 504.447 249.351C515.509 249.351 524.48 249.491 524.48 249.663Z" fill="#DB96AF"/>
<path d="M394.454 218.46C394.454 218.633 382.803 218.773 368.434 218.773C354.061 218.773 342.411 218.633 342.411 218.46C342.411 218.287 354.061 218.148 368.434 218.148C382.803 218.148 394.454 218.287 394.454 218.46Z" fill="#69839B"/>
<path d="M392.849 245.62C392.849 245.792 381.198 245.932 366.829 245.932C352.456 245.932 340.807 245.792 340.807 245.62C340.807 245.447 352.456 245.308 366.829 245.308C381.198 245.308 392.849 245.447 392.849 245.62Z" fill="#312B35"/>
<path d="M338.53 218.46C338.53 219.121 337.993 219.656 337.331 219.656C336.668 219.656 336.131 219.121 336.131 218.46C336.131 217.8 336.668 217.263 337.331 217.263C337.993 217.263 338.53 217.8 338.53 218.46Z" fill="#312B35"/>
<path d="M338.53 245.62C338.53 246.281 337.993 246.816 337.331 246.816C336.668 246.816 336.131 246.281 336.131 245.62C336.131 244.96 336.668 244.423 337.331 244.423C337.993 244.423 338.53 244.96 338.53 245.62Z" fill="#312B35"/>
<path d="M338.466 268.586C338.466 269.247 337.929 269.782 337.267 269.782C336.604 269.782 336.068 269.247 336.068 268.586C336.068 267.925 336.604 267.39 337.267 267.39C337.929 267.39 338.466 267.925 338.466 268.586Z" fill="#312B35"/>
<path d="M337.267 242.352C337.093 242.352 336.953 237.648 336.953 231.846C336.953 226.042 337.093 221.338 337.267 221.338C337.44 221.338 337.58 226.042 337.58 231.846C337.58 237.648 337.44 242.352 337.267 242.352Z" fill="#312B35"/>
<path d="M337.267 264.209C337.093 264.209 336.953 260.952 336.953 256.936C336.953 252.92 337.093 249.663 337.267 249.663C337.44 249.663 337.58 252.92 337.58 256.936C337.58 260.952 337.44 264.209 337.267 264.209Z" fill="#312B35"/>
<path d="M363.932 222.86C363.932 223.033 359.307 223.173 353.603 223.173C347.898 223.173 343.274 223.033 343.274 222.86C343.274 222.687 347.898 222.548 353.603 222.548C359.307 222.548 363.932 222.687 363.932 222.86Z" fill="#69839B"/>
<path d="M394.034 231.248C394.034 231.421 382.769 231.56 368.877 231.56C354.98 231.56 343.717 231.421 343.717 231.248C343.717 231.075 354.98 230.936 368.877 230.936C382.769 230.936 394.034 231.075 394.034 231.248Z" fill="#E1E1E1"/>
<path d="M379.957 238.233C379.957 238.406 371.844 238.546 361.838 238.546C351.829 238.546 343.717 238.406 343.717 238.233C343.717 238.06 351.829 237.921 361.838 237.921C371.844 237.921 379.957 238.06 379.957 238.233Z" fill="#E1E1E1"/>
<path d="M393.591 234.632C393.591 234.805 382.327 234.944 368.433 234.944C354.537 234.944 343.274 234.805 343.274 234.632C343.274 234.46 354.537 234.32 368.433 234.32C382.327 234.32 393.591 234.46 393.591 234.632Z" fill="#E1E1E1"/>
<path d="M394.034 253.185C394.034 253.358 382.769 253.497 368.877 253.497C354.98 253.497 343.717 253.358 343.717 253.185C343.717 253.012 354.98 252.873 368.877 252.873C382.769 252.873 394.034 253.012 394.034 253.185Z" fill="#E1E1E1"/>
<path d="M379.957 260.171C379.957 260.344 371.844 260.483 361.838 260.483C351.829 260.483 343.717 260.344 343.717 260.171C343.717 259.998 351.829 259.858 361.838 259.858C371.844 259.858 379.957 259.998 379.957 260.171Z" fill="#E1E1E1"/>
<path d="M393.591 256.569C393.591 256.742 382.327 256.882 368.433 256.882C354.537 256.882 343.274 256.742 343.274 256.569C343.274 256.396 354.537 256.257 368.433 256.257C382.327 256.257 393.591 256.396 393.591 256.569Z" fill="#E1E1E1"/>
<path d="M392.849 268.816C392.849 268.989 381.198 269.128 366.829 269.128C352.456 269.128 340.807 268.989 340.807 268.816C340.807 268.642 352.456 268.503 366.829 268.503C381.198 268.503 392.849 268.642 392.849 268.816Z" fill="#312B35"/>
<path d="M394.034 276.38C394.034 276.553 382.769 276.693 368.877 276.693C354.98 276.693 343.717 276.553 343.717 276.38C343.717 276.207 354.98 276.068 368.877 276.068C382.769 276.068 394.034 276.207 394.034 276.38Z" fill="#E1E1E1"/>
<path d="M379.957 283.366C379.957 283.54 371.844 283.679 361.838 283.679C351.829 283.679 343.717 283.54 343.717 283.366C343.717 283.193 351.829 283.054 361.838 283.054C371.844 283.054 379.957 283.193 379.957 283.366Z" fill="#E1E1E1"/>
<path d="M393.591 279.765C393.591 279.937 382.327 280.078 368.433 280.078C354.537 280.078 343.274 279.937 343.274 279.765C343.274 279.592 354.537 279.453 368.433 279.453C382.327 279.453 393.591 279.592 393.591 279.765Z" fill="#E1E1E1"/>
<path d="M380.806 298.967C380.806 299.14 371.835 299.279 360.773 299.279C349.706 299.279 340.737 299.14 340.737 298.967C340.737 298.793 349.706 298.654 360.773 298.654C371.835 298.654 380.806 298.793 380.806 298.967Z" fill="#DB96AF"/>
<path d="M394.454 313.693C394.454 313.867 382.803 314.006 368.434 314.006C354.061 314.006 342.411 313.867 342.411 313.693C342.411 313.52 354.061 313.381 368.434 313.381C382.803 313.381 394.454 313.52 394.454 313.693Z" fill="#69839B"/>
<path d="M392.849 340.853C392.849 341.026 381.198 341.165 366.829 341.165C352.456 341.165 340.807 341.026 340.807 340.853C340.807 340.679 352.456 340.54 366.829 340.54C381.198 340.54 392.849 340.679 392.849 340.853Z" fill="#312B35"/>
<path d="M338.53 313.693C338.53 314.354 337.993 314.889 337.331 314.889C336.668 314.889 336.131 314.354 336.131 313.693C336.131 313.033 336.668 312.498 337.331 312.498C337.993 312.498 338.53 313.033 338.53 313.693Z" fill="#312B35"/>
<path d="M338.53 340.853C338.53 341.513 337.993 342.049 337.331 342.049C336.668 342.049 336.131 341.513 336.131 340.853C336.131 340.192 336.668 339.657 337.331 339.657C337.993 339.657 338.53 340.192 338.53 340.853Z" fill="#312B35"/>
<path d="M338.466 363.82C338.466 364.48 337.929 365.015 337.267 365.015C336.604 365.015 336.068 364.48 336.068 363.82C336.068 363.158 336.604 362.623 337.267 362.623C337.929 362.623 338.466 363.158 338.466 363.82Z" fill="#312B35"/>
<path d="M337.267 337.585C337.093 337.585 336.953 332.881 336.953 327.079C336.953 321.275 337.093 316.571 337.267 316.571C337.44 316.571 337.58 321.275 337.58 327.079C337.58 332.881 337.44 337.585 337.267 337.585Z" fill="#312B35"/>
<path d="M337.267 359.442C337.093 359.442 336.953 356.186 336.953 352.17C336.953 348.153 337.093 344.896 337.267 344.896C337.44 344.896 337.58 348.153 337.58 352.17C337.58 356.186 337.44 359.442 337.267 359.442Z" fill="#312B35"/>
<path d="M363.932 318.093C363.932 318.267 359.307 318.406 353.603 318.406C347.898 318.406 343.274 318.267 343.274 318.093C343.274 317.92 347.898 317.781 353.603 317.781C359.307 317.781 363.932 317.92 363.932 318.093Z" fill="#69839B"/>
<path d="M394.034 326.481C394.034 326.654 382.769 326.793 368.877 326.793C354.98 326.793 343.717 326.654 343.717 326.481C343.717 326.307 354.98 326.168 368.877 326.168C382.769 326.168 394.034 326.307 394.034 326.481Z" fill="#E1E1E1"/>
<path d="M379.957 333.467C379.957 333.64 371.844 333.78 361.838 333.78C351.829 333.78 343.717 333.64 343.717 333.467C343.717 333.294 351.829 333.154 361.838 333.154C371.844 333.154 379.957 333.294 379.957 333.467Z" fill="#E1E1E1"/>
<path d="M393.591 329.866C393.591 330.039 382.327 330.178 368.433 330.178C354.537 330.178 343.274 330.039 343.274 329.866C343.274 329.692 354.537 329.553 368.433 329.553C382.327 329.553 393.591 329.692 393.591 329.866Z" fill="#E1E1E1"/>
<path d="M394.034 348.418C394.034 348.591 382.769 348.731 368.877 348.731C354.98 348.731 343.717 348.591 343.717 348.418C343.717 348.245 354.98 348.106 368.877 348.106C382.769 348.106 394.034 348.245 394.034 348.418Z" fill="#E1E1E1"/>
<path d="M379.957 355.403C379.957 355.577 371.844 355.717 361.838 355.717C351.829 355.717 343.717 355.577 343.717 355.403C343.717 355.231 351.829 355.091 361.838 355.091C371.844 355.091 379.957 355.231 379.957 355.403Z" fill="#E1E1E1"/>
<path d="M393.591 351.802C393.591 351.976 382.327 352.115 368.433 352.115C354.537 352.115 343.274 351.976 343.274 351.802C343.274 351.629 354.537 351.49 368.433 351.49C382.327 351.49 393.591 351.629 393.591 351.802Z" fill="#E1E1E1"/>
<path d="M392.849 364.048C392.849 364.221 381.198 364.362 366.829 364.362C352.456 364.362 340.807 364.221 340.807 364.048C340.807 363.876 352.456 363.736 366.829 363.736C381.198 363.736 392.849 363.876 392.849 364.048Z" fill="#312B35"/>
<path d="M394.034 371.614C394.034 371.787 382.769 371.926 368.877 371.926C354.98 371.926 343.717 371.787 343.717 371.614C343.717 371.44 354.98 371.301 368.877 371.301C382.769 371.301 394.034 371.44 394.034 371.614Z" fill="#E1E1E1"/>
<path d="M379.957 378.599C379.957 378.772 371.844 378.913 361.838 378.913C351.829 378.913 343.717 378.772 343.717 378.599C343.717 378.427 351.829 378.286 361.838 378.286C371.844 378.286 379.957 378.427 379.957 378.599Z" fill="#E1E1E1"/>
<path d="M393.591 374.998C393.591 375.171 382.327 375.31 368.433 375.31C354.537 375.31 343.274 375.171 343.274 374.998C343.274 374.826 354.537 374.685 368.433 374.685C382.327 374.685 393.591 374.826 393.591 374.998Z" fill="#E1E1E1"/>
<path d="M438.465 403.318C438.29 403.318 438.15 352.908 438.15 290.741C438.15 228.551 438.29 178.153 438.465 178.153C438.638 178.153 438.778 228.551 438.778 290.741C438.778 352.908 438.638 403.318 438.465 403.318Z" fill="#69839B"/>
<path d="M552.426 217.152C552.426 217.325 536.568 217.465 517.013 217.465C497.449 217.465 481.597 217.325 481.597 217.152C481.597 216.979 497.449 216.84 517.013 216.84C536.568 216.84 552.426 216.979 552.426 217.152Z" fill="#69839B"/>
<path d="M553.368 222.86C553.368 223.033 537.629 223.173 518.219 223.173C498.801 223.173 483.066 223.033 483.066 222.86C483.066 222.687 498.801 222.548 518.219 222.548C537.629 222.548 553.368 222.687 553.368 222.86Z" fill="#69839B"/>
<path d="M524.48 337.694C524.48 337.867 515.509 338.006 504.447 338.006C493.38 338.006 484.412 337.867 484.412 337.694C484.412 337.52 493.38 337.381 504.447 337.381C515.509 337.381 524.48 337.52 524.48 337.694Z" fill="#DB96AF"/>
<path d="M552.426 351.112C552.426 351.286 536.568 351.425 517.013 351.425C497.449 351.425 481.597 351.286 481.597 351.112C481.597 350.939 497.449 350.8 517.013 350.8C536.568 350.8 552.426 350.939 552.426 351.112Z" fill="#69839B"/>
<path d="M553.368 356.82C553.368 356.994 537.3 357.133 517.484 357.133C497.661 357.133 481.597 356.994 481.597 356.82C481.597 356.647 497.661 356.508 517.484 356.508C537.3 356.508 553.368 356.647 553.368 356.82Z" fill="#69839B"/>
<path d="M546.693 268.694H485.777C484.279 268.694 483.067 267.488 483.067 266C483.067 264.511 484.279 263.305 485.777 263.305H546.693C548.19 263.305 549.404 264.511 549.404 266C549.404 267.488 548.19 268.694 546.693 268.694Z" fill="#E1E1E1"/>
<path d="M518.544 268.694H485.777C484.28 268.694 483.067 267.488 483.067 266C483.067 264.511 484.28 263.305 485.777 263.305H518.544C520.04 263.305 521.254 264.511 521.254 266C521.254 267.488 520.04 268.694 518.544 268.694Z" fill="#DB96AF"/>
<path d="M546.693 280.695H485.777C484.279 280.695 483.067 279.489 483.067 278.001C483.067 276.513 484.279 275.306 485.777 275.306H546.693C548.19 275.306 549.404 276.513 549.404 278.001C549.404 279.489 548.19 280.695 546.693 280.695Z" fill="#E1E1E1"/>
<path d="M507.888 280.695H485.777C484.28 280.695 483.067 279.489 483.067 278.001C483.067 276.513 484.28 275.306 485.777 275.306H507.888C509.384 275.306 510.598 276.513 510.598 278.001C510.598 279.489 509.384 280.695 507.888 280.695Z" fill="#DB96AF"/>
<path d="M546.693 292.698H485.777C484.279 292.698 483.067 291.49 483.067 290.002C483.067 288.514 484.279 287.307 485.777 287.307H546.693C548.19 287.307 549.404 288.514 549.404 290.002C549.404 291.49 548.19 292.698 546.693 292.698Z" fill="#E1E1E1"/>
<path d="M537.866 292.698H485.777C484.279 292.698 483.067 291.49 483.067 290.002C483.067 288.514 484.279 287.307 485.777 287.307H537.866C539.362 287.307 540.576 288.514 540.576 290.002C540.576 291.49 539.362 292.698 537.866 292.698Z" fill="#DB96AF"/>
<path d="M546.693 304.698H485.777C484.279 304.698 483.067 303.491 483.067 302.003C483.067 300.515 484.279 299.308 485.777 299.308H546.693C548.19 299.308 549.404 300.515 549.404 302.003C549.404 303.491 548.19 304.698 546.693 304.698Z" fill="#E1E1E1"/>
<path d="M530.473 304.698H485.777C484.279 304.698 483.067 303.491 483.067 302.003C483.067 300.515 484.279 299.308 485.777 299.308H530.473C531.97 299.308 533.183 300.515 533.183 302.003C533.183 303.491 531.97 304.698 530.473 304.698Z" fill="#DB96AF"/>
<path d="M477.137 267.151C477.137 267.323 474.569 267.463 471.402 267.463C468.233 267.463 465.665 267.323 465.665 267.151C465.665 266.978 468.233 266.837 471.402 266.837C474.569 266.837 477.137 266.978 477.137 267.151Z" fill="#69839B"/>
<path d="M477.137 278.001C477.137 278.174 474.569 278.313 471.402 278.313C468.233 278.313 465.665 278.174 465.665 278.001C465.665 277.828 468.233 277.688 471.402 277.688C474.569 277.688 477.137 277.828 477.137 278.001Z" fill="#69839B"/>
<path d="M477.137 288.851C477.137 289.024 474.569 289.163 471.402 289.163C468.233 289.163 465.665 289.024 465.665 288.851C465.665 288.677 468.233 288.538 471.402 288.538C474.569 288.538 477.137 288.677 477.137 288.851Z" fill="#69839B"/>
<path d="M477.137 299.702C477.137 299.874 474.569 300.014 471.402 300.014C468.233 300.014 465.665 299.874 465.665 299.702C465.665 299.528 468.233 299.388 471.402 299.388C474.569 299.388 477.137 299.528 477.137 299.702Z" fill="#69839B"/>
<path d="M311.887 197.327L322.035 192.898L331.246 197.327L321.828 202.13L311.887 197.327Z" fill="#DB96AF"/>
<path d="M314.007 199.735L313.87 205.77H328.897V199.941L321.642 203.481L314.007 199.735Z" fill="#DB96AF"/>
<path d="M473.666 206.337H458.645V196.845H473.666V206.337Z" fill="#DB96AF"/>
<path d="M469.172 209.308H463.141V206.337H469.172V209.308Z" fill="#DB96AF"/>
<path d="M472.512 209.205C472.512 209.378 469.51 209.517 465.805 209.517C462.102 209.517 459.1 209.378 459.1 209.205C459.1 209.032 462.102 208.893 465.805 208.893C469.51 208.893 472.512 209.032 472.512 209.205Z" fill="#DB96AF"/>
<path d="M323.33 302.228H308.308V292.736H323.33V302.228Z" fill="#DB96AF"/>
<path d="M318.835 305.198H312.803V302.226H318.835V305.198Z" fill="#DB96AF"/>
<path d="M322.176 305.095C322.176 305.269 319.174 305.408 315.469 305.408C311.766 305.408 308.762 305.269 308.762 305.095C308.762 304.922 311.766 304.783 315.469 304.783C319.174 304.783 322.176 304.922 322.176 305.095Z" fill="#DB96AF"/>
<path d="M472.835 252.64L471.461 250.234C472.068 249.254 472.42 248.099 472.42 246.863C472.42 243.309 469.522 240.427 465.948 240.427C462.374 240.427 459.477 243.309 459.477 246.863C459.477 250.418 462.374 253.3 465.948 253.3C467.441 253.3 468.814 252.796 469.908 251.951L469.907 251.955L472.835 252.64Z" fill="#DB96AF"/>
<path d="M469.178 334.211C470.464 333.675 471.379 332.355 471.388 330.801C471.396 328.764 469.847 327.106 467.926 327.097C466.006 327.088 464.442 328.733 464.433 330.768C464.427 332.337 465.348 333.672 466.649 334.211C461.3 335.013 461.542 340.794 461.542 340.794L474.193 340.853C474.193 340.853 474.483 335.008 469.178 334.211Z" fill="#DB96AF"/>
<path d="M597.229 0.878869C597.23 3.31967 597.342 164.483 597.509 404.502V404.781H597.229C499.455 404.79 387.107 404.802 268.167 404.814H268.132H267.817V404.502C267.836 255.161 267.854 116.296 267.869 0.878869V0.618457H268.132C466.557 0.775657 595.042 0.877669 597.229 0.878869C595.042 0.880069 466.557 0.982082 268.132 1.13928L268.393 0.878869C268.408 116.296 268.426 255.161 268.446 404.502L268.132 404.189H268.167C387.107 404.201 499.455 404.213 597.229 404.224L596.949 404.502C597.114 164.483 597.226 3.31727 597.229 0.878869Z" fill="#312B35"/>
<path d="M735.714 257.954C721.393 265.332 710.411 278.033 702.515 292.017C694.619 306.003 689.531 321.349 684.489 336.584L680.079 415.156C696.742 386.965 710.115 353.824 713.729 321.323C710.033 320.996 706.336 320.667 702.641 320.341C710.076 319.212 716.316 313.854 720.288 307.503C724.257 301.151 726.302 293.826 728.297 286.614L714.768 288.614C725.362 281.582 733.042 270.339 735.714 257.954Z" fill="#69839B"/>
<path d="M735.714 257.954C721.393 265.332 710.411 278.033 702.515 292.017C694.619 306.003 689.531 321.349 684.489 336.584L680.079 415.156C696.742 386.965 710.115 353.824 713.729 321.323C710.033 320.996 706.336 320.667 702.641 320.341C710.076 319.212 716.316 313.854 720.288 307.503C724.257 301.151 726.302 293.826 728.297 286.614L714.768 288.614C725.362 281.582 733.042 270.339 735.714 257.954Z" fill="#DB96AF"/>
<g opacity="0.300003">
<path d="M735.714 257.954C721.393 265.332 710.411 278.033 702.515 292.017C694.619 306.003 689.531 321.349 684.489 336.584L680.079 415.156C696.742 386.965 710.115 353.824 713.729 321.323C710.033 320.996 706.336 320.667 702.641 320.341C710.076 319.212 716.316 313.854 720.288 307.503C724.257 301.151 726.302 293.826 728.297 286.614L714.768 288.614C725.362 281.582 733.042 270.339 735.714 257.954Z" fill="#312B35"/>
</g>
<path d="M677.612 433.567C677.612 433.567 641.443 390.516 641.862 349.42H656.471C656.471 349.42 640.602 339.042 641.859 333.229C643.113 327.418 643.532 305.416 643.532 305.416L656.889 308.737C656.889 308.737 646.87 303.755 645.619 295.868C644.366 287.981 648.54 251.45 648.54 251.45C648.54 251.45 664.82 268.47 669.83 285.905C674.838 303.341 687.987 323.682 684.126 376.817C680.266 429.953 677.612 433.567 677.612 433.567Z" fill="#DB96AF"/>
<path d="M695.948 437.63C695.948 437.63 735.132 411.672 743.838 378.54L732.091 375.361C732.091 375.361 747.133 370.47 747.402 365.525C747.67 360.578 752.176 342.8 752.176 342.8L740.705 342.563C740.705 342.563 749.857 340.737 752.598 334.669C755.341 328.601 760.022 298.322 760.022 298.322C760.022 298.322 743.188 308.463 735.325 321.391C727.462 334.319 712.415 347.811 703.83 391.371C695.244 434.931 695.948 437.63 695.948 437.63Z" fill="#DB96AF"/>
<path d="M658.421 288.985C658.432 288.982 658.474 289.133 658.548 289.432C658.626 289.76 658.73 290.199 658.86 290.758C659.13 291.959 659.513 293.674 660.004 295.867C660.504 298.085 661.085 300.806 661.716 303.971C662.359 307.137 663.108 310.738 663.84 314.737C665.387 322.718 667.02 332.261 668.702 342.879C670.33 353.504 671.959 365.21 673.405 377.53C674.823 389.858 675.925 401.626 676.776 412.343C677.574 423.062 678.174 432.725 678.5 440.848C678.705 444.908 678.802 448.582 678.902 451.809C679.014 455.037 679.071 457.816 679.094 460.089C679.119 462.334 679.139 464.091 679.154 465.322C679.154 465.897 679.154 466.347 679.153 466.684C679.149 466.99 679.142 467.149 679.131 467.149C679.12 467.149 679.107 466.991 679.089 466.685C679.073 466.348 679.053 465.898 679.026 465.325C678.985 464.095 678.925 462.339 678.85 460.095C678.789 457.823 678.697 455.047 678.551 451.821C678.415 448.598 678.289 444.925 678.056 440.869C677.673 432.753 677.028 423.099 676.198 412.388C675.315 401.681 674.198 389.92 672.78 377.602C671.335 365.29 669.725 353.589 668.129 342.965C666.48 332.351 664.893 322.807 663.403 314.817C662.7 310.815 661.981 307.21 661.371 304.04C660.774 300.867 660.227 298.142 659.764 295.916C659.324 293.714 658.98 291.992 658.737 290.783C658.631 290.219 658.548 289.777 658.486 289.445C658.432 289.143 658.41 288.987 658.421 288.985Z" fill="#312B35"/>
<path d="M672.595 459.93C672.595 459.93 639.497 422.583 629.221 400.006L636.979 396.71C631.356 397.633 625.594 395.229 621.234 391.58C616.872 387.93 613.671 383.128 610.531 378.399L620.751 376.681C611.458 374.088 603.269 367.779 598.421 359.479C610.481 361.452 621.392 368.04 630.384 376.273C637.665 382.941 643.83 390.681 649.751 398.59C652.64 402.448 655.168 406.558 657.274 410.889C662.834 422.323 672.615 446.214 672.595 459.93Z" fill="#DB96AF"/>
<path d="M744.358 320.059C744.368 320.064 744.315 320.193 744.203 320.439C744.073 320.712 743.905 321.071 743.691 321.523C743.213 322.505 742.536 323.893 741.672 325.665C739.896 329.248 737.38 334.463 734.336 340.935C731.282 347.401 727.77 355.159 723.996 363.827C720.253 372.508 716.268 382.108 712.304 392.269C708.361 402.443 704.815 412.215 701.711 421.143C698.639 430.083 695.99 438.173 693.875 445C691.749 451.825 690.084 457.366 688.975 461.206C688.416 463.093 687.977 464.573 687.667 465.621C687.519 466.097 687.401 466.475 687.312 466.764C687.227 467.021 687.179 467.151 687.168 467.148C687.159 467.145 687.186 467.009 687.249 466.747C687.324 466.453 687.42 466.071 687.545 465.586C687.827 464.532 688.228 463.041 688.738 461.14C689.777 457.278 691.378 451.716 693.451 444.871C695.512 438.023 698.12 429.913 701.163 420.957C704.24 412.012 707.772 402.227 711.717 392.044C715.684 381.874 719.69 372.274 723.465 363.598C727.271 354.936 730.827 347.191 733.934 340.745C737.031 334.295 739.609 329.107 741.455 325.555C742.362 323.807 743.076 322.435 743.579 321.466C743.815 321.025 744.002 320.677 744.145 320.41C744.276 320.173 744.347 320.055 744.358 320.059Z" fill="#312B35"/>
<path d="M675.403 475.933C675.381 475.935 675.329 475.699 675.249 475.246C675.166 474.724 675.06 474.068 674.93 473.263C674.805 472.401 674.645 471.348 674.417 470.13C674.195 468.912 673.981 467.52 673.649 465.998C673.057 462.94 672.207 459.328 671.125 455.358C670.006 451.396 668.635 447.08 666.961 442.634C665.261 438.195 663.422 434.054 661.629 430.345C659.802 426.652 658.039 423.384 656.451 420.7C655.689 419.34 654.923 418.154 654.281 417.094C653.644 416.031 653.064 415.135 652.585 414.406C652.147 413.715 651.789 413.155 651.506 412.707C651.266 412.315 651.146 412.104 651.166 412.092C651.184 412.078 651.336 412.267 651.61 412.636C651.92 413.065 652.31 413.607 652.789 414.27C653.3 414.98 653.91 415.858 654.577 416.907C655.25 417.951 656.044 419.124 656.833 420.475C658.476 423.138 660.286 426.398 662.149 430.09C663.978 433.801 665.841 437.954 667.549 442.412C669.231 446.88 670.592 451.22 671.684 455.206C672.74 459.202 673.547 462.837 674.085 465.915C674.39 467.448 674.574 468.85 674.764 470.076C674.96 471.301 675.084 472.362 675.173 473.23C675.255 474.044 675.322 474.706 675.375 475.231C675.415 475.689 675.426 475.93 675.403 475.933Z" fill="#312B35"/>
<path d="M719.076 481.843H646.637V467.148H719.076V481.843Z" fill="#312B35"/>
<path d="M653.539 481.844L661.375 531.271H705.148L712.449 481.844H653.539Z" fill="#312B35"/>
<path d="M714.632 481.843C714.632 482.017 700.929 482.156 684.029 482.156C667.122 482.156 653.422 482.017 653.422 481.843C653.422 481.67 667.122 481.531 684.029 481.531C700.929 481.531 714.632 481.67 714.632 481.843Z" fill="#69839B"/>
<path d="M474.747 91.2643C474.747 91.2643 461.339 95.8255 459.681 104.697C457.988 113.752 456.152 125.761 456.152 125.761L476.432 124.628L474.747 91.2643Z" fill="#DB96AF"/>
<path d="M486.096 86.9367L473.538 91.7379L470.92 155.465L469.25 176.733H532.014L524.494 91.2639L504.914 87.1863L486.096 86.9367Z" fill="#DB96AF"/>
<path d="M540.476 122.916C540.476 122.916 537.325 93.0603 524.494 91.2651L519.091 111.018V122.916H540.476Z" fill="#DB96AF"/>
<path d="M475.525 127.163C475.525 127.163 480.074 124.999 482.211 125.761C484.348 126.522 493.312 130.701 493.312 130.701L476.431 136.256L472.272 131.532L475.525 127.163Z" fill="#FFBF9D"/>
<g opacity="0.300003">
<path d="M530.153 151.685C529.099 149.086 526.652 147.244 524.013 146.262C521.374 145.281 518.523 145.044 515.714 144.818C507.824 144.179 499.935 143.541 492.046 142.902C489.057 142.66 485.976 142.428 483.125 143.352C478.068 144.993 473.761 149.973 470.97 154.476V155.531C473.388 157.314 476.724 157.292 479.645 156.566C482.565 155.841 485.313 154.504 488.256 153.876C493.788 152.698 499.509 154.106 504.99 155.505C510.001 156.784 515.011 158.063 520.021 159.342C522.723 160.034 525.793 160.672 528.141 159.173C530.512 157.66 531.205 154.284 530.153 151.685Z" fill="#312B35"/>
</g>
<path d="M457.762 125.76C457.762 125.76 457.189 147.609 461.915 151.649C466.643 155.689 469.569 155.016 474.747 154.343C479.924 153.67 509.637 138.873 509.637 138.873L506.486 128.304L475.647 133.915L475.481 124.627L457.762 125.76Z" fill="#FFBF9D"/>
<path d="M537.999 122.916C537.999 122.916 539.35 147.384 537.999 150.527C536.649 153.67 531.697 157.037 526.295 156.139C520.891 155.24 491.92 147.388 491.894 147.398C491.867 147.41 501.983 136.834 501.983 136.834L522.918 136.385L521.568 122.916H537.999Z" fill="#FFBF9D"/>
<path d="M521.568 125.76C515.733 121.602 506.486 128.304 506.486 128.304V129.426L508.797 137.002L522.918 136.385C522.918 136.385 525.324 128.439 521.568 125.76" fill="#FFBF9D"/>
<path d="M522.461 136.256C522.464 136.327 521.197 136.429 519.053 136.543C516.909 136.657 513.889 136.784 510.382 136.907L510.54 136.856C509.252 137.721 507.836 138.637 506.35 139.556C502.338 142.041 498.567 144.06 495.795 145.428C494.41 146.114 493.272 146.634 492.479 146.982C491.685 147.323 491.237 147.493 491.218 147.455C491.2 147.415 491.613 147.17 492.372 146.762C493.251 146.291 494.326 145.713 495.59 145.035C498.302 143.571 502.024 141.501 506.018 139.025C507.498 138.11 508.911 137.207 510.207 136.359L510.281 136.311L510.365 136.309C513.872 136.227 516.896 136.178 519.041 136.169C521.188 136.158 522.459 136.185 522.461 136.256Z" fill="#DB96AF"/>
<path d="M521.568 122.916C521.654 122.91 521.813 124.102 521.999 126.034C522.186 127.964 522.399 130.636 522.599 133.588C522.655 134.504 522.712 135.392 522.765 136.236L522.646 136.015C524.522 137.454 525.888 139.004 526.739 140.176C527.593 141.35 527.969 142.132 527.914 142.165C527.769 142.28 525.988 139.261 522.278 136.498L522.168 136.416L522.157 136.276C522.098 135.433 522.036 134.545 521.971 133.628C521.773 130.676 521.628 128.002 521.555 126.062C521.484 124.123 521.481 122.922 521.568 122.916Z" fill="#DB96AF"/>
<path d="M496.406 130.138C496.422 130.223 494.858 130.587 492.318 131.106C489.778 131.626 486.261 132.301 482.37 133.011C479.961 133.434 477.697 133.834 475.697 134.187L475.862 134.089C474.417 135.813 473.196 137.244 472.323 138.235C471.451 139.227 470.928 139.777 470.882 139.74C470.835 139.703 471.271 139.081 472.07 138.03C472.869 136.98 474.029 135.499 475.433 133.741L475.494 133.665L475.597 133.645C477.593 133.271 479.854 132.846 482.257 132.395C486.148 131.687 489.678 131.081 492.238 130.672C494.799 130.263 496.389 130.053 496.406 130.138Z" fill="#DB96AF"/>
<path d="M475.479 124.628C475.654 124.625 475.831 126.703 475.877 129.266C475.923 131.831 475.82 133.912 475.648 133.916C475.473 133.919 475.295 131.842 475.25 129.278C475.203 126.713 475.305 124.631 475.479 124.628Z" fill="#DB96AF"/>
<path d="M473.542 107.091C473.716 107.074 474.298 111.553 474.846 117.095C475.394 122.64 475.698 127.146 475.526 127.163C475.353 127.18 474.769 122.7 474.22 117.156C473.673 111.615 473.369 107.107 473.542 107.091Z" fill="#312B35"/>
<path d="M522.632 104.844C522.806 104.852 522.736 109.249 522.478 114.665C522.219 120.082 521.869 124.464 521.696 124.456C521.522 124.447 521.592 120.052 521.85 114.635C522.108 109.219 522.458 104.836 522.632 104.844Z" fill="#312B35"/>
<path d="M522.645 54.1253C521.167 52.5449 519.38 51.0521 518.864 48.9545C518.393 47.0249 519.077 44.8169 518.055 43.1117C516.797 41.0141 513.656 40.8365 512.144 38.9141C511.412 37.9829 511.156 36.7493 510.433 35.8109C509.2 34.2137 506.903 33.8513 504.901 34.1285C502.898 34.4045 500.985 35.1857 498.974 35.3897C496.214 35.6681 493.331 34.8581 490.7 35.7329C487.798 36.6989 486.087 39.3413 484.26 41.9045L481.866 44.8853C481.367 45.3977 480.839 45.8729 480.252 46.2761C479.229 46.9841 478.047 47.4869 477.174 48.3749C475.31 50.2745 475.584 53.8073 477.719 55.3985C475.61 56.1425 474.151 58.4081 474.352 60.6293C474.46 61.8509 475.007 62.9837 475.412 64.1429C475.817 65.3009 476.08 66.5969 475.625 67.7369C475.171 68.8769 473.753 69.6941 472.662 69.1253C473.092 70.7009 474.274 72.0533 475.782 72.6905C475.223 73.3001 474.425 73.6853 473.599 73.7417C476.011 78.9233 482.201 81.4901 487.928 81.3341C493.655 81.1793 499.064 78.8369 504.307 76.5329L519.593 72.0353C520.936 71.6825 521.447 70.0241 521.382 68.6393C521.315 67.2545 520.917 65.8253 521.371 64.5161C521.992 62.7197 524.029 61.7117 524.682 59.9261C525.426 57.8981 524.122 55.7045 522.645 54.1253Z" fill="#312B35"/>
<path d="M486.63 69.3398C485.399 65.9018 484.182 62.4386 483.563 58.8398C482.943 55.2434 482.945 51.4742 484.121 48.0182C484.299 47.4938 485.847 43.9694 486.401 44.0078C486.797 44.0354 485.875 47.309 486.085 47.645C488.082 50.8502 488.712 54.7562 488.515 58.5254C488.319 62.2946 487.633 65.7002 486.63 69.3398Z" fill="#312B35"/>
<path d="M500.197 38.066L499.347 38.0443C490.173 38.3515 485.308 46.2919 485.869 55.4299L486.096 86.9371C486.138 92.6371 490.646 97.3075 496.356 97.5655C502.349 97.8355 507.405 93.1555 507.582 87.1747C507.631 85.5187 507.671 84.3607 507.677 84.3607C507.677 84.3607 516.518 83.2135 516.846 74.4355C517.004 70.1947 516.617 61.4359 516.175 53.5147C515.701 44.9983 508.746 38.2784 500.197 38.066Z" fill="#FFBF9D"/>
<path d="M507.677 84.361C507.677 84.361 502.119 84.5482 496.296 80.6962C496.296 80.6962 498.932 87.1522 507.739 86.5798L507.677 84.361Z" fill="#DB96AF"/>
<path d="M512.399 60.6949C512.406 61.3573 511.849 61.9105 511.155 61.9297C510.462 61.9489 509.894 61.4305 509.887 60.7669C509.879 60.1045 510.437 59.5513 511.13 59.5309C511.823 59.5117 512.392 60.0325 512.399 60.6949Z" fill="#312B35"/>
<path d="M514.203 57.1119C514.043 57.2715 513.109 56.5443 511.755 56.5143C510.404 56.4651 509.393 57.1347 509.251 56.9655C509.181 56.8911 509.347 56.5995 509.787 56.2959C510.22 55.9947 510.955 55.7091 511.797 55.7331C512.639 55.7583 513.34 56.0859 513.74 56.4123C514.149 56.7411 514.281 57.0399 514.203 57.1119Z" fill="#312B35"/>
<path d="M499.717 60.6948C499.724 61.3572 499.167 61.9104 498.473 61.9296C497.782 61.95 497.212 61.4304 497.205 60.7668C497.199 60.1044 497.755 59.5512 498.448 59.5308C499.142 59.5116 499.71 60.0324 499.717 60.6948Z" fill="#312B35"/>
<path d="M500.936 57.3287C500.775 57.4883 499.839 56.7623 498.487 56.7311C497.136 56.6819 496.125 57.3527 495.982 57.1823C495.912 57.1079 496.076 56.8175 496.518 56.5139C496.951 56.2115 497.686 55.9259 498.528 55.9499C499.371 55.9763 500.072 56.3027 500.472 56.6291C500.879 56.9579 501.013 57.2579 500.936 57.3287Z" fill="#312B35"/>
<path d="M505.53 67.8181C505.526 67.7413 506.37 67.6177 507.738 67.4773C508.085 67.4497 508.414 67.3897 508.477 67.1557C508.565 66.9097 508.43 66.5341 508.272 66.1285C507.969 65.2873 507.65 64.4053 507.315 63.4801C505.99 59.7085 505.039 56.6113 505.192 56.5597C505.345 56.5081 506.544 59.5213 507.869 63.2929C508.187 64.2229 508.492 65.1085 508.782 65.9569C508.903 66.3517 509.118 66.8017 508.927 67.3141C508.828 67.5685 508.57 67.7497 508.346 67.8037C508.123 67.8661 507.929 67.8649 507.759 67.8697C506.384 67.9093 505.534 67.8949 505.53 67.8181Z" fill="#312B35"/>
<path d="M501.525 68.6526C501.746 68.6454 501.711 70.1106 502.943 71.181C504.171 72.255 505.741 72.129 505.748 72.3342C505.766 72.4266 505.392 72.6102 504.731 72.6114C504.082 72.6186 503.141 72.387 502.388 71.7318C501.636 71.0754 501.328 70.2162 501.293 69.6138C501.251 69.0006 501.425 68.6418 501.525 68.6526Z" fill="#312B35"/>
<path d="M500.997 51.8506C500.854 52.2142 499.508 52.0066 497.915 52.1578C496.32 52.2778 495.029 52.7098 494.826 52.375C494.737 52.2154 494.968 51.8758 495.494 51.5338C496.016 51.1918 496.844 50.875 497.799 50.7934C498.755 50.713 499.624 50.8846 500.196 51.1342C500.772 51.3826 501.06 51.6778 500.997 51.8506Z" fill="#312B35"/>
<path d="M513.756 52.6125C513.51 52.9125 512.586 52.5717 511.466 52.5285C510.348 52.4469 509.391 52.6833 509.18 52.3569C509.089 52.1997 509.246 51.8961 509.667 51.6165C510.082 51.3381 510.772 51.1173 511.542 51.1605C512.312 51.2037 512.973 51.4977 513.355 51.8217C513.742 52.1469 513.865 52.4649 513.756 52.6125Z" fill="#312B35"/>
<path d="M486.426 61.9492C486.278 61.8808 480.419 60.0148 480.463 66.0232C480.506 72.0304 486.546 70.7488 486.554 70.576C486.562 70.4044 486.426 61.9492 486.426 61.9492Z" fill="#FFBF9D"/>
<path d="M484.697 68.3139C484.672 68.2947 484.594 68.3883 484.418 68.4699C484.244 68.5503 483.947 68.6067 483.632 68.4915C482.995 68.2635 482.452 67.2591 482.413 66.1767C482.395 65.6295 482.507 65.1087 482.698 64.6755C482.878 64.2351 483.161 63.9255 483.481 63.8667C483.8 63.7911 484.028 63.9807 484.103 64.1499C484.185 64.3167 484.147 64.4379 484.179 64.4475C484.197 64.4619 484.308 64.3455 484.258 64.0983C484.232 63.9783 484.161 63.8379 484.018 63.7227C483.872 63.6075 483.66 63.5487 483.437 63.5739C482.972 63.6099 482.557 64.0383 482.347 64.5135C482.11 64.9899 481.973 65.5767 481.995 66.1899C482.042 67.4007 482.67 68.5299 483.544 68.7747C483.969 68.8815 484.321 68.7519 484.503 68.6091C484.688 68.4591 484.719 68.3247 484.697 68.3139Z" fill="#DB96AF"/>
<path d="M512.121 43.6235C513.087 43.0715 510.111 39.9695 507.698 38.9231C504.052 37.3427 498.506 36.4211 495.182 37.4183C491.18 38.6183 487.872 40.6655 485.912 44.3459C483.951 48.0263 483.261 52.2887 483.444 56.4515C483.5 57.7223 483.653 59.0447 484.351 60.1091C485.215 61.4231 486.842 62.2343 486.801 64.0679C486.786 64.7375 486.987 65.4107 487.455 65.8919C488.575 67.0439 489.907 65.9243 490.509 64.8131C491.796 62.4395 491.898 59.6267 491.973 56.9291C492.025 55.0127 492.072 53.0543 491.5 51.2231C491.19 50.2259 490.701 49.2875 490.447 48.2747C490.192 47.2631 490.204 46.1087 490.826 45.2687C490.927 45.1319 491.095 44.9591 491.307 44.7683C492.99 43.2491 495.37 42.7655 497.52 43.4855C500.933 44.6291 506.754 46.3247 508.249 45.1523C510.399 43.4663 510.902 42.3815 510.902 42.3815L512.121 43.6235Z" fill="#312B35"/>
<path d="M495.483 36.5978C498.776 35.441 502.546 35.4398 505.669 36.9938C507.327 37.8182 508.834 39.1538 509.365 40.925C509.893 42.6962 509.168 44.897 507.463 45.6206L507.346 45.6974C504.79 46.5998 503.113 46.283 500.537 45.4394C498.37 44.729 496.431 43.433 494.259 42.7322C491.95 41.9882 489.417 41.9558 487.09 42.6386C489.352 39.9878 492.19 37.7534 495.483 36.5978Z" fill="#312B35"/>
<path d="M204.757 476.055L189.541 500.415C189.541 500.415 209.326 523.977 206.955 528.75L158.403 501.106L180.546 462.183L204.757 476.055Z" fill="#69839B"/>
<path d="M175.731 489.774C174.644 489.494 173.39 490.175 173.065 491.244C172.74 492.312 173.424 493.586 174.507 493.885C175.588 494.183 177.119 493.411 177.322 492.313C177.526 491.215 176.638 489.763 175.517 489.732" fill="#E1E1E1"/>
<g opacity="0.600006">
<path d="M158.403 501.106L160.79 497.269L206.448 525.209C206.448 525.209 208.072 527.375 206.956 528.75L158.403 501.106Z" fill="white"/>
</g>
<path d="M190.468 500.616C190.325 500.848 189.078 500.28 187.476 500.374C185.868 500.426 184.68 501.104 184.516 500.887C184.324 500.717 185.488 499.508 187.431 499.429C189.373 499.332 190.644 500.43 190.468 500.616Z" fill="#312B35"/>
<path d="M194.355 505.611C194.278 505.87 193.021 505.686 191.64 506.225C190.245 506.723 189.421 507.685 189.192 507.541C188.947 507.451 189.578 505.978 191.306 505.339C193.028 504.687 194.479 505.384 194.355 505.611Z" fill="#312B35"/>
<path d="M193.758 513.318C193.514 513.246 193.862 511.88 195.214 510.936C196.56 509.982 197.97 510.108 197.958 510.362C197.981 510.632 196.861 510.916 195.763 511.708C194.647 512.474 194.006 513.43 193.758 513.318Z" fill="#312B35"/>
<path d="M193.317 494.683C193.094 494.841 192.194 493.897 190.801 493.224C189.422 492.523 188.122 492.376 188.115 492.104C188.076 491.856 189.597 491.562 191.226 492.378C192.86 493.179 193.54 494.563 193.317 494.683Z" fill="#312B35"/>
<path d="M202.646 486.061L201.005 514.691C201.005 514.691 229.718 525.966 229.931 531.287L173.998 530.117L174.713 485.402L202.646 486.061Z" fill="#69839B"/>
<path d="M183.76 511.92C182.672 512.192 181.898 513.387 182.126 514.479C182.355 515.573 183.57 516.365 184.663 516.113C185.756 515.859 186.729 514.453 186.379 513.393C186.029 512.333 184.552 511.479 183.552 511.986" fill="#E1E1E1"/>
<g opacity="0.600006">
<path d="M173.997 530.117L174.247 525.612L227.783 528.418C227.783 528.418 230.251 529.547 229.931 531.287L173.997 530.117Z" fill="white"/>
</g>
<path d="M201.918 514.428C201.903 514.7 200.535 514.795 199.173 515.64C197.788 516.45 197.07 517.611 196.821 517.498C196.57 517.441 197.013 515.824 198.679 514.831C200.337 513.822 201.982 514.18 201.918 514.428Z" fill="#312B35"/>
<path d="M207.734 516.964C207.791 517.229 206.598 517.666 205.646 518.795C204.661 519.896 204.4 521.134 204.128 521.117C203.871 521.153 203.716 519.558 204.926 518.177C206.124 516.785 207.734 516.704 207.734 516.964Z" fill="#312B35"/>
<path d="M210.918 524.016C210.669 524.069 210.316 522.703 211.05 521.232C211.773 519.752 213.072 519.192 213.183 519.421C213.333 519.648 212.487 520.429 211.904 521.647C211.293 522.851 211.19 523.994 210.918 524.016Z" fill="#312B35"/>
<path d="M201.564 507.862C201.444 508.106 200.199 507.706 198.653 507.779C197.105 507.818 195.894 508.309 195.756 508.073C195.602 507.874 196.796 506.892 198.618 506.833C200.439 506.76 201.703 507.65 201.564 507.862Z" fill="#312B35"/>
<path d="M250.681 303.307C250.681 303.307 246.926 394.018 244.613 402.45C242.3 410.884 194.945 497.128 194.945 497.128L166.374 483.175L204.266 392.118V304.237L250.681 303.307Z" fill="#312B35"/>
<path d="M177.423 303.307C177.423 303.307 174.426 325.384 175.968 327.684C177.51 329.985 180.208 337.269 180.208 337.269L177.89 408.189L170.957 512.461H204.266L218.557 420.511C218.557 420.511 223.569 412.078 225.496 404.794C227.424 397.51 238.802 325.055 238.802 325.055V297.126L177.423 303.307Z" fill="#312B35"/>
<path d="M242.48 307.184C242.492 307.185 242.474 307.367 242.428 307.723C242.374 308.109 242.301 308.629 242.207 309.293C241.992 310.709 241.686 312.733 241.292 315.322C240.462 320.59 239.271 328.15 237.802 337.477C236.3 346.838 234.516 357.965 232.534 370.319C231.524 376.499 230.525 382.989 229.361 389.709C228.175 396.417 226.698 403.369 224.173 410.186C221.665 416.993 218.081 423.19 216.876 429.898C215.442 436.54 214.442 443.041 213.467 449.219C211.582 461.594 210.066 472.766 208.773 482.145C207.486 491.525 206.441 499.117 205.651 504.355C205.254 506.972 204.936 509.003 204.683 510.375C204.559 511.035 204.461 511.552 204.389 511.935C204.319 512.285 204.277 512.463 204.266 512.461C204.254 512.458 204.272 512.277 204.319 511.922C204.374 511.537 204.449 511.017 204.546 510.353C204.742 508.936 205.024 506.908 205.384 504.315C206.075 499.029 207.065 491.443 208.288 482.08C209.518 472.693 210.983 461.511 212.836 449.123C213.795 442.935 214.781 436.433 216.213 429.752C217.437 422.936 221.049 416.678 223.524 409.947C226.026 403.193 227.5 396.283 228.694 389.591C229.863 382.889 230.878 376.393 231.905 370.219C233.941 357.873 235.774 346.754 237.318 337.4C238.879 328.087 240.145 320.54 241.026 315.28C241.475 312.699 241.825 310.682 242.069 309.271C242.191 308.611 242.287 308.095 242.358 307.711C242.427 307.36 242.468 307.181 242.48 307.184Z" fill="#69839B"/>
<path d="M174.681 456.456C174.729 456.459 174.725 457.24 174.677 458.651C174.631 460.062 174.531 462.102 174.388 464.621C174.102 469.66 173.6 476.613 173.014 484.287C172.429 491.964 171.924 498.912 171.595 503.945C171.435 506.371 171.301 508.38 171.2 509.904C171.099 511.312 171.022 512.089 170.974 512.088C170.927 512.086 170.912 511.306 170.929 509.893C170.943 508.481 171.004 506.44 171.107 503.919C171.311 498.876 171.739 491.914 172.324 484.235C172.935 476.62 173.487 469.729 173.9 464.586C174.106 462.163 174.279 460.158 174.408 458.634C174.538 457.23 174.633 456.454 174.681 456.456Z" fill="#69839B"/>
<path d="M250.33 114.121C248.169 111.808 245.553 109.624 244.8 106.555C244.107 103.732 245.11 100.501 243.615 98.0069C241.776 94.9373 237.179 94.6781 234.967 91.8641C233.895 90.5009 233.523 88.6961 232.464 87.3245C230.66 84.9869 227.299 84.4565 224.369 84.8621C221.438 85.2677 218.64 86.4089 215.696 86.7065C211.659 87.1157 207.442 85.9301 203.592 87.2105C199.344 88.6241 196.841 92.4893 194.168 96.2393L190.665 100.601C189.937 101.351 189.162 102.045 188.305 102.638C186.806 103.671 185.077 104.408 183.802 105.706C181.072 108.485 181.473 113.655 184.597 115.983C181.513 117.073 179.379 120.387 179.671 123.637C179.832 125.425 180.631 127.083 181.223 128.777C181.814 130.473 182.199 132.369 181.535 134.037C180.87 135.705 178.795 136.9 177.2 136.069C177.828 138.373 179.559 140.351 181.764 141.284C180.947 142.177 179.778 142.739 178.569 142.821C182.098 150.404 191.156 154.159 199.536 153.932C207.915 153.704 215.829 150.277 223.5 146.906L245.866 140.326C247.831 139.81 248.577 137.381 248.483 135.357C248.387 133.331 247.803 131.24 248.467 129.323C249.376 126.695 252.356 125.221 253.313 122.609C254.4 119.641 252.491 116.432 250.33 114.121Z" fill="#312B35"/>
<path d="M197.636 136.381C195.835 131.352 194.054 126.283 193.148 121.02C192.242 115.757 192.244 110.242 193.965 105.185C194.226 104.418 196.489 99.2606 197.3 99.317C197.879 99.3566 196.53 104.147 196.837 104.638C199.759 109.33 200.681 115.044 200.395 120.559C200.108 126.075 199.103 131.057 197.636 136.381Z" fill="#312B35"/>
<path d="M217.486 90.6232L216.243 90.5932C202.819 91.0408 195.702 102.66 196.523 116.03L196.855 162.129C196.915 170.469 203.512 177.303 211.867 177.68C220.636 178.074 228.033 171.227 228.292 162.477C228.364 160.054 228.422 158.36 228.431 158.36C228.431 158.36 241.367 156.681 241.846 143.837C242.078 137.633 241.513 124.817 240.865 113.225C240.172 100.768 229.995 90.934 217.486 90.6232Z" fill="#FFBF9D"/>
<path d="M228.431 158.359C228.431 158.359 220.298 158.633 211.78 152.998C211.78 152.998 215.433 162.496 228.316 161.658L228.431 158.359Z" fill="#DB96AF"/>
<path d="M237.662 123.733C237.673 124.702 236.857 125.51 235.842 125.54C234.829 125.569 233.996 124.808 233.986 123.838C233.977 122.869 234.791 122.059 235.805 122.03C236.82 122.001 237.652 122.763 237.662 123.733Z" fill="#312B35"/>
<path d="M237.98 118.49C237.745 118.723 236.377 117.66 234.397 117.616C232.42 117.544 230.941 118.524 230.734 118.277C230.63 118.166 230.873 117.74 231.518 117.296C232.151 116.856 233.225 116.437 234.458 116.473C235.692 116.51 236.717 116.988 237.301 117.467C237.899 117.948 238.094 118.386 237.98 118.49Z" fill="#312B35"/>
<path d="M218.622 123.733C218.633 124.702 217.817 125.51 216.802 125.54C215.789 125.569 214.957 124.808 214.947 123.838C214.937 122.869 215.751 122.059 216.765 122.03C217.781 122.001 218.612 122.763 218.622 123.733Z" fill="#312B35"/>
<path d="M218.566 118.807C218.332 119.041 216.961 117.978 214.984 117.934C213.007 117.862 211.528 118.842 211.319 118.595C211.216 118.485 211.458 118.059 212.104 117.616C212.738 117.173 213.812 116.755 215.045 116.79C216.278 116.829 217.304 117.307 217.888 117.784C218.484 118.265 218.681 118.704 218.566 118.807Z" fill="#312B35"/>
<path d="M225.29 134.155C225.283 134.043 226.519 133.861 228.52 133.656C229.027 133.617 229.508 133.529 229.601 133.186C229.73 132.826 229.532 132.276 229.302 131.683C228.856 130.452 228.391 129.161 227.902 127.807C225.962 122.29 224.572 117.759 224.795 117.682C225.018 117.606 226.772 122.017 228.712 127.534C229.177 128.895 229.624 130.192 230.047 131.431C230.224 132.01 230.537 132.667 230.261 133.417C230.115 133.791 229.737 134.056 229.411 134.134C229.084 134.225 228.8 134.223 228.549 134.231C226.54 134.289 225.294 134.267 225.29 134.155Z" fill="#312B35"/>
<path d="M219.429 135.376C219.752 135.365 219.703 137.508 221.503 139.076C223.301 140.648 225.598 140.463 225.608 140.763C225.635 140.898 225.087 141.167 224.119 141.17C223.171 141.178 221.793 140.84 220.69 139.881C219.592 138.921 219.14 137.664 219.089 136.782C219.029 135.885 219.282 135.36 219.429 135.376Z" fill="#312B35"/>
<path d="M218.657 110.793C218.448 111.325 216.478 111.021 214.149 111.243C211.814 111.418 209.924 112.049 209.629 111.561C209.496 111.327 209.835 110.83 210.606 110.329C211.369 109.828 212.579 109.365 213.977 109.245C215.376 109.127 216.647 109.379 217.484 109.744C218.329 110.108 218.747 110.541 218.657 110.793Z" fill="#312B35"/>
<path d="M237.325 111.907C236.965 112.346 235.614 111.847 233.974 111.784C232.337 111.664 230.938 112.011 230.63 111.534C230.495 111.303 230.724 110.858 231.342 110.45C231.95 110.041 232.96 109.72 234.086 109.782C235.212 109.846 236.179 110.277 236.737 110.75C237.306 111.225 237.484 111.692 237.325 111.907Z" fill="#312B35"/>
<path d="M197.338 125.568C197.12 125.469 188.551 122.738 188.612 131.529C188.675 140.319 197.511 138.443 197.525 138.191C197.539 137.939 197.338 125.568 197.338 125.568Z" fill="#FFBF9D"/>
<path d="M194.809 134.88C194.77 134.852 194.656 134.988 194.397 135.108C194.145 135.226 193.711 135.308 193.25 135.14C192.316 134.806 191.521 133.337 191.467 131.753C191.44 130.954 191.603 130.191 191.881 129.557C192.146 128.913 192.561 128.46 193.029 128.374C193.495 128.263 193.829 128.541 193.938 128.787C194.057 129.031 194.003 129.208 194.05 129.223C194.075 129.245 194.238 129.075 194.164 128.712C194.127 128.537 194.022 128.331 193.813 128.163C193.601 127.993 193.29 127.908 192.963 127.945C192.283 127.997 191.676 128.626 191.369 129.319C191.023 130.018 190.822 130.876 190.853 131.773C190.922 133.544 191.843 135.196 193.121 135.554C193.742 135.71 194.257 135.521 194.523 135.311C194.794 135.092 194.839 134.896 194.809 134.88Z" fill="#DB96AF"/>
<path d="M234.932 98.7547C236.345 97.9471 231.991 93.4075 228.461 91.8775C223.125 89.5639 215.011 88.2163 210.147 89.6755C204.292 91.4311 199.454 94.4263 196.585 99.8119C193.717 105.196 192.706 111.434 192.975 117.525C193.057 119.384 193.28 121.32 194.302 122.876C195.565 124.8 197.945 125.986 197.885 128.668C197.862 129.649 198.158 130.633 198.843 131.337C200.483 133.023 202.429 131.384 203.311 129.758C205.194 126.284 205.345 122.17 205.452 118.224C205.529 115.419 205.597 112.554 204.762 109.874C204.308 108.415 203.593 107.042 203.22 105.56C202.847 104.079 202.865 102.392 203.775 101.162C203.922 100.963 204.167 100.71 204.479 100.429C206.94 98.2075 210.424 97.4995 213.571 98.5543C218.562 100.226 227.079 102.708 229.267 100.993C232.414 98.5255 233.15 96.9379 233.15 96.9379L234.932 98.7547Z" fill="#312B35"/>
<path d="M210.589 88.4752C215.407 86.7832 220.922 86.7808 225.493 89.0536C227.919 90.2608 230.124 92.2156 230.9 94.8064C231.674 97.3984 230.611 100.618 228.117 101.676L227.946 101.788C224.206 103.11 221.753 102.646 217.984 101.411C214.812 100.372 211.974 98.4748 208.798 97.4512C205.42 96.3628 201.714 96.3136 198.309 97.3132C201.619 93.4348 205.772 90.1672 210.589 88.4752Z" fill="#312B35"/>
<path d="M178.595 234.683C178.075 245.509 175.03 307.108 175.03 307.108C175.03 307.108 195.468 314.536 219.081 311.653C242.695 308.768 252.705 313.257 252.705 313.257L245.742 205.741L228.06 164.74C228.06 164.74 203.386 161.402 196.855 162.129C196.855 162.129 191.486 165.571 190.195 167.033C183.567 174.535 179.06 190.537 178.809 203.878L178.595 234.683Z" fill="#DB96AF"/>
<g opacity="0.300003">
<path d="M215.957 209.194C209.423 203.627 200.568 206.069 196.101 198.757C201.016 211.129 207.09 223.046 214.218 234.305C214.675 235.025 215.184 235.786 215.978 236.106C217.71 236.807 219.364 235.108 220.939 234.106C223.86 232.247 227.774 232.733 230.889 234.247C234.006 235.762 236.581 238.159 239.376 240.202C242.17 242.244 245.42 244.001 248.887 243.893C239.184 231.212 228.125 219.56 215.957 209.194Z" fill="#312B35"/>
</g>
<path d="M242.403 202.69L258.998 217.851L276.942 177.248L292.108 182.303C292.108 182.303 275.814 242.35 271.585 246.94C265.807 253.208 256.278 252.359 251.297 247.957C245.576 242.899 224.193 221.917 224.193 221.917L242.403 202.69Z" fill="#FFBF9D"/>
<path d="M258.991 227.777C258.824 227.793 258.48 225.508 258.517 222.667C258.548 219.826 258.948 217.551 259.114 217.571C259.293 217.59 259.176 219.869 259.146 222.676C259.108 225.48 259.17 227.761 258.991 227.777Z" fill="#DB96AF"/>
<path d="M275.988 181.245L279.149 160.962C279.255 160.281 279.615 159.666 280.157 159.237L281.509 158.168C281.509 158.168 281.344 157.897 283.757 154.76C286.172 151.622 289.609 151.664 290.466 153.458C290.466 153.458 294.973 151.136 295.956 154.356C296.531 156.243 294.797 158.845 294.797 158.845C294.797 158.845 298.971 160.169 297.332 165.291C297.332 165.291 299.582 165.24 297.5 170.843C296.614 173.226 290.372 185.696 290.372 185.696L275.988 181.245Z" fill="#FFBF9D"/>
<path d="M264.425 165.663C264.705 166.547 265.692 166.997 266.55 166.633L287.511 157.703L290.274 153.577L265.331 163.741C264.572 164.05 264.179 164.885 264.425 165.663Z" fill="#312B35"/>
<path d="M295.72 157.198C295.85 157.277 295.174 158.861 294.087 160.724C293.008 162.611 291.615 163.795 291.496 163.648C291.391 163.525 292.494 162.244 293.548 160.404C294.613 158.579 295.554 157.098 295.72 157.198Z" fill="#DB96AF"/>
<path d="M284.746 161.981C284.601 161.885 285.789 159.881 287.396 157.506C289.004 155.13 290.425 153.282 290.568 153.379C290.712 153.475 289.526 155.478 287.917 157.854C286.31 160.23 284.89 162.078 284.746 161.981Z" fill="#DB96AF"/>
<path d="M295.73 167.603C295.604 167.477 296.027 166.871 296.477 166.109C296.935 165.35 297.266 164.691 297.438 164.74C297.601 164.782 297.521 165.588 297.017 166.428C296.519 167.268 295.844 167.727 295.73 167.603Z" fill="#DB96AF"/>
<path d="M244.467 200.69L217.498 228.926C207.651 219.58 198.693 204.668 194.088 192.235C192.615 188.257 192.068 182.24 193.204 178.147C194.348 174.019 195.601 172.841 198.488 170.428C198.488 170.428 207.184 163.515 219.276 174.189C226.624 180.674 244.467 200.69 244.467 200.69Z" fill="#DB96AF"/>
<path d="M244.467 200.69C244.455 200.685 244.35 200.591 244.156 200.391C243.939 200.162 243.654 199.858 243.292 199.474C242.515 198.634 241.412 197.442 240.004 195.921C237.146 192.838 233.025 188.361 227.813 182.945C225.197 180.252 222.334 177.284 219.055 174.344C217.36 172.959 215.575 171.525 213.471 170.51C211.403 169.457 209.086 168.687 206.64 168.558C204.21 168.41 201.653 168.909 199.441 170.166C197.404 171.59 195.277 173.397 194.313 175.844C193.806 177.06 193.417 178.366 193.186 179.685C192.958 181.013 192.894 182.384 192.917 183.759C192.982 186.508 193.397 189.318 194.331 191.976C197.151 199.539 200.835 206.488 204.802 212.694C208.79 218.891 213.123 224.362 217.682 228.735L217.306 228.743C225.422 220.325 232.172 213.326 236.92 208.401C239.286 205.966 241.152 204.046 242.455 202.706C243.083 202.068 243.572 201.569 243.932 201.204C244.271 200.865 244.467 200.69 244.467 200.69C244.481 200.69 244.327 200.866 244.014 201.207C243.675 201.574 243.21 202.076 242.617 202.716C241.346 204.07 239.528 206.009 237.222 208.466C232.493 213.464 225.773 220.566 217.692 229.108L217.508 229.301L217.314 229.118C212.694 224.728 208.317 219.239 204.294 213.017C200.292 206.784 196.582 199.815 193.74 192.188C192.775 189.44 192.358 186.585 192.292 183.771C192.27 182.363 192.335 180.959 192.574 179.582C192.82 178.198 193.213 176.878 193.746 175.605C194.273 174.329 195.073 173.153 196.039 172.202C196.516 171.719 197.02 171.28 197.522 170.849L198.28 170.211C198.569 169.986 198.847 169.822 199.141 169.649C201.477 168.33 204.141 167.823 206.673 167.984C209.217 168.125 211.608 168.933 213.723 170.02C215.878 171.072 217.686 172.54 219.4 173.955C222.692 176.939 225.534 179.924 228.136 182.64C233.311 188.1 237.381 192.624 240.185 195.758C241.556 197.313 242.63 198.532 243.387 199.39C243.729 199.792 244 200.109 244.205 200.349C244.391 200.571 244.479 200.694 244.467 200.69Z" fill="#312B35"/>
</svg>
