<svg width="491" height="63" viewBox="0 0 491 63" fill="none" xmlns="http://www.w3.org/2000/svg">
<rect x="7" y="28" width="467" height="10" fill="#D9D9D9"/>
<rect x="62" y="28" width="46" height="10" fill="#BDE0FE"/>
<circle cx="31.5" cy="31.5" r="31.5" fill="#BDE0FE"/>
<circle cx="138.5" cy="31.5" r="31.5" fill="#D9D9D9"/>
<circle cx="245.5" cy="31.5" r="31.5" fill="#D9D9D9"/>
<circle cx="352.5" cy="31.5" r="31.5" fill="#D9D9D9"/>
<circle cx="459.5" cy="31.5" r="31.5" fill="#D9D9D9"/>
<mask id="mask0_136_435" style="mask-type:alpha" maskUnits="userSpaceOnUse" x="9" y="9" width="45" height="45">
<rect x="9" y="9" width="44.5" height="44.5" fill="#D9D9D9"/>
</mask>
<g mask="url(#mask0_136_435)">
<path d="M31.25 31.2498C29.2104 31.2498 27.4644 30.5236 26.012 29.0712C24.5595 27.6188 23.8333 25.8728 23.8333 23.8332C23.8333 21.7936 24.5595 20.0476 26.012 18.5952C27.4644 17.1427 29.2104 16.4165 31.25 16.4165C33.2896 16.4165 35.0356 17.1427 36.488 18.5952C37.9404 20.0476 38.6667 21.7936 38.6667 23.8332C38.6667 25.8728 37.9404 27.6188 36.488 29.0712C35.0356 30.5236 33.2896 31.2498 31.25 31.2498ZM16.4167 46.0832V40.8915C16.4167 39.8408 16.6874 38.8748 17.2288 37.9934C17.769 37.1133 18.4872 36.4415 19.3833 35.978C21.2993 35.02 23.2462 34.3012 25.224 33.8216C27.2017 33.3432 29.2104 33.104 31.25 33.104C33.2896 33.104 35.2983 33.3432 37.276 33.8216C39.2538 34.3012 41.2007 35.02 43.1167 35.978C44.0128 36.4415 44.731 37.1133 45.2712 37.9934C45.8126 38.8748 46.0833 39.8408 46.0833 40.8915V46.0832H16.4167ZM20.125 42.3748H42.375V40.8915C42.375 40.5516 42.2903 40.2425 42.121 39.9644C41.9504 39.6863 41.726 39.47 41.4479 39.3155C39.7792 38.4811 38.095 37.855 36.3953 37.4372C34.6957 37.0206 32.9806 36.8123 31.25 36.8123C29.5194 36.8123 27.8043 37.0206 26.1047 37.4372C24.405 37.855 22.7208 38.4811 21.0521 39.3155C20.774 39.47 20.5502 39.6863 20.3809 39.9644C20.2103 40.2425 20.125 40.5516 20.125 40.8915V42.3748ZM31.25 27.5415C32.2698 27.5415 33.1431 27.1781 33.8699 26.4513C34.5955 25.7257 34.9583 24.853 34.9583 23.8332C34.9583 22.8134 34.5955 21.9407 33.8699 21.2151C33.1431 20.4883 32.2698 20.1248 31.25 20.1248C30.2302 20.1248 29.3575 20.4883 28.6319 21.2151C27.9051 21.9407 27.5417 22.8134 27.5417 23.8332C27.5417 24.853 27.9051 25.7257 28.6319 26.4513C29.3575 27.1781 30.2302 27.5415 31.25 27.5415Z" fill="#312B35"/>
</g>
<mask id="mask1_136_435" style="mask-type:alpha" maskUnits="userSpaceOnUse" x="115" y="9" width="45" height="45">
<rect x="115" y="9" width="44.5" height="44.5" fill="#D9D9D9"/>
</mask>
<g mask="url(#mask1_136_435)">
<path d="M138.25 47.9375L125.271 40.8917V29.7667L117.854 25.6875L138.25 14.5625L158.646 25.6875V40.5208H154.938V27.7271L151.229 29.7667V40.8917L138.25 47.9375ZM138.25 32.5479L150.951 25.6875L138.25 18.8271L125.549 25.6875L138.25 32.5479ZM138.25 43.7193L147.521 38.713V31.7135L138.25 36.8125L128.979 31.7135V38.713L138.25 43.7193Z" fill="#312B35"/>
</g>
<mask id="mask2_136_435" style="mask-type:alpha" maskUnits="userSpaceOnUse" x="224" y="8" width="45" height="45">
<rect x="224" y="8" width="44.5" height="44.5" fill="#D9D9D9"/>
</mask>
<g mask="url(#mask2_136_435)">
<path d="M231.417 48.7916C230.397 48.7916 229.524 48.4288 228.799 47.7032C228.072 46.9764 227.708 46.103 227.708 45.0833V24.6874C227.708 23.6676 228.072 22.7943 228.799 22.0675C229.524 21.3419 230.397 20.9791 231.417 20.9791H240.687V15.4166C240.687 14.3968 241.051 13.5235 241.778 12.7966C242.503 12.0711 243.376 11.7083 244.396 11.7083H248.104C249.124 11.7083 249.997 12.0711 250.724 12.7966C251.45 13.5235 251.812 14.3968 251.812 15.4166V20.9791H261.083C262.103 20.9791 262.976 21.3419 263.703 22.0675C264.429 22.7943 264.792 23.6676 264.792 24.6874V45.0833C264.792 46.103 264.429 46.9764 263.703 47.7032C262.976 48.4288 262.103 48.7916 261.083 48.7916H231.417ZM231.417 45.0833H261.083V24.6874H251.812C251.812 25.7072 251.45 26.5799 250.724 27.3055C249.997 28.0323 249.124 28.3958 248.104 28.3958H244.396C243.376 28.3958 242.503 28.0323 241.778 27.3055C241.051 26.5799 240.687 25.7072 240.687 24.6874H231.417V45.0833ZM235.125 41.3749H246.25V40.5405C246.25 40.0152 246.103 39.5282 245.809 39.0795C245.516 38.632 245.107 38.2846 244.581 38.0374C243.963 37.7593 243.338 37.551 242.705 37.4126C242.071 37.2729 241.398 37.203 240.687 37.203C239.977 37.203 239.305 37.2729 238.672 37.4126C238.038 37.551 237.412 37.7593 236.794 38.0374C236.268 38.2846 235.859 38.632 235.566 39.0795C235.272 39.5282 235.125 40.0152 235.125 40.5405V41.3749ZM249.958 38.5937H257.375V35.8124H249.958V38.5937ZM240.687 35.8124C241.46 35.8124 242.116 35.5417 242.657 35.0003C243.198 34.4601 243.469 33.8037 243.469 33.0312C243.469 32.2586 243.198 31.6022 242.657 31.062C242.116 30.5206 241.46 30.2499 240.687 30.2499C239.915 30.2499 239.259 30.5206 238.718 31.062C238.177 31.6022 237.906 32.2586 237.906 33.0312C237.906 33.8037 238.177 34.4601 238.718 35.0003C239.259 35.5417 239.915 35.8124 240.687 35.8124ZM249.958 33.0312H257.375V30.2499H249.958V33.0312ZM244.396 24.6874H248.104V15.4166H244.396V24.6874Z" fill="#312B35"/>
</g>
</svg>
